<svg width="34" height="34" viewBox="0 0 34 34" fill="none" xmlns="http://www.w3.org/2000/svg">
<g filter="url(#filter0_f_7093_399)">
<rect x="1" y="1" width="32" height="32" rx="8" fill="url(#paint0_linear_7093_399)"/>
</g>
<path fill-rule="evenodd" clip-rule="evenodd" d="M23.0079 3H10.9921C8.2131 3 7.20535 3.28936 6.18938 3.8327C5.1734 4.37606 4.37606 5.1734 3.8327 6.18938C3.28936 7.20535 3 8.2131 3 10.9921V23.0079C3 25.7869 3.28936 26.7947 3.8327 27.8106C4.37606 28.8267 5.1734 29.624 6.18938 30.1674C7.20535 30.7108 8.2131 31 10.9921 31H23.0079C25.7869 31 26.7947 30.7108 27.8106 30.1674C28.8267 29.624 29.624 28.8267 30.1674 27.8106C30.7108 26.7947 31 25.7869 31 23.0079V10.9921C31 8.2131 30.7108 7.20535 30.1674 6.18938C29.624 5.1734 28.8267 4.37606 27.8106 3.8327C26.7947 3.28936 25.7869 3 23.0079 3Z" fill="url(#paint1_linear_7093_399)"/>
<path d="M9 11.506C9 11.506 15.7673 11.489 18.9443 11.5122C20.8603 11.5265 22.392 12.3257 23.606 13.8308C26.2118 17.0618 24.6915 22.356 20.1098 23.3603C19.5765 23.4773 19.0115 23.4718 18.4608 23.4803C17.731 23.4915 16.9893 23.5378 16.2733 23.4318C14.74 23.205 13.371 21.723 13.329 20.1118C13.3198 19.765 13.4043 19.8053 13.1583 19.6688C12.0788 19.0698 11.148 17.6698 11.0095 16.4918C10.9603 16.0735 11.0505 15.9258 10.8438 15.8205C9.9485 15.0813 9.2045 13.671 9.1055 12.5475L9 11.506ZM14.746 20.0093C14.8658 21.108 15.686 22.1535 17.0283 22.1498H18.8935C20.669 22.1505 22.41 21.024 23.1375 19.2858C24.4103 16.2445 22.1868 12.8872 18.892 12.8835C18.0428 12.8825 17.1935 12.884 16.3443 12.8833C14.6635 12.8815 12.9828 12.879 11.302 12.877C11.0558 12.8765 10.8095 12.877 10.5555 12.877C10.702 13.984 11.4658 15.0153 12.8445 14.9918L18.8818 14.984C20.1448 14.986 21.2468 15.9563 21.3708 17.1665C21.5115 18.5415 20.6653 19.7105 19.3403 19.9608C19.157 19.9953 18.967 20.0068 18.7803 20.0073C17.444 20.0113 16.1075 20.0095 14.7463 20.0095L14.746 20.0093ZM12.3903 16.4185C12.3903 16.4185 12.7185 18.5723 14.6728 18.5643C14.6728 18.5643 18.5033 18.568 18.932 18.5475C19.3648 18.5268 19.6908 18.32 19.8705 17.9178C20.0375 17.544 19.9953 17.1875 19.746 16.859C19.477 16.505 19.0953 16.4285 18.6828 16.4275L12.3903 16.4185Z" fill="#1B1C20"/>
<path d="M9 11.506C9 11.506 15.7673 11.489 18.9443 11.5122C20.8603 11.5265 22.392 12.3257 23.606 13.8308C26.2118 17.0618 24.6915 22.356 20.1098 23.3603C19.5765 23.4773 19.0115 23.4718 18.4608 23.4803C17.731 23.4915 16.9893 23.5378 16.2733 23.4318C14.74 23.205 13.371 21.723 13.329 20.1118C13.3198 19.765 13.4043 19.8053 13.1583 19.6688C12.0788 19.0698 11.148 17.6698 11.0095 16.4918C10.9603 16.0735 11.0505 15.9258 10.8438 15.8205C9.9485 15.0813 9.2045 13.671 9.1055 12.5475L9 11.506ZM14.746 20.0093C14.8658 21.108 15.686 22.1535 17.0283 22.1498H18.8935C20.669 22.1505 22.41 21.024 23.1375 19.2858C24.4103 16.2445 22.1868 12.8872 18.892 12.8835C18.0428 12.8825 17.1935 12.884 16.3443 12.8833C14.6635 12.8815 12.9828 12.879 11.302 12.877C11.0558 12.8765 10.8095 12.877 10.5555 12.877C10.702 13.984 11.4658 15.0153 12.8445 14.9918L18.8818 14.984C20.1448 14.986 21.2468 15.9563 21.3708 17.1665C21.5115 18.5415 20.6653 19.7105 19.3403 19.9608C19.157 19.9953 18.967 20.0068 18.7803 20.0073C17.444 20.0113 16.1075 20.0095 14.7463 20.0095L14.746 20.0093ZM12.3903 16.4185C12.3903 16.4185 12.7185 18.5723 14.6728 18.5643C14.6728 18.5643 18.5033 18.568 18.932 18.5475C19.3648 18.5268 19.6908 18.32 19.8705 17.9178C20.0375 17.544 19.9953 17.1875 19.746 16.859C19.477 16.505 19.0953 16.4285 18.6828 16.4275L12.3903 16.4185Z" fill="url(#paint2_linear_7093_399)" fill-opacity="0.4"/>
<defs>
<filter id="filter0_f_7093_399" x="0" y="0" width="34" height="34" filterUnits="userSpaceOnUse" color-interpolation-filters="sRGB">
<feFlood flood-opacity="0" result="BackgroundImageFix"/>
<feBlend mode="normal" in="SourceGraphic" in2="BackgroundImageFix" result="shape"/>
<feGaussianBlur stdDeviation="0.5" result="effect1_foregroundBlur_7093_399"/>
</filter>
<linearGradient id="paint0_linear_7093_399" x1="1" y1="-8.6" x2="25.0677" y2="39.6171" gradientUnits="userSpaceOnUse">
<stop offset="0.223921" stop-color="#003024"/>
<stop offset="1" stop-color="#043029"/>
</linearGradient>
<linearGradient id="paint1_linear_7093_399" x1="11.5" y1="1" x2="23.5" y2="31" gradientUnits="userSpaceOnUse">
<stop offset="0.0943493" stop-color="#F0F0F0"/>
<stop offset="1" stop-color="#F6FDF1"/>
</linearGradient>
<linearGradient id="paint2_linear_7093_399" x1="8.3385" y1="11.4502" x2="9.011" y2="24.1595" gradientUnits="userSpaceOnUse">
<stop/>
<stop offset="0.956462" stop-color="#5B5151" stop-opacity="0.34"/>
</linearGradient>
</defs>
</svg>
