<svg width="1080" height="1080" viewBox="0 0 1080 1080" fill="none" xmlns="http://www.w3.org/2000/svg">
<path fill-rule="evenodd" clip-rule="evenodd" d="M772.722 619.901L915.912 763.092C924.696 771.876 924.696 786.123 915.912 794.912L772.722 938.097C763.934 946.886 749.687 946.886 740.903 938.097C732.114 929.313 732.114 915.066 740.903 906.278L845.681 801.5H180C167.574 801.5 157.5 791.424 157.5 779C157.5 766.575 167.574 756.5 180 756.5H845.681L740.903 651.721C732.114 642.934 732.114 628.688 740.903 619.901C749.687 611.114 763.934 611.114 772.722 619.901Z" fill="#E6EBF0"/>
<path fill-rule="evenodd" clip-rule="evenodd" d="M772.722 144.901L915.912 288.092C924.696 296.876 924.696 311.123 915.912 319.912L772.722 463.097C763.934 471.886 749.687 471.886 740.903 463.097C732.114 454.313 732.114 440.066 740.903 431.278L845.681 326.5H180C167.574 326.5 157.5 316.424 157.5 304C157.5 291.575 167.574 281.5 180 281.5H845.681L740.903 176.721C732.114 167.934 732.114 153.688 740.903 144.901C749.687 136.114 763.934 136.114 772.722 144.901Z" fill="#E6EBF0"/>
</svg>
