<svg width="16" height="16" viewBox="0 0 16 16" fill="none" xmlns="http://www.w3.org/2000/svg">
<path fill-rule="evenodd" clip-rule="evenodd" d="M12.0093 14.1323L14.855 5.59924C15.567 3.46417 13.5358 1.43297 11.4008 2.145L11.9543 3.80472C12.7214 3.54887 13.4511 4.27856 13.1953 5.04574L10.3495 13.5788C10.0805 14.3856 8.98262 14.4919 8.56431 13.7517L6.92338 10.3559C6.86448 10.234 6.7661 10.1357 6.64421 10.0768L3.24831 8.43569C2.50806 8.01738 2.61437 6.91952 3.42117 6.65046L11.9543 3.80472L11.4008 2.145L2.86767 4.99074C0.624175 5.73893 0.325836 8.79382 2.38756 9.95889L5.3609 11.6391L7.04111 14.6124C8.20618 16.6742 11.2611 16.3758 12.0093 14.1323Z" fill="#7DA19F"/>
<path d="M7.53747 9.35512C7.8791 9.69674 8.43298 9.69674 8.77461 9.35512L10.1626 7.96712C10.5043 7.62549 10.5043 7.0716 10.1626 6.72998C9.82098 6.38835 9.26709 6.38835 8.92546 6.72998L7.53747 8.11797C7.19585 8.4596 7.19585 9.01349 7.53747 9.35512Z" fill="#7DA19F"/>
</svg>
