<svg width="16" height="16" viewBox="0 0 16 16" fill="none" xmlns="http://www.w3.org/2000/svg">
<g clip-path="url(#clip0_414_317)">
<path d="M14.1944 3.631C14.028 3.35403 13.7921 3.12536 13.51 2.96763C13.228 2.8099 12.9097 2.72859 12.5866 2.73175L3.57553 2.78074C3.00303 2.78357 2.44809 2.97871 1.99983 3.33484C1.55158 3.69097 1.23601 4.18741 1.10381 4.74445C0.971613 5.30148 1.03046 5.88678 1.27089 6.40635C1.51132 6.92593 1.91939 7.34962 2.42957 7.60939L5.26551 9.05227L5.2398 12.2365C5.22801 12.8104 5.41293 13.3712 5.76383 13.8255C6.11473 14.2799 6.61051 14.6006 7.16882 14.7343L7.18695 14.7387C7.73994 14.8805 8.32473 14.83 8.84522 14.5955C9.36571 14.361 9.79093 13.9564 10.051 13.4482L14.2512 5.47173C14.4029 5.18655 14.4775 4.86668 14.4675 4.54381C14.4576 4.22095 14.3634 3.90628 14.1944 3.631ZM13.3656 5.00694L9.1684 12.9793C9.00902 13.2902 8.74826 13.5373 8.42929 13.6798C8.11032 13.8223 7.75225 13.8515 7.41437 13.7628C7.07299 13.6838 6.76949 13.489 6.55552 13.2115C6.34154 12.9341 6.2303 12.591 6.2407 12.2408L6.2703 9.0294L9.67767 6.95886C9.78596 6.88774 9.86242 6.77737 9.89094 6.65099C9.91945 6.52462 9.89781 6.3921 9.83056 6.28137C9.7633 6.17064 9.6557 6.09034 9.53041 6.05738C9.40511 6.02442 9.27192 6.04137 9.15889 6.10468L5.74828 8.17443L2.88496 6.72006C2.5744 6.56217 2.32593 6.30448 2.17948 5.98837C2.03303 5.67226 1.99709 5.31609 2.07745 4.9771C2.15781 4.63811 2.34979 4.33597 2.62255 4.11923C2.89532 3.9025 3.23302 3.78375 3.5814 3.78207L12.592 3.73228C12.6641 3.73171 12.7361 3.74006 12.8062 3.75716C12.9344 3.78847 13.0539 3.84868 13.1553 3.93319C13.2568 4.01771 13.3376 4.12429 13.3916 4.2448C13.4456 4.36532 13.4713 4.49657 13.4668 4.62855C13.4623 4.76052 13.4276 4.89037 13.3656 5.00694Z" fill="#7DA19F" stroke="#7DA19F"/>
</g>
<defs>
<clipPath id="clip0_414_317">
<rect width="16" height="16" fill="white"/>
</clipPath>
</defs>
</svg>
