<svg width="16" height="16" viewBox="0 0 16 16" fill="none" xmlns="http://www.w3.org/2000/svg">
<path fill-rule="evenodd" clip-rule="evenodd" d="M12.0093 13.1323L14.855 4.59924C15.567 2.46417 13.5358 0.432965 11.4008 1.145L11.9543 2.80472C12.7214 2.54887 13.4511 3.27856 13.1953 4.04574L10.3495 12.5788C10.0805 13.3856 8.98262 13.4919 8.56431 12.7517L6.92338 9.35593C6.86448 9.23404 6.7661 9.13566 6.64421 9.07676L3.24831 7.43569C2.50806 7.01738 2.61437 5.91952 3.42117 5.65046L11.9543 2.80472L11.4008 1.145L2.86767 3.99074C0.624177 4.73893 0.325838 7.79382 2.38756 8.95889L5.3609 10.6391L7.04111 13.6124C8.20618 15.6742 11.2611 15.3758 12.0093 13.1323Z" fill="#7DA19F"/>
<path d="M7.53758 8.35512C7.87921 8.69674 8.4331 8.69674 8.77473 8.35512L10.1627 6.96712C10.5044 6.62549 10.5044 6.0716 10.1627 5.72998C9.8211 5.38835 9.26721 5.38835 8.92558 5.72998L7.53758 7.11797C7.19596 7.4596 7.19596 8.01349 7.53758 8.35512Z" fill="#7DA19F"/>
<path d="M7.53758 8.35512C7.87921 8.69674 8.4331 8.69674 8.77473 8.35512L10.1627 6.96712C10.5044 6.62549 10.5044 6.0716 10.1627 5.72998C9.8211 5.38835 9.26721 5.38835 8.92558 5.72998L7.53758 7.11797C7.19596 7.4596 7.19596 8.01349 7.53758 8.35512Z" fill="#7DA19F"/>
</svg>
