<svg width="16" height="16" viewBox="0 0 16 16" fill="none" xmlns="http://www.w3.org/2000/svg">
<path fill-rule="evenodd" clip-rule="evenodd" d="M11.4388 12.4016L13.8786 5.0858C14.4891 3.2553 12.7476 1.51385 10.9171 2.12432L11.3917 3.54727C12.0494 3.32792 12.675 3.95352 12.4557 4.61125L10.0159 11.9271C9.78519 12.6188 8.84395 12.7099 8.48531 12.0753L7.09144 9.19078C7.03254 9.06889 6.93416 8.97051 6.81227 8.91161L3.92766 7.51762C3.29301 7.15898 3.38415 6.21774 4.07586 5.98705L11.3917 3.54727L10.9171 2.12432L3.60131 4.5641C1.67786 5.20556 1.42208 7.82466 3.18969 8.82353L5.73887 10.2641L7.1794 12.8132C8.17826 14.5808 10.7974 14.3251 11.4388 12.4016Z" fill="#7DA19F"/>
<path d="M7.60487 8.3059C7.89776 8.59879 8.37264 8.59879 8.66553 8.3059L9.85553 7.1159C10.1484 6.82301 10.1484 6.34813 9.85553 6.05524C9.56263 5.76235 9.08776 5.76235 8.79487 6.05524L7.60487 7.24524C7.31198 7.53813 7.31198 8.013 7.60487 8.3059Z" fill="#7DA19F"/>
<path d="M7.60487 8.3059C7.89776 8.59879 8.37264 8.59879 8.66553 8.3059L9.85553 7.1159C10.1484 6.82301 10.1484 6.34813 9.85553 6.05524C9.56263 5.76235 9.08776 5.76235 8.79487 6.05524L7.60487 7.24524C7.31198 7.53813 7.31198 8.013 7.60487 8.3059Z" fill="#7DA19F"/>
</svg>
