<svg width="16" height="16" viewBox="0 0 16 16" fill="none" xmlns="http://www.w3.org/2000/svg">
<path fill-rule="evenodd" clip-rule="evenodd" d="M4.14485 1H4.19926C4.53273 0.999988 4.82577 0.999978 5.06937 1.0166C5.32746 1.03421 5.59327 1.07338 5.85833 1.18317C6.448 1.42741 6.91631 1.89588 7.1605 2.48541C7.2703 2.7505 7.30946 3.01638 7.32707 3.27448C7.34369 3.51811 7.34368 3.81119 7.34367 4.14467V4.19908C7.34368 4.53256 7.34369 4.82563 7.32707 5.06927C7.30946 5.32736 7.2703 5.59324 7.1605 5.85833C6.91632 6.44783 6.44802 6.91634 5.85833 7.16059C5.59327 7.27039 5.32745 7.30955 5.06937 7.32716C4.82577 7.34378 4.53274 7.34377 4.19927 7.34376H4.14485C3.81136 7.34377 3.51829 7.34378 3.27466 7.32716C3.01656 7.30955 2.75068 7.2704 2.48559 7.16059C1.89616 6.91644 1.42745 6.44809 1.18317 5.85833C1.07336 5.59324 1.03421 5.32735 1.0166 5.06926C0.999978 4.82563 0.999988 4.53255 1 4.19906V4.14467C0.999988 3.81118 0.999978 3.5181 1.0166 3.27447C1.03421 3.01638 1.07336 2.75049 1.18317 2.48541C1.42747 1.89562 1.89619 1.42731 2.48559 1.18317C2.75068 1.07336 3.01656 1.03421 3.27466 1.0166C3.51829 0.999978 3.81137 0.999988 4.14485 1ZM3.39378 2.76254C3.22479 2.77407 3.1716 2.7932 3.15529 2.79996C2.9943 2.86664 2.86648 2.9945 2.79996 3.1551C2.7932 3.17142 2.77407 3.2246 2.76254 3.39359C2.75047 3.57044 2.75 3.80315 2.75 4.17186C2.75 4.54057 2.75047 4.77328 2.76254 4.95014C2.77407 5.11913 2.7932 5.17232 2.79996 5.18863C2.86649 5.34926 2.99432 5.47713 3.15529 5.54381C3.1716 5.55056 3.22479 5.56969 3.39378 5.58122C3.57063 5.59329 3.80334 5.59376 4.17205 5.59376C4.54076 5.59376 4.77342 5.59329 4.95022 5.58122C5.11913 5.56969 5.17229 5.55057 5.18863 5.54381C5.34934 5.47724 5.47707 5.34953 5.54371 5.18863C5.55047 5.17232 5.5696 5.11913 5.58113 4.95014C5.59319 4.77329 5.59367 4.54058 5.59367 4.17187C5.59367 3.80317 5.59319 3.57045 5.58113 3.3936C5.5696 3.2246 5.55047 3.17141 5.54371 3.1551C5.47708 2.99423 5.34936 2.86653 5.18863 2.79996C5.17229 2.79319 5.11913 2.77407 4.95022 2.76254C4.77342 2.75048 4.54076 2.75 4.17205 2.75C3.80334 2.75 3.57063 2.75047 3.39378 2.76254ZM11.8011 1H11.8555C12.189 0.999988 12.482 0.999978 12.7256 1.0166C12.9837 1.03421 13.2495 1.07338 13.5146 1.18317C14.1042 1.42741 14.5726 1.89588 14.8167 2.48541C14.9265 2.7505 14.9657 3.01638 14.9833 3.27448C14.9999 3.51812 14.9999 3.81121 14.9999 4.14472V4.19903C14.9999 4.53253 14.9999 4.82562 14.9833 5.06927C14.9657 5.32736 14.9265 5.59324 14.8167 5.85833C14.5726 6.44783 14.1043 6.91634 13.5146 7.16059C13.2495 7.27039 12.9837 7.30955 12.7256 7.32716C12.482 7.34378 12.189 7.34377 11.8555 7.34376H11.8011C11.4676 7.34377 11.1745 7.34378 10.9309 7.32716C10.6728 7.30955 10.4069 7.2704 10.1418 7.16059C9.5524 6.91644 9.0837 6.44809 8.83941 5.85833C8.7296 5.59324 8.69045 5.32735 8.67284 5.06926C8.65622 4.82563 8.65623 4.53255 8.65624 4.19907V4.14466C8.65623 3.81118 8.65622 3.5181 8.67284 3.27447C8.69045 3.01638 8.7296 2.75049 8.83941 2.48541C9.08371 1.89562 9.55243 1.42731 10.1418 1.18317C10.4069 1.07336 10.6728 1.03421 10.9309 1.0166C11.1745 0.999978 11.4676 0.999988 11.8011 1ZM11.05 2.76254C10.881 2.77407 10.8278 2.7932 10.8115 2.79996C10.6505 2.86664 10.5227 2.9945 10.4562 3.1551C10.4494 3.17142 10.4303 3.2246 10.4188 3.39359C10.4067 3.57045 10.4062 3.80315 10.4062 4.17186C10.4062 4.54057 10.4067 4.77328 10.4188 4.95014C10.4303 5.11913 10.4494 5.17232 10.4562 5.18863C10.5227 5.34926 10.6506 5.47713 10.8115 5.54381C10.8278 5.55056 10.881 5.56969 11.05 5.58122C11.2269 5.59329 11.4596 5.59376 11.8283 5.59376C12.197 5.59376 12.4297 5.59329 12.6065 5.58122C12.7754 5.56969 12.8285 5.55057 12.8449 5.54381C13.0056 5.47724 13.1333 5.34953 13.2 5.18863C13.2067 5.17232 13.2258 5.11913 13.2374 4.95014C13.2494 4.77329 13.2499 4.54058 13.2499 4.17187C13.2499 3.80317 13.2494 3.57045 13.2374 3.3936C13.2258 3.2246 13.2067 3.17141 13.2 3.1551C13.1333 2.99423 13.0056 2.86653 12.8449 2.79996C12.8285 2.79319 12.7754 2.77407 12.6065 2.76254C12.4297 2.75048 12.197 2.75 11.8283 2.75C11.4596 2.75 11.2269 2.75047 11.05 2.76254ZM4.14485 8.65624H4.19927C4.53274 8.65623 4.82578 8.65622 5.06937 8.67284C5.32746 8.69045 5.59327 8.72962 5.85833 8.83941C6.448 9.08366 6.91631 9.55212 7.1605 10.1416C7.2703 10.4067 7.30946 10.6726 7.32707 10.9307C7.34369 11.1744 7.34368 11.4674 7.34367 11.8009V11.8553C7.34368 12.1888 7.34369 12.4819 7.32707 12.7255C7.30946 12.9836 7.2703 13.2495 7.1605 13.5146C6.91632 14.1041 6.44802 14.5726 5.85833 14.8168C5.59327 14.9266 5.32745 14.9658 5.06937 14.9834C4.82578 15 4.53275 15 4.1993 15H4.14485C3.81136 15 3.51829 15 3.27466 14.9834C3.01656 14.9658 2.75068 14.9266 2.48559 14.8168C1.89616 14.5727 1.42746 14.1043 1.18317 13.5146C1.07336 13.2495 1.03421 12.9836 1.0166 12.7255C0.999978 12.4819 0.999988 12.1888 1 11.8553V11.8009C0.999988 11.4674 0.999978 11.1743 1.0166 10.9307C1.03421 10.6726 1.07336 10.4067 1.18317 10.1416C1.42747 9.55186 1.89619 9.08355 2.48559 8.83941C2.75068 8.7296 3.01656 8.69045 3.27466 8.67284C3.51829 8.65622 3.81136 8.65623 4.14485 8.65624ZM3.39378 10.4188C3.22479 10.4303 3.1716 10.4494 3.15529 10.4562C2.9943 10.5229 2.86648 10.6507 2.79996 10.8113C2.7932 10.8277 2.77407 10.8808 2.76254 11.0498C2.75047 11.2267 2.75 11.4594 2.75 11.8281C2.75 12.1968 2.75047 12.4295 2.76254 12.6064C2.77407 12.7754 2.7932 12.8286 2.79996 12.8449C2.86649 13.0055 2.99432 13.1334 3.15529 13.2C3.1716 13.2068 3.22479 13.2259 3.39378 13.2375C3.57063 13.2495 3.80334 13.25 4.17205 13.25C4.54076 13.25 4.77342 13.2495 4.95022 13.2375C5.11913 13.2259 5.17229 13.2068 5.18863 13.2C5.34934 13.1335 5.47707 13.0058 5.54371 12.8449C5.55047 12.8286 5.5696 12.7754 5.58113 12.6064C5.59319 12.4295 5.59367 12.1968 5.59367 11.8281C5.59367 11.4594 5.59319 11.2267 5.58113 11.0498C5.5696 10.8808 5.55047 10.8277 5.54371 10.8113C5.47708 10.6505 5.34936 10.5228 5.18863 10.4562C5.17229 10.4494 5.11913 10.4303 4.95022 10.4188C4.77342 10.4067 4.54076 10.4062 4.17205 10.4062C3.80334 10.4062 3.57063 10.4067 3.39378 10.4188ZM8.65624 9.53124C8.65624 9.04799 9.04799 8.65624 9.53124 8.65624H11.0625C11.5457 8.65624 11.9375 9.04799 11.9375 9.53124C11.9375 10.0145 11.5457 10.4062 11.0625 10.4062H9.53124C9.04799 10.4062 8.65624 10.0145 8.65624 9.53124ZM12.4844 9.53124C12.4844 9.04799 12.8761 8.65624 13.3594 8.65624H14.125C14.6082 8.65624 15 9.04799 15 9.53124V11.8281C15 12.3114 14.6082 12.7031 14.125 12.7031H11.8281C11.3449 12.7031 10.9531 12.3114 10.9531 11.8281C10.9531 11.3449 11.3449 10.9531 11.8281 10.9531H13.25V10.3995C12.8184 10.3456 12.4844 9.97745 12.4844 9.53124ZM9.53124 10.9531C10.0145 10.9531 10.4062 11.3449 10.4062 11.8281V13.25H11.0625C11.5457 13.25 11.9375 13.6417 11.9375 14.125C11.9375 14.6082 11.5457 15 11.0625 15H9.53124C9.04799 15 8.65624 14.6082 8.65624 14.125V11.8281C8.65624 11.3449 9.04799 10.9531 9.53124 10.9531ZM12.4844 14.125C12.4844 13.6417 12.8761 13.25 13.3594 13.25H14.125C14.6082 13.25 15 13.6417 15 14.125C15 14.6082 14.6082 15 14.125 15H13.3594C12.8761 15 12.4844 14.6082 12.4844 14.125Z" fill="#7DA19F"/>
</svg>
