<svg width="16" height="16" viewBox="0 0 16 16" fill="none" xmlns="http://www.w3.org/2000/svg">
<path fill-rule="evenodd" clip-rule="evenodd" d="M12.7452 1.75874L12.5255 1.0997C13.9934 0.61014 15.3899 2.00657 14.9003 3.47455L11.4849 13.7157C10.9703 15.2588 8.86978 15.4632 8.06899 14.0461L5.92631 10.2544L6.53567 9.91001L5.9263 10.2544C5.88362 10.1788 5.82116 10.1164 5.74563 10.0737L1.9539 7.931C0.536811 7.13022 0.741216 5.02967 2.28428 4.51507L12.5255 1.0997L12.7452 1.75874ZM13.5723 3.03168C13.6969 2.65818 13.3418 2.30311 12.9683 2.42767L2.72715 5.84304C2.3336 5.97428 2.28284 6.50897 2.6426 6.71227L6.43433 8.85496C6.73144 9.02285 6.97715 9.26856 7.14504 9.56567L9.28773 13.3574C9.49103 13.7172 10.0257 13.6664 10.157 13.2729L13.5723 3.03168ZM9.92371 6.07629C10.1971 6.34963 10.1971 6.7928 9.92371 7.06614L8.25788 8.73198C7.98453 9.00532 7.54136 9.00532 7.26802 8.73198C6.99468 8.45864 6.99468 8.01546 7.26802 7.74212L8.93386 6.07629C9.2072 5.80295 9.65037 5.80295 9.92371 6.07629Z" fill="#7DA19F"/>
</svg>
