<svg width="332" height="210" viewBox="0 0 332 210" fill="none" xmlns="http://www.w3.org/2000/svg">
<g clip-path="url(#clip0_5614_75141)">
<g filter="url(#filter0_d_5614_75141)">
<rect x="12.1436" y="185.758" width="0.661939" height="11.9149" transform="rotate(90 12.1436 185.758)" fill="#479FFA"/>
</g>
<path d="M2.86965 198.983H2.11901L0.386057 199.836V200.994L1.71126 200.336V204.673H2.86965V198.983ZM5.14683 203.626V200.021H5.93454C7.0188 200.021 7.61189 200.716 7.61189 201.828C7.61189 202.931 7.0188 203.626 5.93454 203.626H5.14683ZM3.96991 204.673H5.98088C7.70457 204.673 8.78882 203.561 8.78882 201.828C8.78882 200.095 7.70457 198.983 5.98088 198.983H3.96991V204.673Z" fill="white"/>
<path d="M25.4583 198.983H24.7077L22.9747 199.836V200.994L24.2999 200.336V204.673H25.4583V198.983ZM29.246 198.983L28.2452 202.81L27.3185 198.983H26.123L27.6058 204.673H28.69L29.6909 200.92L30.6917 204.673H31.776L33.2587 198.983H32.0911L31.1551 202.81L30.1728 198.983H29.246ZM49.7574 198.983H49.0068L47.2738 199.836V200.994L48.599 200.336V204.673H49.7574V198.983ZM54.1846 204.673L55.5654 200.957V204.673H56.6867V198.983H55.2966L53.7861 202.996L52.2663 198.983H50.8577V204.673H51.9697V200.957L53.3783 204.673H54.1846ZM72.7325 202.236H73.0939C73.6221 202.236 73.9928 202.523 73.9928 203.005C73.9928 203.459 73.6499 203.756 73.168 203.756C72.6027 203.756 72.2969 203.413 72.2413 202.912H71.0737C71.1385 204.015 71.954 204.766 73.1773 204.766C74.3913 204.766 75.1234 204.015 75.1234 203.024C75.1234 202.505 74.8639 202.013 74.3357 201.782C74.7434 201.587 75.0307 201.096 75.0307 200.549C75.0307 199.576 74.3357 198.89 73.1773 198.89C72.0374 198.89 71.2961 199.669 71.1849 200.679H72.334C72.3711 200.243 72.6491 199.901 73.168 199.901C73.6314 199.901 73.9094 200.206 73.9094 200.605C73.9094 201.077 73.5387 201.318 73.0568 201.318H72.7325V202.236ZM79.2439 204.673L80.6247 200.957V204.673H81.746V198.983H80.3559L78.8454 202.996L77.3256 198.983H75.917V204.673H77.029V200.957L78.4376 204.673H79.2439ZM98.8112 201.393L97.4303 198.983H96.1422L98.1903 202.514V204.673H99.3672V202.514L101.434 198.983H100.183L98.8112 201.393ZM101.802 200.021H103.627V204.673H104.823V200.021H106.658V198.983H101.802V200.021ZM108.615 203.626V200.021H109.403C110.487 200.021 111.08 200.716 111.08 201.828C111.08 202.931 110.487 203.626 109.403 203.626H108.615ZM107.438 204.673H109.449C111.173 204.673 112.257 203.561 112.257 201.828C112.257 200.095 111.173 198.983 109.449 198.983H107.438V204.673ZM128.602 198.983L126.424 204.673H127.61L128.111 203.302H130.242L130.752 204.673H131.957L129.779 198.983H128.602ZM129.177 200.41L129.872 202.301H128.482L129.177 200.41ZM133.745 198.649H132.596V204.673H133.745V198.649ZM135.899 198.649H134.75V204.673H135.899V198.649Z" fill="#868F97"/>
<path fill-rule="evenodd" clip-rule="evenodd" d="M322.093 197.835C322.093 198.29 321.724 198.658 321.269 198.658C320.814 198.658 320.445 198.29 320.445 197.835C320.445 197.38 320.814 197.011 321.269 197.011C321.724 197.011 322.093 197.38 322.093 197.835ZM321.269 204.16C322.293 204.16 323.122 203.33 323.122 202.307C323.122 201.283 322.293 200.453 321.269 200.453C320.245 200.453 319.415 201.283 319.415 202.307C319.415 203.33 320.245 204.16 321.269 204.16ZM321.269 204.954C322.731 204.954 323.917 203.769 323.917 202.307C323.917 200.844 322.731 199.659 321.269 199.659C319.807 199.659 318.621 200.844 318.621 202.307C318.621 203.769 319.807 204.954 321.269 204.954ZM321.269 207.603C321.724 207.603 322.093 207.234 322.093 206.779C322.093 206.324 321.724 205.955 321.269 205.955C320.814 205.955 320.445 206.324 320.445 206.779C320.445 207.234 320.814 207.603 321.269 207.603ZM325.741 203.13C325.286 203.13 324.917 202.761 324.917 202.306C324.917 201.851 325.286 201.483 325.741 201.483C326.196 201.483 326.564 201.851 326.564 202.306C326.564 202.761 326.196 203.13 325.741 203.13ZM315.974 202.306C315.974 202.761 316.342 203.13 316.797 203.13C317.252 203.13 317.621 202.761 317.621 202.306C317.621 201.851 317.252 201.483 316.797 201.483C316.342 201.483 315.974 201.851 315.974 202.306ZM323.849 206.051C323.527 205.73 323.527 205.208 323.849 204.886C324.17 204.565 324.692 204.565 325.014 204.886C325.335 205.208 325.335 205.73 325.014 206.051C324.692 206.373 324.17 206.373 323.849 206.051ZM317.525 198.562C317.203 198.883 317.203 199.405 317.525 199.727C317.846 200.048 318.368 200.048 318.69 199.727C319.011 199.405 319.011 198.883 318.69 198.562C318.368 198.24 317.846 198.24 317.525 198.562ZM317.525 204.886C317.846 204.564 318.368 204.564 318.69 204.886C319.011 205.208 319.011 205.729 318.69 206.051C318.368 206.373 317.846 206.373 317.525 206.051C317.203 205.729 317.203 205.208 317.525 204.886ZM325.014 198.562C324.692 198.24 324.17 198.24 323.849 198.562C323.527 198.884 323.527 199.405 323.849 199.727C324.17 200.049 324.692 200.049 325.014 199.727C325.335 199.405 325.335 198.884 325.014 198.562Z" fill="white"/>
<rect x="0.889648" y="185.758" width="330.969" height="0.661939" fill="white" fill-opacity="0.06"/>
<g clip-path="url(#clip1_5614_75141)">
<path d="M88 87L87.2742 84.8041L86.3507 83.354L85.4272 83.9777L84.5037 84.6638L83.5802 84.7886L82.6568 84.6014L81.7333 85.038L80.8098 86.3478L79.8863 85.1628L78.9628 84.2896L78.0393 84.3314L77.1158 83.1669L76.1923 84.7886L75.2688 88.3437L74.3453 84.9133L73.4218 84.6014L72.4983 85.038L71.5748 86.0048L70.6513 84.7268L69.7278 84.5391L68.8044 78.0524L67.8809 79.0504L66.9574 79.6741L66.0339 77.803L65.1104 76.8986L64.1869 76.4308L63.2634 76.805L62.3399 77.8653L61.4164 78.2707L60.4929 77.7406L59.5694 76.9921L58.6459 74.5727L57.7224 69.0709L56.7989 68.3849L55.8754 70.8123L54.9519 68.8215L54.0285 67.2622L53.105 69.3828L52.1815 78.8009L51.258 79.8612L50.3345 79.0816L49.411 80.2978L48.4875 79.6741L47.564 79.8051L46.6405 64.7049L45.717 63.4575L44.7935 63.8941L43.87 65.0168L42.9465 65.2039L42.023 65.0792L41.0995 71.5658L40.176 68.9462L39.2526 72.1895L38.3291 71.5034L37.4056 71.6905L36.4821 69.8194L35.5586 71.3787L34.6351 70.8485L33.7116 71.1298L32.7881 70.6926L31.8646 70.1936L30.9411 69.2581L30.0176 73.4369L29.0941 74.0607H28.1706L27.2471 73.8735L26.3236 73.2186L25.4002 71.2539L24.4767 68.3849L23.5532 68.1354L22.6297 68.073L21.7062 67.9482L20.7827 68.3225L19.8592 69.8194L18.9357 64.3931L18.0122 65.7029L17.0887 66.2019L16.1652 65.9025L15.2417 67.2622L14.3182 64.3931L13.3947 55.5987L12.4712 54.9126L11.5477 54.2265L10.6243 52.6672L9.70076 53.2286L8.77727 55.8482L7.85377 73.5405L6.93028 74.9962L6.00679 74.123L5.08329 73.2692L4.1598 73.4993L3.23631 72.8132L2.31281 60.3389L1.38932 59.4034L1 57.6456" stroke="#868F97" stroke-opacity="0.55" stroke-linecap="round" stroke-linejoin="round"/>
<path d="M54.7597 9.15C55.5347 9.15 56.0222 8.75 56.0222 8C56.0222 7.24375 55.5347 6.85 54.7597 6.85H53.3222V10.6875H53.816V9.15H54.7597ZM55.5347 8C55.5347 8.43125 55.266 8.7125 54.7472 8.7125H53.816V7.28125H54.7472C55.266 7.28125 55.5347 7.5625 55.5347 8ZM58.0483 7.9C57.9983 7.875 57.8983 7.85625 57.7796 7.85625C57.4733 7.85625 57.2108 8.0375 57.0921 8.275V7.9125H56.6233V10.6875H57.0921V8.825C57.1858 8.5 57.4421 8.30625 57.7358 8.30625C57.8546 8.30625 57.9733 8.33125 58.0483 8.38125V7.9ZM60.3021 9.85625C60.2271 10.1687 59.9708 10.3437 59.6271 10.3437C59.1583 10.3437 58.8271 9.98125 58.8208 9.3875H60.7833V9.21875C60.7833 8.4125 60.3771 7.85625 59.6146 7.85625C58.8583 7.85625 58.3521 8.475 58.3521 9.30625C58.3521 10.1625 58.8708 10.7438 59.6271 10.7438C60.2521 10.7438 60.6458 10.3812 60.7458 9.85625H60.3021ZM59.6208 8.25625C60.0833 8.25625 60.3021 8.61875 60.3083 9.03125H58.8333C58.9021 8.54375 59.2021 8.25625 59.6208 8.25625ZM62.6092 10.6875L63.6905 7.9125H63.1967L62.3905 10.0937L61.578 7.9125H61.0717L62.1467 10.6875H62.6092ZM64.691 7.9125H64.2222V10.6875H64.691V7.9125ZM64.7597 7.075C64.7597 6.90625 64.6222 6.775 64.4535 6.775C64.291 6.775 64.1535 6.90625 64.1535 7.075C64.1535 7.2375 64.291 7.375 64.4535 7.375C64.6222 7.375 64.7597 7.2375 64.7597 7.075ZM67.8784 9.3C67.8784 8.45 67.3596 7.85625 66.6034 7.85625C65.8409 7.85625 65.3284 8.45 65.3284 9.3C65.3284 10.15 65.8409 10.7438 66.6034 10.7438C67.3596 10.7438 67.8784 10.15 67.8784 9.3ZM67.4034 9.3C67.4034 9.90625 67.1034 10.3312 66.6034 10.3312C66.1034 10.3312 65.8034 9.90625 65.8034 9.3C65.8034 8.69375 66.1034 8.26875 66.6034 8.26875C67.1034 8.26875 67.4034 8.69375 67.4034 9.3ZM70.7255 7.9125H70.2505V9.79375C70.1505 10.0937 69.8817 10.3125 69.5567 10.3125C69.138 10.3125 68.9505 10.0437 68.9505 9.65625V7.9125H68.4755V9.73125C68.4755 10.3375 68.813 10.7438 69.4442 10.7438C69.8005 10.7438 70.0942 10.5562 70.2505 10.3375V10.6875H70.7255V7.9125ZM71.3274 9.925C71.4149 10.4375 71.8586 10.7438 72.4649 10.7438C73.0586 10.7438 73.4961 10.4312 73.4961 9.90625C73.4961 9.51875 73.2649 9.25625 72.7899 9.13125L72.2524 9C71.9899 8.925 71.8649 8.8375 71.8649 8.65C71.8649 8.38125 72.1211 8.25 72.3961 8.25C72.7336 8.25 72.9274 8.39375 73.0086 8.64375H73.4774C73.3774 8.15625 73.0149 7.85625 72.4024 7.85625C71.8399 7.85625 71.4086 8.18125 71.4086 8.675C71.4086 9.10625 71.6836 9.30625 72.0774 9.40625L72.6274 9.55C72.9149 9.625 73.0399 9.74375 73.0399 9.9375C73.0399 10.2187 72.8024 10.35 72.4711 10.35C72.1461 10.35 71.9024 10.2125 71.8149 9.925H71.3274ZM77.3572 10.6875H77.8322V6.625H77.3572V8.2375C77.2197 8.0375 76.9197 7.85625 76.5759 7.85625C75.7634 7.85625 75.3259 8.51875 75.3259 9.3C75.3259 10.0875 75.7634 10.7438 76.5759 10.7438C76.9197 10.7438 77.2197 10.5625 77.3572 10.3625V10.6875ZM77.3572 9.8625C77.2134 10.15 76.9384 10.3187 76.6447 10.3187C76.1134 10.3187 75.8009 9.8875 75.8009 9.3C75.8009 8.7125 76.1134 8.28125 76.6447 8.28125C76.9384 8.28125 77.2134 8.45 77.3572 8.7375V9.8625ZM80.6756 10.6875V8.8375C80.6756 8.23125 80.2819 7.85625 79.6194 7.85625C79.0881 7.85625 78.6756 8.175 78.5819 8.64375H79.0444C79.1319 8.3875 79.3194 8.2625 79.6131 8.2625C80.0131 8.2625 80.2256 8.5125 80.2256 8.85625V9.20625C80.1069 9.1 79.8131 8.98125 79.5256 8.98125C78.9319 8.98125 78.4631 9.33125 78.4631 9.85C78.4631 10.4 78.9319 10.7375 79.4944 10.7375C79.8256 10.7375 80.1194 10.5937 80.2256 10.4813V10.6875H80.6756ZM80.2256 10C80.1444 10.2062 79.8631 10.3437 79.5756 10.3437C79.2381 10.3437 78.9131 10.1875 78.9131 9.85C78.9131 9.51875 79.2381 9.36875 79.5756 9.36875C79.8631 9.36875 80.1444 9.50625 80.2256 9.7125V10ZM82.2468 11.75L83.7405 7.9125H83.253L82.4468 10.1L81.628 7.9125H81.1218L82.203 10.7063L81.7843 11.75H82.2468Z" fill="#868F97" fill-opacity="0.72"/>
<line opacity="0.55" x1="87.75" y1="186" x2="87.75" y2="7" stroke="#868F97" stroke-width="0.5" stroke-miterlimit="11.4737" stroke-dasharray="1.56 1.56"/>
<path d="M88 87L88.9242 86.0983L89.8485 86.8468L90.7727 85.3624L91.697 83.8218L92.6212 84.4767L93.5455 82.9174L94.4697 83.2293L95.3939 84.4773L96.3182 83.4164L97.2424 81.9194L98.1667 82.9798L99.0909 80.9839L100.015 78.5514L100.939 78.3643L101.864 78.4765L102.788 78.5514L103.712 78.7385L104.636 79.7433L105.561 89.5912L106.485 89.0298L107.409 87.2834L108.333 85.1004L109.258 83.5411L110.182 82.7926L111.106 86.2855L112.03 88.3749L112.955 88.219L113.879 90.3396L114.803 90.9633L115.727 90.9009L116.652 80.5473L117.576 82.9174L118.5 83.4164L119.424 83.1669L120.348 82.4808L121.273 81.7011L122.197 72.5219L123.121 72.439L124.045 71.8776L124.97 72.5014L125.894 68.6343H126.818L127.742 69.8818L128.667 71.3787L129.591 69.3828L130.515 70.3184L131.439 73.4369L132.364 73.3746L133.288 73.8735L134.212 73.6864L135.136 75.3704L136.061 76.6179L136.985 77.1168L137.909 77.8029L138.833 75.121L139.758 81.7853L140.682 82.6055L141.606 83.7282L142.53 85.2875L143.455 83.2293L144.379 88.5932L145.303 87.0339L146.227 85.038L147.152 81.171L148.076 80.7968L149 80.2666L149.924 75.1428L150.848 73.2498L151.773 73.4369L152.697 73.4993L153.621 73.4369L154.545 72.8756L155.47 77.0545L156.394 98.7107L157.318 101.879L158.242 97.1851L159.167 97.7751L160.091 96.7772L161.015 93.6137L161.939 93.5339L162.864 93.6586L163.788 92.723L164.712 92.5983L165.636 92.1617L166.561 88.6701L167.485 88.6065L168.409 88.357L169.333 88.0452L170.258 87.6086L171.182 86.5482L172.106 88.856L173.03 95.9541L173.955 96.1724L174.879 96.2659L175.803 95.4551L176.727 94.5507L177.652 104L178.576 102.628L179.5 102.067L180.424 102.41L181.348 103.064L182.273 101.567L183.197 92.8311L184.121 94.7066L185.045 93.584L185.97 92.4694L186.894 92.8355L187.818 93.0226L188.742 90.3406L189.667 91.2138L190.591 90.0288L191.515 90.1192L192.439 90.2159L193.364 89.7793L194.288 82.4506L195.212 82.0452L196.136 80.9849L197.061 83.5091L197.985 83.4174L198.909 83.7916L199.833 78.5524L200.758 76.8684L201.682 76.7437L202.606 75.3091L203.53 75.122L204.455 76.4942L205.379 64.7683L206.303 63.5209L207.227 64.3317L208.152 64.0199L209.076 63.3338L210 62.8972L210.924 69.4462L211.848 71.3279L212.773 70.3818L213.697 70.756L214.621 69.5709L215.545 70.0699L216.47 66.2029L217.394 65.1432L218.318 65.3297L219.242 65.2049L220.167 62.2741L221.091 61.1508L222.015 55.974L222.939 58.2193L223.864 55.2255L224.788 54.9136L225.712 57.7827L226.636 61.026L227.561 54.7889L228.485 56.66L229.409 55.5997L230.333 55.3502L231.258 55.9116L232.182 53.1049L233.106 60.4023L234.03 55.5373L234.955 56.5977L235.879 55.1631L236.803 54.477L237.727 54.9136L238.652 67.1385L239.576 67.7934L240.5 68.7601L241.424 69.3838L242.348 68.6354L243.273 67.3879L244.197 74.5638L245.121 75.9952L246.045 75.7457L246.97 76.6189L247.894 76.2447L248.818 76.9308L249.742 75.2467L250.667 72.3777L251.591 72.8143L252.515 73.7498L253.439 72.8143L254.364 72.5648L255.288 63.1467L256.212 61.3379L257.136 62.0864L258.061 60.9949L258.985 61.2755L259.909 61.9616L260.833 58.4376L261.758 58.7807L262.682 57.3461L263.606 57.8576L264.53 57.9075L265.455 59.4668L266.379 63.8328L267.303 61.8992L268.227 63.708L269.151 63.0219L270.076 62.7101L271 63.9575L271.924 69.5086L272.848 68.8537L273.773 69.0096L274.697 68.3859L275.621 69.3214L276.545 68.3235L277.47 66.2653L278.394 66.7019L279.318 64.9554L280.242 65.548L281.167 66.3276L282.091 65.2049L283.015 58.6559L283.939 60.0905L284.864 59.4979L285.788 59.5291L286.712 60.9637L287.636 61.2132L288.561 53.2764L289.485 52.45L290.409 53.9332L291.333 53.7835L292.258 54.8513L293.182 55.3502L294.106 56.0363L295.03 55.6683L295.955 55.4875L296.879 55.6621L297.803 56.5353L298.727 55.2255L299.652 49.9239L300.576 47.5538L301.5 49.1131L302.424 49.4873L303.348 48.9883L304.273 48.0048L305.197 36.6388L306.121 40.5058L307.045 39.695L307.97 39.0089L308.894 39.7262L309.818 39.6326L310.742 23.5408L311.667 24.4764L312.591 22.2934L313.515 22.9794L314.439 25.6614L315.364 25.4743L316.288 18.6134L317.212 20.4846L318.136 18.6758L319.061 17.9273L319.985 19.549L320.909 20.0168L321.833 21.9815L322.758 20.4222L323.682 21.2954L324.606 19.2371L325.53 18.2392L326.455 25.3184L327.379 13L328.303 15.9626L329.227 19.6738L332 15.5" stroke="url(#paint0_linear_5614_75141)" stroke-linecap="round" stroke-linejoin="round"/>
</g>
</g>
<defs>
<filter id="filter0_d_5614_75141" x="-6.39087" y="179.139" width="25.1538" height="13.9006" filterUnits="userSpaceOnUse" color-interpolation-filters="sRGB">
<feFlood flood-opacity="0" result="BackgroundImageFix"/>
<feColorMatrix in="SourceAlpha" type="matrix" values="0 0 0 0 0 0 0 0 0 0 0 0 0 0 0 0 0 0 127 0" result="hardAlpha"/>
<feOffset/>
<feGaussianBlur stdDeviation="3.30969"/>
<feColorMatrix type="matrix" values="0 0 0 0 0.278431 0 0 0 0 0.623529 0 0 0 0 0.980392 0 0 0 0.25 0"/>
<feBlend mode="normal" in2="BackgroundImageFix" result="effect1_dropShadow_5614_75141"/>
<feBlend mode="normal" in="SourceGraphic" in2="effect1_dropShadow_5614_75141" result="shape"/>
</filter>
<linearGradient id="paint0_linear_5614_75141" x1="99.4246" y1="55.7944" x2="323.296" y2="55.7944" gradientUnits="userSpaceOnUse">
<stop stop-color="#B3AEF5"/>
<stop offset="0.413373" stop-color="#D7CBE7"/>
<stop offset="0.653973" stop-color="#E5C8C8"/>
<stop offset="1" stop-color="#ECBDAA"/>
</linearGradient>
<clipPath id="clip0_5614_75141">
<rect width="332" height="210" fill="white"/>
</clipPath>
<clipPath id="clip1_5614_75141">
<rect width="332" height="184" fill="white" transform="translate(0 2)"/>
</clipPath>
</defs>
</svg>
