<svg width="88" height="80" viewBox="0 0 88 80" fill="none" xmlns="http://www.w3.org/2000/svg">
<g clip-path="url(#clip0_7126_322)">
<path d="M18.4907 8.70731L19.3203 0.119278C19.3434 -0.0397594 19.5508 -0.0397594 19.5738 0.119278L20.4035 8.70731C20.4726 9.45705 21.0948 10.0478 21.8553 10.0932L32.6408 10.7294C32.8021 10.7294 32.8021 10.9793 32.6408 10.9793L21.8323 11.6381C21.0718 11.6836 20.4496 12.2743 20.3804 13.024L19.5508 21.6121C19.5277 21.7711 19.3203 21.7711 19.2973 21.6121L18.4676 13.024C18.3985 12.2743 17.7762 11.6836 17.0157 11.6381L6.23037 11.002C6.06904 11.002 6.06904 10.7521 6.23037 10.7521L17.0388 10.0932C17.7993 10.0478 18.3985 9.45705 18.4907 8.70731Z" fill="#F6E8D7"/>
<path d="M75.7968 72.4883L76.2894 67.5336C76.303 67.4419 76.4262 67.4419 76.4399 67.5336L76.9325 72.4883C76.9735 72.9208 77.343 73.2616 77.7945 73.2878L84.1984 73.6548C84.2942 73.6548 84.2942 73.799 84.1984 73.799L77.7809 74.1791C77.3293 74.2054 76.9599 74.5462 76.9188 74.9787L76.4262 79.9333C76.4125 80.0251 76.2894 80.0251 76.2757 79.9333L75.7831 74.9787C75.742 74.5462 75.3726 74.2054 74.921 74.1791L68.5172 73.8121C68.4214 73.8121 68.4214 73.668 68.5172 73.668L74.9347 73.2878C75.3863 73.2616 75.742 72.9208 75.7968 72.4883Z" fill="#F6E8D7"/>
<path d="M79.9135 15.3928L80.3542 11.0987C80.3665 11.0192 80.4767 11.0192 80.4889 11.0987L80.9296 15.3928C80.9664 15.7676 81.2969 16.063 81.701 16.0857L87.4307 16.4038C87.5164 16.4038 87.5164 16.5287 87.4307 16.5287L81.6887 16.8582C81.2847 16.8809 80.9541 17.1763 80.9174 17.5511L80.4767 21.8451C80.4644 21.9247 80.3542 21.9247 80.342 21.8451L79.9012 17.5511C79.8645 17.1763 79.5339 16.8809 79.1299 16.8582L73.4002 16.5401C73.3145 16.5401 73.3145 16.4151 73.4002 16.4151L79.1422 16.0857C79.5462 16.063 79.8645 15.7676 79.9135 15.3928Z" fill="#22C480"/>
<path d="M5.02992 58.8792L5.36696 55.2458C5.37633 55.1785 5.46059 55.1785 5.46995 55.2458L5.80699 58.8792C5.83508 59.1964 6.08786 59.4463 6.39682 59.4655L10.7784 59.7347C10.8439 59.7347 10.8439 59.8404 10.7784 59.8404L6.38746 60.1192C6.0785 60.1384 5.82572 60.3883 5.79763 60.7055L5.46059 64.3389C5.45122 64.4062 5.36696 64.4062 5.3576 64.3389L5.02056 60.7055C4.99247 60.3883 4.73969 60.1384 4.43073 60.1192L0.0491523 59.85C-0.0163841 59.85 -0.0163841 59.7443 0.0491523 59.7443L4.44009 59.4655C4.74905 59.4463 4.99247 59.1964 5.02992 58.8792Z" fill="#22C480"/>
<path d="M17.5334 46.4793C17.6787 45.9821 17.8356 45.4849 18.0059 44.9935C18.1742 44.504 18.354 44.0125 18.5453 43.5288C18.7347 43.0469 18.9375 42.567 19.1498 42.089C19.3641 41.6129 19.586 41.1388 19.8213 40.6704C20.0546 40.2019 20.2957 39.7374 20.552 39.2767C20.8045 38.8159 21.0685 38.361 21.3401 37.9118C21.6137 37.4587 21.8949 37.0133 22.1857 36.5737C22.4784 36.1303 22.7787 35.6964 23.0886 35.2645C23.3985 34.8345 23.7141 34.4083 24.0393 33.9917C24.3645 33.5694 24.6993 33.1586 25.0398 32.7497C25.3841 32.3408 25.7323 31.9396 26.0881 31.546C26.4458 31.1525 26.8131 30.7609 27.1842 30.3789C27.5553 29.9988 27.9341 29.6225 28.3186 29.252C28.705 28.8854 29.0953 28.5245 29.497 28.1712C29.893 27.8161 30.3004 27.4705 30.7098 27.1288C31.1192 26.791 31.5381 26.4589 31.9609 26.1364C32.3817 25.8119 32.8102 25.4952 33.2407 25.188C33.6749 24.8847 34.113 24.5814 34.5568 24.2935C34.9987 24.0036 35.4463 23.7195 35.8978 23.4449C36.3492 23.1743 36.8064 22.9094 37.2655 22.654C37.7265 22.3987 38.1895 22.153 38.6543 21.915C39.123 21.6788 39.5898 21.4542 40.068 21.2335C40.5443 21.0165 41.0226 20.8073 41.5027 20.6096C41.9829 20.4118 42.4668 20.2237 42.9508 20.0452C43.4386 19.8666 43.9264 19.6977 44.4142 19.5403C44.902 19.3829 45.3956 19.237 45.8891 19.1026C46.3808 18.9644 46.8781 18.8377 47.3755 18.7244C47.871 18.6092 48.3683 18.5056 48.8657 18.4134C49.3669 18.3213 49.8643 18.2426 50.3635 18.1715C50.8647 18.1024 51.364 18.0448 51.8633 18.0007C52.3626 17.9546 52.8657 17.922 53.365 17.9009C53.8642 17.8798 54.3635 17.8721 54.8628 17.8759C55.3602 17.8798 55.8537 17.8932 56.3396 17.9201C56.8236 17.9489 57.3018 17.9873 57.7743 18.0391C58.2449 18.0909 58.7079 18.1543 59.1631 18.2311C59.6222 18.304 60.0718 18.3923 60.5118 18.4902C60.9537 18.59 61.3898 18.6937 61.8145 18.8185C62.243 18.9375 62.66 19.07 63.0713 19.212C63.4845 19.3541 63.8881 19.5038 64.2822 19.6651C64.6782 19.8282 65.0646 20.0029 65.4415 20.1853C65.8202 20.3696 66.1913 20.5616 66.5529 20.7631C66.9125 20.9666 67.2664 21.1778 67.6108 21.4005C67.9551 21.6232 68.2918 21.8516 68.617 22.0935C68.9441 22.3315 69.2616 22.583 69.5677 22.8402C69.8776 23.0975 70.176 23.3643 70.4649 23.6388C70.7537 23.9153 71.033 24.1975 71.3047 24.4893C71.5744 24.7811 71.8346 25.0805 72.0871 25.3858C72.3377 25.6929 72.5787 26.0077 72.8064 26.3322C73.0397 26.6528 73.2597 26.9829 73.4701 27.3189C73.6787 27.6587 73.8795 28.0023 74.0708 28.3555C74.2583 28.7049 74.4381 29.0639 74.6064 29.4248C74.7748 29.7915 74.9336 30.162 75.0789 30.5401C75.2243 30.9183 75.3601 31.3022 75.4883 31.6919C75.6107 32.0816 75.7255 32.4733 75.825 32.8802C75.9283 33.2815 76.022 33.6884 76.0966 34.1012C76.177 34.5139 76.2458 34.9324 76.2994 35.3566C76.3568 35.7809 76.4027 36.209 76.4314 36.6428C76.4658 37.0748 76.4831 37.5163 76.4926 37.9597C76.5003 38.4013 76.4964 38.8505 76.4792 39.3035C76.4639 39.7547 76.4333 40.2115 76.3912 40.6723C76.3511 41.133 76.2956 41.5995 76.2286 42.066C76.1579 42.5382 76.0756 43.0085 75.9876 43.4846C75.8958 43.9588 75.7867 44.4425 75.6662 44.9225C75.5476 45.4062 75.4156 45.8938 75.2683 46.3834C75.1249 46.869 74.9642 47.3566 74.7958 47.8385C74.6256 48.3203 74.4458 48.8003 74.2525 49.2802C74.0574 49.7543 73.8566 50.2266 73.6442 50.695C73.4319 51.1653 73.2081 51.6299 72.9728 52.0906C72.7375 52.5513 72.4926 53.0101 72.2401 53.4632C71.9857 53.9162 71.7217 54.3635 71.4482 54.8089C71.1765 55.2523 70.8934 55.69 70.6026 56.1239C70.3119 56.5597 70.0058 56.9897 69.6978 57.412C69.3898 57.8382 69.0742 58.2567 68.7432 58.6713C68.4219 59.0821 68.0871 59.4929 67.7428 59.8942C67.4003 60.2973 67.0522 60.6947 66.6945 61.0844C66.3329 61.476 65.9694 61.8599 65.5983 62.2381C65.2272 62.6163 64.8484 62.9887 64.462 63.3515C64.0756 63.7201 63.6835 64.0791 63.2856 64.4304C62.8877 64.7817 62.4802 65.1292 62.0689 65.4651C61.6595 65.803 61.2444 66.1332 60.8217 66.4576C60.3989 66.782 59.9723 67.0968 59.5381 67.4059C59.1077 67.7111 58.6677 68.0125 58.2258 68.3082C57.7858 68.598 57.3343 68.8841 56.8829 69.1586C56.4333 69.435 55.9761 69.7038 55.517 69.961C55.056 70.2221 54.5931 70.4697 54.1263 70.7116C53.6596 70.9554 53.1871 71.1858 52.7165 71.4066C52.2401 71.6312 51.7619 71.8481 51.2837 72.0497C50.8035 72.2531 50.3195 72.449 49.8356 72.6313C49.3497 72.8175 48.8638 72.9922 48.3741 73.1535C47.8824 73.3205 47.3946 73.4721 46.8992 73.6142C46.4075 73.7582 45.9121 73.8945 45.4166 74.0154C44.9193 74.1364 44.4219 74.2477 43.9245 74.3475C43.4271 74.4474 42.9298 74.5357 42.4267 74.6124C41.9312 74.6873 41.4319 74.7507 40.9327 74.8083C40.4315 74.862 39.9303 74.9023 39.4348 74.933C38.9336 74.9618 38.4343 74.981 37.937 74.9868C37.4396 74.9906 36.948 74.9829 36.4621 74.9618C35.9781 74.9426 35.4979 74.9119 35.0274 74.8658C34.5568 74.8198 34.0957 74.766 33.6386 74.6988C33.1833 74.6297 32.7356 74.551 32.2918 74.4608C31.8499 74.3725 31.4176 74.2688 30.991 74.1556C30.5644 74.0442 30.1455 73.9175 29.7361 73.7831C29.3248 73.6507 28.9212 73.5048 28.529 73.3474C28.135 73.1919 27.7486 73.0249 27.3679 72.8482C26.991 72.6716 26.6199 72.4854 26.2603 72.2839C25.8987 72.0919 25.5467 71.8846 25.2024 71.6676C24.8562 71.4507 24.5233 71.2261 24.1981 70.99C23.8729 70.7519 23.5534 70.5101 23.2474 70.2547C22.9394 70.0013 22.6429 69.7364 22.3502 69.4657C22.0632 69.1951 21.784 68.9129 21.5142 68.6249C21.2407 68.335 20.9824 68.0356 20.7299 67.7303C20.4812 67.4232 20.2383 67.1103 20.0106 66.7878C19.7792 66.4633 19.5573 66.1351 19.3488 65.7972C19.1364 65.4593 18.9356 65.1138 18.7462 64.7606C18.5568 64.4074 18.377 64.0484 18.2105 63.6798C18.0403 63.3112 17.8834 62.9369 17.7361 62.5549C17.5908 62.1748 17.453 61.787 17.3287 61.3934C17.2043 60.998 17.0915 60.5968 16.9863 60.1917C16.8849 59.7847 16.793 59.3701 16.7146 58.9516C16.6362 58.5331 16.5673 58.1108 16.5118 57.6788C16.4545 57.2488 16.4085 56.815 16.3779 56.3734C16.3454 55.9338 16.3263 55.4885 16.3167 55.0373C16.3091 54.5862 16.311 54.1312 16.3301 53.6724C16.3435 53.2117 16.3741 52.7491 16.4162 52.2787C16.4564 51.8103 16.5118 51.3381 16.5769 50.862C16.6438 50.3859 16.7242 49.906 16.8179 49.4222C16.9097 48.9366 17.0169 48.4489 17.1355 47.9594C17.2541 47.468 17.388 46.9746 17.5334 46.4793Z" fill="#9A5F15"/>
<path d="M14.8849 44.6473C15.0302 44.1501 15.1871 43.6529 15.3574 43.1615C15.5257 42.672 15.7055 42.1805 15.8968 41.6968C16.0862 41.2149 16.289 40.735 16.5013 40.257C16.7156 39.7809 16.9375 39.3068 17.1728 38.8384C17.4061 38.3699 17.6472 37.9054 17.9035 37.4447C18.156 36.9839 18.42 36.529 18.6916 36.0798C18.9652 35.6267 19.2464 35.1813 19.5372 34.7417C19.8299 34.2983 20.1302 33.8644 20.4401 33.4325C20.75 33.0025 21.0656 32.5763 21.3908 32.1597C21.716 31.7374 22.0508 31.3266 22.3913 30.9177C22.7356 30.5088 23.0838 30.1076 23.4396 29.7141C23.7973 29.3205 24.1646 28.9289 24.5357 28.5469C24.9068 28.1668 25.2856 27.7905 25.6701 27.42C26.0565 27.0534 26.4468 26.6925 26.8485 26.3392C27.2445 25.9841 27.6519 25.6385 28.0613 25.2968C28.4707 24.959 28.8896 24.6269 29.3124 24.3044C29.7332 23.9799 30.1617 23.6632 30.5922 23.356C31.0264 23.0527 31.4645 22.7494 31.9083 22.4615C32.3502 22.1716 32.7978 21.8875 33.2493 21.6129C33.7007 21.3423 34.1579 21.0774 34.617 20.822C35.078 20.5667 35.541 20.321 36.0058 20.083C36.4745 19.8468 36.9413 19.6222 37.4195 19.4015C37.8958 19.1845 38.3741 18.9753 38.8542 18.7776C39.3344 18.5798 39.8183 18.3917 40.3023 18.2132C40.7901 18.0346 41.2779 17.8657 41.7657 17.7083C42.2535 17.5509 42.7471 17.405 43.2406 17.2706C43.7323 17.1324 44.2296 17.0057 44.727 16.8924C45.2225 16.7772 45.7198 16.6736 46.2172 16.5814C46.7184 16.4893 47.2158 16.4106 47.715 16.3396C48.2162 16.2704 48.7155 16.2129 49.2148 16.1687C49.7141 16.1226 50.2172 16.09 50.7165 16.0689C51.2157 16.0478 51.715 16.0401 52.2143 16.0439C52.7117 16.0478 53.2052 16.0612 53.6911 16.0881C54.1751 16.1169 54.6533 16.1553 55.1258 16.2071C55.5964 16.2589 56.0594 16.3223 56.5146 16.3991C56.9738 16.472 57.4233 16.5603 57.8633 16.6582C58.3052 16.758 58.7413 16.8617 59.166 16.9865C59.5945 17.1055 60.0115 17.238 60.4228 17.38C60.836 17.5221 61.2396 17.6718 61.6337 17.8331C62.0297 17.9962 62.4161 18.1709 62.793 18.3533C63.1717 18.5376 63.5429 18.7296 63.9044 18.9311C64.264 19.1346 64.6179 19.3458 64.9623 19.5685C65.3066 19.7912 65.6433 20.0196 65.9685 20.2615C66.2956 20.4995 66.6131 20.751 66.9192 21.0082C67.2291 21.2655 67.5275 21.5323 67.8164 21.8068C68.1052 22.0833 68.3845 22.3655 68.6562 22.6573C68.9259 22.9491 69.1861 23.2485 69.4386 23.5538C69.6892 23.8609 69.9302 24.1757 70.1579 24.5002C70.3912 24.8208 70.6112 25.1509 70.8217 25.4869C71.0302 25.8267 71.231 26.1703 71.4223 26.5235C71.6098 26.8729 71.7896 27.2319 71.958 27.5928C72.1263 27.9595 72.2851 28.33 72.4305 28.7081C72.5758 29.0863 72.7117 29.4703 72.8398 29.86C72.9623 30.2496 73.077 30.6413 73.1765 31.0482C73.2798 31.4495 73.3735 31.8564 73.4481 32.2692C73.5285 32.6819 73.5973 33.1004 73.6509 33.5246C73.7083 33.9489 73.7542 34.377 73.7829 34.8108C73.8173 35.2428 73.8346 35.6843 73.8441 36.1277C73.8518 36.5693 73.8479 37.0185 73.8307 37.4715C73.8154 37.9227 73.7848 38.3795 73.7427 38.8403C73.7026 39.301 73.6471 39.7675 73.5801 40.234C73.5094 40.7062 73.4271 41.1765 73.3391 41.6526C73.2473 42.1268 73.1382 42.6106 73.0177 43.0905C72.8991 43.5742 72.7671 44.0618 72.6198 44.5514C72.4764 45.037 72.3157 45.5246 72.1473 46.0065C71.9771 46.4883 71.7973 46.9683 71.6041 47.4482C71.4089 47.9223 71.2081 48.3946 70.9957 48.863C70.7834 49.3333 70.5596 49.7979 70.3243 50.2586C70.089 50.7193 69.8441 51.1781 69.5916 51.6312C69.3372 52.0842 69.0732 52.5315 68.7997 52.9769C68.528 53.4203 68.2449 53.858 67.9541 54.2919C67.6634 54.7277 67.3573 55.1577 67.0493 55.58C66.7413 56.0062 66.4257 56.4247 66.0947 56.8393C65.7734 57.2501 65.4386 57.6609 65.0943 58.0622C64.7518 58.4653 64.4037 58.8627 64.046 59.2524C63.6844 59.644 63.3209 60.0279 62.9498 60.4061C62.5787 60.7843 62.2 61.1567 61.8135 61.5195C61.4271 61.8881 61.035 62.2471 60.6371 62.5984C60.2392 62.9497 59.8317 63.2972 59.4204 63.6331C59.0111 63.971 58.5959 64.3012 58.1732 64.6256C57.7504 64.95 57.3238 65.2649 56.8896 65.5739C56.4592 65.8792 56.0192 66.1805 55.5773 66.4762C55.1373 66.766 54.6859 67.0521 54.2344 67.3266C53.7849 67.603 53.3277 67.8718 52.8685 68.129C52.4075 68.3901 51.9446 68.6377 51.4778 68.8796C51.0111 69.1234 50.5386 69.3538 50.068 69.5746C49.5916 69.7992 49.1134 70.0161 48.6352 70.2177C48.155 70.4211 47.671 70.617 47.1871 70.7993C46.7012 70.9855 46.2153 71.1602 45.7256 71.3215C45.2339 71.4885 44.7461 71.6401 44.2507 71.7822C43.759 71.9262 43.2636 72.0625 42.7681 72.1834C42.2708 72.3044 41.7734 72.4157 41.276 72.5155C40.7787 72.6154 40.2813 72.7037 39.7782 72.7804C39.2827 72.8553 38.7834 72.9187 38.2842 72.9763C37.783 73.03 37.2818 73.0703 36.7863 73.101C36.2851 73.1298 35.7858 73.149 35.2885 73.1548C34.7911 73.1586 34.2995 73.1509 33.8136 73.1298C33.3296 73.1106 32.8494 73.0799 32.3789 73.0338C31.9083 72.9878 31.4472 72.934 30.9901 72.8668C30.5348 72.7977 30.0871 72.719 29.6433 72.6288C29.2014 72.5405 28.7691 72.4368 28.3425 72.3236C27.9159 72.2122 27.497 72.0855 27.0876 71.9511C26.6763 71.8187 26.2727 71.6728 25.8805 71.5154C25.4865 71.3599 25.1001 71.1929 24.7194 71.0162C24.3425 70.8396 23.9714 70.6534 23.6118 70.4519C23.2502 70.2599 22.8982 70.0526 22.5539 69.8356C22.2077 69.6187 21.8748 69.3941 21.5496 69.158C21.2244 68.9199 20.9049 68.6781 20.5989 68.4227C20.2909 68.1693 19.9944 67.9044 19.7017 67.6337C19.4147 67.3631 19.1355 67.0809 18.8657 66.7929C18.5922 66.503 18.3339 66.2036 18.0814 65.8983C17.8327 65.5912 17.5898 65.2783 17.3621 64.9558C17.1307 64.6314 16.9088 64.3031 16.7003 63.9652C16.4879 63.6274 16.2871 63.2818 16.0977 62.9286C15.9083 62.5754 15.7285 62.2164 15.5621 61.8478C15.3918 61.4792 15.2349 61.1049 15.0876 60.7229C14.9423 60.3428 14.8045 59.955 14.6802 59.5614C14.5558 59.166 14.443 58.7648 14.3378 58.3597C14.2364 57.9527 14.1446 57.5381 14.0661 57.1196C13.9877 56.7011 13.9188 56.2788 13.8633 55.8468C13.806 55.4168 13.76 54.983 13.7294 54.5414C13.6969 54.1018 13.6778 53.6565 13.6682 53.2053C13.6606 52.7542 13.6625 52.2992 13.6816 51.8404C13.695 51.3797 13.7256 50.9171 13.7677 50.4467C13.8079 49.9783 13.8633 49.5061 13.9284 49.03C13.9953 48.5539 14.0757 48.074 14.1694 47.5902C14.2612 47.1046 14.3684 46.617 14.487 46.1274C14.6056 45.636 14.7395 45.1426 14.8849 44.6473Z" fill="#D08E39"/>
<path d="M66.5218 33.5275C66.5218 33.5275 65.902 33.4891 65.2842 33.4527C64.6682 33.4143 64.0522 33.3778 64.0522 33.3778C63.8762 33.3682 63.7289 33.2933 63.6352 33.1686C63.5434 33.0476 63.5128 32.8825 63.5491 32.7059C63.5491 32.7059 63.6639 32.1358 63.7787 31.5637C63.8934 30.9935 64.0101 30.4196 64.0101 30.4196C64.0159 30.3812 64.0025 30.3447 63.9814 30.3236C63.9585 30.2967 63.924 30.2852 63.8858 30.2852C63.8456 30.2852 63.8016 30.2967 63.7672 30.3197C63.7289 30.3466 63.6945 30.3812 63.6773 30.4215C63.6773 30.4215 63.4535 30.9897 63.2258 31.5637C63.0001 32.1338 62.7724 32.7021 62.7724 32.7021C62.7055 32.8844 62.5754 33.0476 62.4109 33.1705C62.2445 33.2933 62.0513 33.3644 61.8714 33.374C61.8714 33.374 61.2306 33.4104 60.5917 33.4488C59.9508 33.4872 59.3119 33.5256 59.3119 33.5256C59.2717 33.5314 59.2316 33.5525 59.1971 33.5813C59.1608 33.6101 59.1359 33.6466 59.1244 33.6869C59.1129 33.7253 59.1149 33.7637 59.1321 33.7944C59.1512 33.8232 59.1799 33.8424 59.2163 33.85C59.2163 33.85 59.8322 33.8884 60.4482 33.9249C61.0642 33.9614 61.6859 33.9998 61.6859 33.9998C61.8561 34.0113 62.0053 34.0862 62.0972 34.2071C62.1871 34.3319 62.2196 34.497 62.1871 34.6717C62.1871 34.6717 62.0704 35.2399 61.9556 35.8139C61.8408 36.384 61.7241 36.958 61.7241 36.958C61.7203 36.9964 61.7299 37.0291 61.7509 37.054C61.7758 37.079 61.8083 37.0943 61.8485 37.0924C61.8867 37.0943 61.9288 37.0771 61.969 37.054C62.0053 37.0291 62.036 36.9945 62.057 36.9542C62.057 36.9542 62.2808 36.384 62.5065 35.8139C62.7323 35.2418 62.958 34.6736 62.958 34.6736C63.0269 34.4951 63.1569 34.3338 63.3195 34.209C63.4841 34.0881 63.6773 34.0151 63.8609 34.0017C63.8609 34.0017 64.5017 33.9652 65.1426 33.9268C65.7834 33.8884 66.4243 33.852 66.4243 33.852C66.4644 33.8462 66.5027 33.8251 66.5391 33.7944C66.5697 33.7656 66.5964 33.7253 66.6079 33.6907C66.6194 33.6523 66.6175 33.6139 66.6022 33.5851C66.585 33.5544 66.5582 33.5333 66.5218 33.5275Z" fill="#002522"/>
</g>
<defs>
<clipPath id="clip0_7126_322">
<rect width="88" height="80" fill="white"/>
</clipPath>
</defs>
</svg>
