<svg width="318" height="84" viewBox="0 0 318 84" fill="none" xmlns="http://www.w3.org/2000/svg">
<g opacity="0.7">
<g filter="url(#filter0_ddd_7118_328)">
<path fill-rule="evenodd" clip-rule="evenodd" d="M20 2C17.7909 2 16 3.79086 16 6V48C16 50.2091 17.7909 52 20 52H109H158H285C287.209 52 289 50.2092 289 48V6.00002C289 3.79087 287.209 2.00002 285 2.00001L158.015 2C158.01 2 158.005 2 158 2H109H20Z" fill="#CCD3D3"/>
</g>
<path d="M109 52L285 52C287.209 52 289 50.2091 289 48V6C289 3.79086 287.209 2 285 2L109 2C106.791 2 105 3.79086 105 6V48C105 50.2091 106.791 52 109 52Z" fill="#33514E"/>
<path d="M101 44L277 44C279.209 44 281 42.2091 281 40V14C281 11.7909 279.209 10 277 10L101 10C98.7909 10 97 11.7909 97 14V40C97 42.2091 98.7909 44 101 44Z" fill="#193330"/>
<path d="M16 6C16 3.79086 17.7909 2 20 2H158C171.807 2 183 13.1929 183 27C183 40.8071 171.807 52 158 52H20C17.7909 52 16 50.2091 16 48V6Z" fill="#CCD3D3"/>
<path d="M158 43.5C167.113 43.5 174.5 36.1127 174.5 27C174.5 17.8873 167.113 10.5 158 10.5C148.887 10.5 141.5 17.8873 141.5 27C141.5 36.1127 148.887 43.5 158 43.5Z" stroke="#99A8A7"/>
<path fill-rule="evenodd" clip-rule="evenodd" d="M288 19H293C294.105 19 295 19.8954 295 21V23H300C301.105 23 302 23.8954 302 25H316C316.552 25 317 25.4477 317 26V28C317 28.5523 316.552 29 316 29H302C302 30.1046 301.105 31 300 31H295V33C295 34.1046 294.105 35 293 35H288V19Z" fill="#33514E"/>
<path d="M291 19H289V35H291V19Z" fill="#193330"/>
<path d="M85.1598 26.6888V23.1778H87.5364C88.6951 23.1778 89.111 23.5629 89.111 24.6149V25.237C89.111 26.3184 88.7098 26.6888 87.5364 26.6888H85.1598ZM88.9324 27.3108C90.0165 27.0294 90.7739 26.0218 90.7739 24.8221C90.7739 24.0666 90.4771 23.385 89.9127 22.8368C89.1997 22.1552 88.2488 21.8145 87.0162 21.8145H83.6743V32.1847H85.1598V28.0516H87.3879C88.5314 28.0516 88.992 28.5256 88.992 29.711V32.1851H90.507V29.948C90.507 28.3184 90.1208 27.6963 88.9324 27.5185V27.3108ZM76.4262 27.6515H81.0011V26.2886H76.4262V23.1774H81.4466V21.8145H74.911V32.1847H81.6694V30.8218H76.4262V27.6515ZM71.4501 28.1997V28.9107C71.4501 30.407 70.9004 30.896 69.5193 30.896H69.1925C67.811 30.896 67.1427 30.4514 67.1427 28.3923V25.607C67.1427 23.5331 67.8409 23.1032 69.222 23.1032H69.5189C70.8707 23.1032 71.3014 23.607 71.3161 24.9996H72.9501C72.8016 22.9551 71.4351 21.6665 69.3852 21.6665C68.3902 21.6665 67.5583 21.9777 66.9346 22.57C65.9988 23.4442 65.479 24.9257 65.479 26.9996C65.479 28.9997 65.9247 30.4812 66.8455 31.3995C67.4692 32.0069 68.3308 32.3328 69.1775 32.3328C70.0686 32.3328 70.8858 31.9771 71.3014 31.2069H71.5091V32.1847H72.8756V26.8368H68.8504V28.1997H71.4501ZM58.3499 23.1774H59.969C61.4991 23.1774 62.3309 23.5625 62.3309 25.6367V28.3625C62.3309 30.4364 61.4991 30.8218 59.969 30.8218H58.3499V23.1774ZM60.1025 32.1851C62.9396 32.1851 63.9939 30.037 63.9939 27C63.9939 23.9185 62.8652 21.8149 60.0726 21.8149H56.8642V32.1851H60.1025ZM49.6905 27.6515H54.2654V26.2886H49.6905V23.1774H54.7108V21.8145H48.1751V32.1847H54.9337V30.8218H49.6905V27.6515ZM40.9271 21.8145H39.4121V32.1847H46.2447V30.8218H40.9271V21.8145Z" fill="#032724"/>
</g>
<path d="M193.93 27.873V27.1406H194.662V26.4082H195.395V25.6758H196.127V24.9434H197.592V24.2109H196.859V23.4785H193.93V24.2109H193.197V27.873H193.93ZM193.197 29.3379V30.0703H193.93V30.8027H196.859V30.0703H197.592V26.4082H196.859V27.1406H196.127V27.873H195.395V28.6055H194.662V29.3379H193.197ZM193.197 22.7461V22.0137H197.592V22.7461H198.324V23.4785H199.057V30.8027H198.324V31.5352H197.592V32.2676H193.197V31.5352H192.465V30.8027H191.732V23.4785H192.465V22.7461H193.197Z" fill="#00D88A" fill-opacity="0.81"/>
<path d="M204.559 30.8027V32.2676H203.094V30.8027H204.559Z" fill="#00D88A" fill-opacity="0.81"/>
<path d="M212.258 27.873V27.1406H212.99V26.4082H213.723V25.6758H214.455V24.9434H215.92V24.2109H215.188V23.4785H212.258V24.2109H211.525V27.873H212.258ZM211.525 29.3379V30.0703H212.258V30.8027H215.188V30.0703H215.92V26.4082H215.188V27.1406H214.455V27.873H213.723V28.6055H212.99V29.3379H211.525ZM211.525 22.7461V22.0137H215.92V22.7461H216.652V23.4785H217.385V30.8027H216.652V31.5352H215.92V32.2676H211.525V31.5352H210.793V30.8027H210.061V23.4785H210.793V22.7461H211.525Z" fill="#00D88A" fill-opacity="0.81"/>
<path d="M221.422 27.873V27.1406H222.154V26.4082H222.887V25.6758H223.619V24.9434H225.084V24.2109H224.352V23.4785H221.422V24.2109H220.689V27.873H221.422ZM220.689 29.3379V30.0703H221.422V30.8027H224.352V30.0703H225.084V26.4082H224.352V27.1406H223.619V27.873H222.887V28.6055H222.154V29.3379H220.689ZM220.689 22.7461V22.0137H225.084V22.7461H225.816V23.4785H226.549V30.8027H225.816V31.5352H225.084V32.2676H220.689V31.5352H219.957V30.8027H219.225V23.4785H219.957V22.7461H220.689Z" fill="#00D88A" fill-opacity="0.81"/>
<path d="M239.018 23.4785V30.8027H242.68V30.0703H243.412V24.2109H242.68V23.4785H239.018ZM237.553 32.2676V22.0137H243.412V22.7461H244.145V23.4785H244.877V30.8027H244.145V31.5352H243.412V32.2676H237.553Z" fill="#00D88A" fill-opacity="0.81"/>
<path d="M247.449 30.8027H246.717V29.3379H248.182V30.0703H248.914V30.8027H250.379V30.0703H251.111V23.4785H249.646V22.0137H254.041V23.4785H252.576V30.8027H251.844V31.5352H251.111V32.2676H248.182V31.5352H247.449V30.8027Z" fill="#00D88A" fill-opacity="0.81"/>
<path d="M258.811 23.4785H255.881V22.0137H263.205V23.4785H260.275V32.2676H258.811V23.4785Z" fill="#00D88A" fill-opacity="0.81"/>
<path d="M266.51 30.0703V32.2676H265.045V29.3379H265.777V28.6055H266.51V27.873H267.242V26.4082H266.51V25.6758H265.777V24.9434H265.045V22.0137H266.51V24.2109H267.242V24.9434H267.975V25.6758H269.439V24.9434H270.172V24.2109H270.904V22.0137H272.369V24.9434H271.637V25.6758H270.904V26.4082H270.172V27.873H270.904V28.6055H271.637V29.3379H272.369V32.2676H270.904V30.0703H270.172V29.3379H269.439V28.6055H267.975V29.3379H267.242V30.0703H266.51Z" fill="#00D88A" fill-opacity="0.81"/>
<defs>
<filter id="filter0_ddd_7118_328" x="0" y="0" width="305" height="84" filterUnits="userSpaceOnUse" color-interpolation-filters="sRGB">
<feFlood flood-opacity="0" result="BackgroundImageFix"/>
<feColorMatrix in="SourceAlpha" type="matrix" values="0 0 0 0 0 0 0 0 0 0 0 0 0 0 0 0 0 0 127 0" result="hardAlpha"/>
<feOffset dy="2"/>
<feGaussianBlur stdDeviation="2"/>
<feColorMatrix type="matrix" values="0 0 0 0 0 0 0 0 0 0.0784314 0 0 0 0 0.0745098 0 0 0 0.34 0"/>
<feBlend mode="normal" in2="BackgroundImageFix" result="effect1_dropShadow_7118_328"/>
<feColorMatrix in="SourceAlpha" type="matrix" values="0 0 0 0 0 0 0 0 0 0 0 0 0 0 0 0 0 0 127 0" result="hardAlpha"/>
<feOffset dy="6"/>
<feGaussianBlur stdDeviation="4"/>
<feColorMatrix type="matrix" values="0 0 0 0 0 0 0 0 0 0.0784314 0 0 0 0 0.0745098 0 0 0 0.24 0"/>
<feBlend mode="normal" in2="effect1_dropShadow_7118_328" result="effect2_dropShadow_7118_328"/>
<feColorMatrix in="SourceAlpha" type="matrix" values="0 0 0 0 0 0 0 0 0 0 0 0 0 0 0 0 0 0 127 0" result="hardAlpha"/>
<feOffset dy="16"/>
<feGaussianBlur stdDeviation="8"/>
<feColorMatrix type="matrix" values="0 0 0 0 0 0 0 0 0 0.0784314 0 0 0 0 0.0745098 0 0 0 0.14 0"/>
<feBlend mode="normal" in2="effect2_dropShadow_7118_328" result="effect3_dropShadow_7118_328"/>
<feBlend mode="normal" in="SourceGraphic" in2="effect3_dropShadow_7118_328" result="shape"/>
</filter>
</defs>
</svg>
