<svg width="300" height="300" viewBox="0 0 300 300" fill="none" xmlns="http://www.w3.org/2000/svg">
<g clip-path="url(#clip0_7123_306)">
<path d="M150 300C232.843 300 300 232.843 300 150C300 67.1573 232.843 0 150 0C67.1573 0 0 67.1573 0 150C0 232.843 67.1573 300 150 300Z" fill="#E2761B"/>
<path d="M251.209 91.6428L238.162 90.8801C237.232 90.8197 236.354 90.4302 235.685 89.7813C235.017 89.1325 234.601 88.2668 234.512 87.3393L233.368 75.2729C233.332 75.0715 233.226 74.8892 233.07 74.7579C232.913 74.6267 232.715 74.5547 232.51 74.5547C232.306 74.5547 232.108 74.6267 231.951 74.7579C231.794 74.8892 231.688 75.0715 231.652 75.2729L230.481 87.3393C230.403 88.2709 229.991 89.1428 229.32 89.7938C228.649 90.4448 227.765 90.8307 226.831 90.8801L213.784 91.6973C213.583 91.7333 213.4 91.839 213.269 91.9958C213.138 92.1527 213.066 92.3508 213.066 92.5553C213.066 92.7599 213.138 92.9579 213.269 93.1148C213.4 93.2716 213.583 93.3772 213.784 93.4132L226.831 94.1759C227.759 94.2417 228.634 94.6331 229.302 95.2809C229.969 95.9286 230.387 96.7913 230.481 97.7169L231.625 109.783C231.661 109.984 231.767 110.167 231.923 110.298C232.08 110.429 232.278 110.501 232.483 110.501C232.687 110.501 232.885 110.429 233.042 110.298C233.199 110.167 233.305 109.984 233.341 109.783L234.485 97.7169C234.574 96.7893 234.989 95.9236 235.658 95.2748C236.327 94.626 237.205 94.2364 238.135 94.1759L251.209 93.3588C251.41 93.3228 251.593 93.2171 251.724 93.0602C251.855 92.9034 251.927 92.7054 251.927 92.5008C251.927 92.2963 251.855 92.0982 251.724 91.9414C251.593 91.7845 251.41 91.6788 251.209 91.6428Z" fill="#002825"/>
<path fill-rule="evenodd" clip-rule="evenodd" d="M223.782 136.858L225.934 138.383C227.833 139.666 229.319 141.473 230.21 143.585C230.639 144.77 230.806 146.034 230.7 147.29C230.603 148.269 230.449 149.243 230.237 150.204C229.796 152.101 229.109 153.932 228.194 155.652C227.711 156.531 227.155 157.37 226.533 158.158L226.233 158.566L226.614 160.99C226.733 161.957 226.797 162.93 226.805 163.905C226.78 167.767 225.912 171.576 224.26 175.068C222.609 178.559 220.214 181.647 217.245 184.115L216.891 184.415L216.455 184.551C212.647 185.917 208.74 186.991 204.77 187.765C200.715 188.619 196.572 188.975 192.431 188.827H192.159H191.832C183.646 186.228 175.211 184.494 166.664 183.652C166.119 183.604 165.567 183.561 165.009 183.517C163.362 183.389 161.658 183.256 159.909 182.971C157.597 182.609 155.326 182.026 153.127 181.228C149.306 179.901 145.295 179.202 141.251 179.158H141.115C139.935 180.996 139.15 183.058 138.808 185.214C138.465 187.371 138.574 189.575 139.126 191.687C140.169 196.981 142.006 202.087 144.574 206.832C147.52 211.823 150.158 216.989 152.473 222.303C153.722 225.119 154.636 228.072 155.197 231.101C155.786 234.404 155.543 237.802 154.488 240.988L153.154 244.774L149.913 242.377C149.425 242.029 148.905 241.728 148.36 241.478C148.112 243.315 147.748 245.135 147.27 246.926C146.357 250.049 145.048 253.042 143.375 255.833C141.155 238.148 128.787 233.081 116.699 228.129C111.286 225.912 105.929 223.717 101.565 220.423C87.4556 209.773 86.3116 197.326 95.0277 175.535C97.6883 168.834 99.6241 161.866 100.803 154.753C101.048 153.146 101.347 151.566 101.702 149.986C101.731 149.765 101.777 149.547 101.838 149.332L102.083 148.216C102.115 148.933 102.135 149.647 102.155 150.359C102.204 152.083 102.252 153.792 102.464 155.488C102.595 157.802 103.054 160.085 103.826 162.27C104.177 163.198 104.704 164.049 105.379 164.776C105.572 165.002 105.784 165.198 106.032 165.429C106.204 165.588 106.393 165.763 106.604 165.975C106.964 166.386 107.356 166.769 107.776 167.119C109.509 168.446 111.439 169.493 113.495 170.224C117.843 171.743 122.363 172.713 126.951 173.111C131.364 173.629 135.858 173.819 140.379 173.819H141.06C145.75 173.853 150.404 174.644 154.843 176.162C158.805 177.501 162.946 178.236 167.127 178.341C175.921 179.188 184.602 180.95 193.03 183.598C196.623 183.693 200.215 183.373 203.735 182.644C206.241 182.154 208.719 181.473 211.171 180.738C216.645 178.423 220.268 172.158 212.859 172.975C211.11 173.096 209.371 173.342 207.657 173.71C206.318 173.955 204.995 174.443 203.579 174.966C202.314 175.432 200.976 175.926 199.486 176.298C196.466 177.008 193.316 176.933 190.334 176.08C187.73 175.004 184.972 174.351 182.162 174.146C183.47 173.396 184.934 172.958 186.439 172.866C187.52 172.756 188.491 172.794 189.425 172.831C189.879 172.849 190.324 172.866 190.769 172.866C193.321 173.189 195.909 173.078 198.423 172.539C199.693 172.176 200.988 171.478 202.387 170.724C203.509 170.119 204.698 169.477 205.995 168.944C208.834 167.749 211.877 167.111 214.957 167.064H216.809C218.961 164.068 220.786 160.745 220.077 158.021C219.239 156.898 218.081 156.053 216.754 155.597C216.403 155.474 215.718 155.296 214.829 155.064C211.584 154.22 205.629 152.669 203.299 150.531C201.556 148.76 202.591 145.192 209.727 143.721C213.01 143.151 216.357 143.05 219.669 143.422C220.801 143.62 221.966 143.516 223.046 143.122L222.638 142.768L220.568 141.297L218.47 139.717L210.299 133.48C208.964 132.472 207.548 131.437 206.24 130.593L205.587 130.211L204.307 129.667C203.462 129.313 202.618 128.904 201.774 128.468C199.165 127.079 196.748 125.358 194.583 123.348C186.602 116.647 177.668 100.468 175.326 95.1838C173.456 91.1202 170.161 87.8834 166.065 86.0864C168.075 85.9742 170.085 86.3232 171.941 87.1069C173.796 87.8905 175.448 89.088 176.769 90.6078C177.455 91.1763 178.736 93.0303 180.283 95.2695C183.405 99.7893 187.611 105.878 190.197 106.133C191.588 106.081 192.968 105.871 194.31 105.507C193.023 104.268 191.848 102.919 190.797 101.476C189.397 99.6297 188.314 97.7232 187.268 95.8801C186.909 95.2485 186.555 94.6243 186.193 94.0125C184.991 91.7168 183.539 89.561 181.863 87.5844C181.478 87.1783 181.069 86.7962 180.637 86.4404C180.185 86.1043 179.701 85.8125 179.193 85.5688C178.077 84.9968 176.933 84.5065 175.516 83.9617C174.1 83.417 172.847 82.9267 171.376 82.1913L167.563 80.2847L159.936 76.5803C154.905 74.1642 149.729 72.0629 144.438 70.2883C139.198 68.5645 133.795 67.387 128.313 66.7746C127.012 66.6017 125.703 66.5017 124.391 66.475C123.336 66.4467 122.29 66.6709 121.34 67.1287C120.84 67.3482 120.324 67.6224 119.769 67.9169C119.085 68.2801 118.342 68.6744 117.499 69.0354L113.713 70.7786C108.789 73.2572 104.086 76.1551 99.6582 79.4403C96.0944 81.7692 92.9457 84.6785 90.3428 88.0474C94.1981 87.8701 98.0521 88.4246 101.702 89.6817C96.792 89.6046 91.9015 90.3033 87.2104 91.7518C84.9132 92.4323 82.6654 93.2696 80.4827 94.2577C78.2989 95.1721 76.1945 96.2653 74.1907 97.5262C72.2123 98.6674 70.3825 100.049 68.7432 101.639C68.0731 102.312 67.5533 103.12 67.2178 104.009C66.7548 105.016 66.319 106.133 65.9104 107.25C64.3361 111.834 63.0802 116.521 62.1516 121.277C60.1826 130.749 59.4501 140.435 59.9726 150.095C60.3614 157.895 62.3942 165.525 65.9377 172.485C69.2879 168.099 72.5565 163.605 75.7161 159.056C79.7473 153.146 83.5878 147.045 87.0198 140.889C88.8119 137.674 90.3961 134.311 91.9973 130.912C93.4624 127.802 94.9416 124.662 96.6075 121.577C98.2978 118.277 100.276 115.133 102.519 112.18C103.676 110.655 105.021 109.282 106.523 108.094C108.002 106.863 109.832 106.129 111.752 105.997C105.651 111.472 100.884 126.18 96.1717 142.659C92.3312 156.033 79.3931 186.539 71.2218 187.275C68.0349 187.466 66.891 185.94 64.7119 182.835L62.9415 180.384C59.8044 176.013 57.4115 171.154 55.8596 166.002C54.4366 160.955 53.5689 155.767 53.272 150.531C53.0217 145.381 53.1401 140.22 53.6261 135.087C54.1878 130.001 55.0518 124.953 56.2137 119.97C57.3523 114.971 58.8358 110.056 60.6535 105.262C61.1438 104.063 61.6341 102.865 62.2333 101.639C62.5616 100.952 62.9346 100.288 63.35 99.6508C63.8094 99.0115 64.3195 98.4104 64.8754 97.8531C66.8628 95.9635 69.1099 94.3676 71.5487 93.1137C75.5998 91.016 79.9426 89.5378 84.4322 88.7284C85.694 85.9222 87.4257 83.3521 89.5529 81.129C91.6307 78.9686 93.8907 76.991 96.3079 75.2184C100.801 71.6106 105.668 68.4967 110.826 65.9303C112.079 65.3038 113.713 64.5684 114.803 64.1054C115.336 63.8788 115.895 63.5871 116.506 63.2685C117.143 62.9358 117.837 62.5738 118.616 62.2259C120.252 61.4596 122.039 61.0687 123.846 61.0819C125.367 61.1006 126.886 61.2097 128.395 61.4088C134.246 62.0682 140.015 63.3278 145.609 65.1676C151.117 67.002 156.503 69.1855 161.734 71.7047L169.469 75.4635L173.31 77.3702C174.161 77.8303 175.246 78.2516 176.399 78.6996C176.611 78.782 176.826 78.8653 177.042 78.95C178.431 79.4947 179.738 80.0668 181.154 80.7749C181.924 81.161 182.662 81.6073 183.361 82.1096C184.038 82.6532 184.675 83.2449 185.267 83.88C187.36 86.1334 189.188 88.6192 190.715 91.2887C190.776 91.395 190.837 91.5012 190.898 91.6072C193.715 96.4984 196.332 101.043 200.384 103.709L203.626 105.861V106.215L202.727 107.822L199.731 108.585C199.161 108.76 198.682 109.151 198.396 109.674C198.254 109.934 198.17 110.223 198.151 110.518C198.12 111.108 198.12 111.699 198.151 112.289C198.155 113.212 198.017 114.131 197.742 115.013C197.6 115.502 197.44 115.918 197.304 116.272C197.205 116.528 197.119 116.752 197.061 116.947C196.98 117.136 196.939 117.34 196.939 117.546C196.939 117.752 196.98 117.956 197.061 118.145C199.188 120.351 201.664 122.191 204.388 123.593C205.069 123.974 205.777 124.301 206.513 124.628L207.63 125.064C208.19 125.317 208.727 125.618 209.237 125.962C210.688 126.882 211.882 127.78 213.124 128.714C213.28 128.831 213.437 128.949 213.595 129.068L221.766 135.332L223.782 136.858ZM152.882 119.589C152.184 119.656 151.482 119.656 150.785 119.589C146.1 119.316 143.812 116.102 144.574 112.807C145.337 109.511 144.874 108.421 143.948 108.421C142.512 108.923 141.278 109.879 140.434 111.145H140.244C140.194 111.154 140.143 111.151 140.095 111.136C140.046 111.122 140.002 111.097 139.965 111.062C139.928 111.028 139.9 110.986 139.882 110.939C139.864 110.892 139.857 110.841 139.862 110.791C140.843 103.954 144.847 103.655 146.617 103.655C152.021 104.056 157.374 104.968 162.606 106.378C162.757 106.403 162.898 106.472 163.01 106.578C163.121 106.684 163.198 106.82 163.23 106.97C163.263 107.121 163.249 107.277 163.191 107.419C163.133 107.561 163.034 107.683 162.906 107.767C162.129 108.45 161.549 109.327 161.223 110.309C160.898 111.29 160.839 112.34 161.053 113.351C161.38 116.565 157.567 119.071 152.882 119.589Z" fill="#002825"/>
<g filter="url(#filter0_i_7123_306)">
<g filter="url(#filter1_f_7123_306)">
<g filter="url(#filter2_f_7123_306)">
<path d="M255.383 255.919C312.834 198.472 312.834 105.338 255.383 47.8937C197.945 -9.54726 104.804 -9.54726 47.3602 47.8937C-10.0836 105.338 -10.0836 198.472 47.3602 255.919C104.804 313.36 197.945 313.36 255.383 255.919Z" fill="black" fill-opacity="0.15"/>
</g>
</g>
<path d="M254.106 254.108C311.552 196.661 311.552 103.527 254.106 46.0829C196.665 -11.361 103.528 -11.361 46.0807 46.0829C-11.3602 103.527 -11.3602 196.661 46.0807 254.108C103.528 311.547 196.665 311.547 254.106 254.108Z" fill="#282931" stroke="url(#paint0_linear_7123_306)" stroke-opacity="0.7" stroke-width="0.7" stroke-miterlimit="10"/>
<path d="M254.106 254.108C311.552 196.661 311.552 103.527 254.106 46.0829C196.665 -11.361 103.528 -11.361 46.0807 46.0829C-11.3602 103.527 -11.3602 196.661 46.0807 254.108C103.528 311.547 196.665 311.547 254.106 254.108Z" fill="#282931" stroke="url(#paint1_linear_7123_306)" stroke-opacity="0.7" stroke-miterlimit="10"/>
<path d="M233.318 233.336C279.271 187.377 279.271 112.871 233.318 66.9151C187.366 20.9593 112.856 20.9593 66.9005 66.9151C20.9446 112.871 20.9446 187.377 66.9005 233.336C112.856 279.289 187.366 279.289 233.318 233.336Z" fill="#282931"/>
</g>
<path d="M221.643 78L160.192 123.64L171.556 96.7132L221.643 78Z" fill="#E2761B" stroke="#E2761B" stroke-linecap="round" stroke-linejoin="round"/>
<path d="M79.7812 78L140.738 124.073L129.93 96.7132L79.7812 78Z" fill="#E4761B" stroke="#E4761B" stroke-linecap="round" stroke-linejoin="round"/>
<path d="M199.533 183.794L183.167 208.869L218.185 218.503L228.252 184.35L199.533 183.794Z" fill="#E4761B" stroke="#E4761B" stroke-linecap="round" stroke-linejoin="round"/>
<path d="M73.2969 184.35L83.302 218.503L118.32 208.869L101.953 183.794L73.2969 184.35Z" fill="#E4761B" stroke="#E4761B" stroke-linecap="round" stroke-linejoin="round"/>
<path d="M116.343 141.428L106.585 156.188L141.356 157.732L140.121 120.368L116.343 141.428Z" fill="#E4761B" stroke="#E4761B" stroke-linecap="round" stroke-linejoin="round"/>
<path d="M185.082 141.427L160.995 119.935L160.192 157.732L194.901 156.188L185.082 141.427Z" fill="#E4761B" stroke="#E4761B" stroke-linecap="round" stroke-linejoin="round"/>
<path d="M118.32 208.869L139.195 198.679L121.161 184.598L118.32 208.869Z" fill="#E4761B" stroke="#E4761B" stroke-linecap="round" stroke-linejoin="round"/>
<path d="M162.231 198.679L183.168 208.869L180.265 184.598L162.231 198.679Z" fill="#E4761B" stroke="#E4761B" stroke-linecap="round" stroke-linejoin="round"/>
<path d="M183.168 208.869L162.231 198.678L163.899 212.327L163.714 218.071L183.168 208.869Z" fill="#D7C1B3" stroke="#D7C1B3" stroke-linecap="round" stroke-linejoin="round"/>
<path d="M118.32 208.869L137.775 218.071L137.651 212.327L139.195 198.678L118.32 208.869Z" fill="#D7C1B3" stroke="#D7C1B3" stroke-linecap="round" stroke-linejoin="round"/>
<path d="M138.083 175.58L120.667 170.454L132.957 164.834L138.083 175.58Z" fill="#233447" stroke="#233447" stroke-linecap="round" stroke-linejoin="round"/>
<path d="M163.343 175.58L168.469 164.834L180.821 170.454L163.343 175.58Z" fill="#233447" stroke="#233447" stroke-linecap="round" stroke-linejoin="round"/>
<path d="M118.319 208.869L121.284 183.794L101.953 184.35L118.319 208.869Z" fill="#CD6116" stroke="#CD6116" stroke-linecap="round" stroke-linejoin="round"/>
<path d="M180.203 183.794L183.168 208.869L199.534 184.35L180.203 183.794Z" fill="#CD6116" stroke="#CD6116" stroke-linecap="round" stroke-linejoin="round"/>
<path d="M194.901 156.188L160.192 157.732L163.404 175.581L168.53 164.834L180.882 170.454L194.901 156.188Z" fill="#CD6116" stroke="#CD6116" stroke-linecap="round" stroke-linejoin="round"/>
<path d="M120.666 170.454L133.018 164.834L138.082 175.581L141.356 157.732L106.585 156.188L120.666 170.454Z" fill="#CD6116" stroke="#CD6116" stroke-linecap="round" stroke-linejoin="round"/>
<path d="M106.585 156.188L121.16 184.597L120.666 170.454L106.585 156.188Z" fill="#E4751F" stroke="#E4751F" stroke-linecap="round" stroke-linejoin="round"/>
<path d="M180.882 170.454L180.265 184.597L194.902 156.188L180.882 170.454Z" fill="#E4751F" stroke="#E4751F" stroke-linecap="round" stroke-linejoin="round"/>
<path d="M141.355 157.732L138.082 175.58L142.158 196.641L143.085 168.91L141.355 157.732Z" fill="#E4751F" stroke="#E4751F" stroke-linecap="round" stroke-linejoin="round"/>
<path d="M160.193 157.732L158.525 168.849L159.267 196.641L163.404 175.58L160.193 157.732Z" fill="#E4751F" stroke="#E4751F" stroke-linecap="round" stroke-linejoin="round"/>
<path d="M163.405 175.581L159.267 196.641L162.231 198.679L180.265 184.598L180.883 170.455L163.405 175.581Z" fill="#F6851B" stroke="#F6851B" stroke-linecap="round" stroke-linejoin="round"/>
<path d="M120.667 170.455L121.161 184.598L139.195 198.679L142.159 196.641L138.083 175.581L120.667 170.455Z" fill="#F6851B" stroke="#F6851B" stroke-linecap="round" stroke-linejoin="round"/>
<path d="M163.714 218.071L163.899 212.328L162.355 210.969H139.072L137.651 212.328L137.775 218.071L118.32 208.869L125.114 214.428L138.886 224H162.54L176.374 214.428L183.168 208.869L163.714 218.071Z" fill="#C0AD9E" stroke="#C0AD9E" stroke-linecap="round" stroke-linejoin="round"/>
<path d="M162.231 198.678L159.266 196.64H142.159L139.194 198.678L137.65 212.327L139.071 210.968H162.354L163.898 212.327L162.231 198.678Z" fill="#161616" stroke="#161616" stroke-linecap="round" stroke-linejoin="round"/>
<path d="M224.238 126.605L229.488 101.407L221.644 78L162.231 122.096L185.083 141.427L217.383 150.877L224.547 142.539L221.459 140.316L226.4 135.807L222.571 132.843L227.512 129.075L224.238 126.605Z" fill="#763D16" stroke="#763D16" stroke-linecap="round" stroke-linejoin="round"/>
<path d="M72 101.407L77.2496 126.605L73.9146 129.075L78.8553 132.843L75.088 135.807L80.0288 140.316L76.9408 142.539L84.0432 150.877L116.344 141.427L139.195 122.096L79.7817 78L72 101.407Z" fill="#763D16" stroke="#763D16" stroke-linecap="round" stroke-linejoin="round"/>
<path d="M217.382 150.876L185.082 141.427L194.902 156.188L180.265 184.597L199.534 184.35H228.252L217.382 150.876Z" fill="#F6851B" stroke="#F6851B" stroke-linecap="round" stroke-linejoin="round"/>
<path d="M116.343 141.427L84.0431 150.876L73.2969 184.35H101.953L121.161 184.597L106.585 156.188L116.343 141.427Z" fill="#F6851B" stroke="#F6851B" stroke-linecap="round" stroke-linejoin="round"/>
<path d="M160.193 157.732L162.231 122.096L171.619 96.7129H129.931L139.195 122.096L141.356 157.732L142.097 168.972L142.159 196.64H159.267L159.39 168.972L160.193 157.732Z" fill="#F6851B" stroke="#F6851B" stroke-linecap="round" stroke-linejoin="round"/>
</g>
<defs>
<filter id="filter0_i_7123_306" x="2.5" y="2.5" width="295.972" height="297.5" filterUnits="userSpaceOnUse" color-interpolation-filters="sRGB">
<feFlood flood-opacity="0" result="BackgroundImageFix"/>
<feBlend mode="normal" in="SourceGraphic" in2="BackgroundImageFix" result="shape"/>
<feColorMatrix in="SourceAlpha" type="matrix" values="0 0 0 0 0 0 0 0 0 0 0 0 0 0 0 0 0 0 127 0" result="hardAlpha"/>
<feOffset dy="1"/>
<feGaussianBlur stdDeviation="4"/>
<feComposite in2="hardAlpha" operator="arithmetic" k2="-1" k3="1"/>
<feColorMatrix type="matrix" values="0 0 0 0 0 0 0 0 0 0 0 0 0 0 0 0 0 0 0.35 0"/>
<feBlend mode="normal" in2="shape" result="effect1_innerShadow_7123_306"/>
</filter>
<filter id="filter1_f_7123_306" x="-1.72266" y="-1.18701" width="306.194" height="306.187" filterUnits="userSpaceOnUse" color-interpolation-filters="sRGB">
<feFlood flood-opacity="0" result="BackgroundImageFix"/>
<feBlend mode="normal" in="SourceGraphic" in2="BackgroundImageFix" result="shape"/>
<feGaussianBlur stdDeviation="3" result="effect1_foregroundBlur_7123_306"/>
</filter>
<filter id="filter2_f_7123_306" x="2.27734" y="2.81299" width="298.194" height="298.187" filterUnits="userSpaceOnUse" color-interpolation-filters="sRGB">
<feFlood flood-opacity="0" result="BackgroundImageFix"/>
<feBlend mode="normal" in="SourceGraphic" in2="BackgroundImageFix" result="shape"/>
<feGaussianBlur stdDeviation="1" result="effect1_foregroundBlur_7123_306"/>
</filter>
<linearGradient id="paint0_linear_7123_306" x1="150.095" y1="2.99931" x2="150.095" y2="297.193" gradientUnits="userSpaceOnUse">
<stop stop-color="#6B6B6F"/>
<stop offset="0.96875" stop-color="#848487" stop-opacity="0.42"/>
</linearGradient>
<linearGradient id="paint1_linear_7123_306" x1="-77.6143" y1="-134.713" x2="225.657" y2="293.653" gradientUnits="userSpaceOnUse">
<stop offset="0.0835138" stop-color="#F6851B"/>
<stop offset="0.96875" stop-color="#848487" stop-opacity="0"/>
</linearGradient>
<clipPath id="clip0_7123_306">
<rect width="300" height="300" fill="white"/>
</clipPath>
</defs>
</svg>
