<svg width="24" height="24" viewBox="0 0 24 24" fill="none" xmlns="http://www.w3.org/2000/svg">
<path opacity="0.668" fill-rule="evenodd" clip-rule="evenodd" d="M13.8062 19.7929C13.8062 19.3161 14.201 18.9297 14.6878 18.9297H21.3451C21.832 18.9297 22.2267 19.3162 22.2267 19.7929C22.2268 19.9381 22.1895 20.0809 22.1184 20.2074H23.3845V21.9971H12.6484V20.2074H13.9145C13.8434 20.0808 13.8061 19.9381 13.8062 19.7929V19.7929Z" fill="#99A8A7"/>
<path opacity="0.668" fill-rule="evenodd" clip-rule="evenodd" d="M13.9089 3.99032L8.90792 8.38445C8.51042 8.67219 7.95134 8.61717 7.62019 8.24321L7.28731 7.86745C6.93569 7.47028 6.97423 6.86399 7.37346 6.51317L12.2364 2.24034C12.6357 1.88959 13.2444 1.92713 13.5961 2.3243L13.929 2.70013C14.2601 3.07402 14.2452 3.63343 13.9089 3.99032V3.99032Z" fill="#99A8A7"/>
<path fill-rule="evenodd" clip-rule="evenodd" d="M1.02198 19.8977L1.01258 19.8131L1.00698 19.7327C1.00191 19.6779 1.00191 19.6285 1.00071 19.5779C0.996039 19.3755 1.01484 19.1997 1.04632 19.0384C1.11127 18.7177 1.2345 18.463 1.40334 18.2601C1.44522 18.2091 1.49137 18.1628 1.53711 18.116L1.67408 17.9756C1.7649 17.8813 1.85826 17.7899 1.95075 17.6976C2.04314 17.6053 2.13645 17.5138 2.23069 17.4234C2.32407 17.3321 2.41835 17.2418 2.51349 17.1524C2.70282 16.9728 2.89388 16.795 3.08664 16.619L3.37658 16.3561L3.66879 16.0956C3.8642 15.9228 4.06069 15.7512 4.25827 15.5808C4.45562 15.4101 4.6543 15.241 4.85429 15.0734L5.45524 14.5716L6.06173 14.0758L6.67282 13.5854L7.28805 13.0996L7.90727 12.6183L8.53043 12.1417C8.73922 11.9838 8.94767 11.8258 9.15832 11.6701C9.36831 11.5139 9.57803 11.3571 9.79008 11.203L10.051 11.4986L11.0253 10.8362L9.55529 9.17151L14.5597 4.76172L18.1747 8.85556L13.1703 13.2654L11.7003 11.6007L10.9208 12.4837L11.1818 12.7793C11.0023 12.9703 10.8204 13.1583 10.639 13.3471C10.4581 13.5364 10.2752 13.7233 10.0924 13.9105L9.54122 14.4688L8.98581 15.0224L8.4266 15.5716L7.86319 16.116L7.29525 16.6554L6.72183 17.1884C6.53036 17.3657 6.3375 17.5415 6.14329 17.7158C5.94941 17.8904 5.75444 18.0638 5.5584 18.236L5.26333 18.4929L4.96605 18.7474C4.76674 18.916 4.56722 19.0841 4.3647 19.249C4.26405 19.3322 4.1626 19.4143 4.06036 19.4955C3.95871 19.5776 3.85623 19.6587 3.75294 19.7387C3.64965 19.8188 3.54729 19.8999 3.4424 19.9781L3.28576 20.0963C3.23354 20.1357 3.1818 20.1758 3.12592 20.2109C2.90326 20.3529 2.63499 20.4433 2.30837 20.4675C2.12758 20.48 1.94596 20.4727 1.76677 20.4456C1.71662 20.4381 1.66761 20.4318 1.61373 20.4201L1.53464 20.4044L1.45169 20.3844C1.34113 20.3578 1.22143 20.3206 1.09006 20.2705C1.05949 20.1478 1.03677 20.0233 1.02205 19.8977H1.02198Z" fill="#99A8A7"/>
<path opacity="0.668" fill-rule="evenodd" clip-rule="evenodd" d="M20.3741 11.4644L15.5111 15.7372C15.1118 16.088 14.5031 16.0504 14.1514 15.6532L13.8185 15.2774C13.4874 14.9034 13.5024 14.3441 13.8386 13.9872L18.8395 9.5931C19.237 9.30542 19.7961 9.36037 20.1273 9.73433L20.4601 10.1102C20.8119 10.5073 20.7733 11.1136 20.3741 11.4644V11.4644Z" fill="#99A8A7"/>
</svg>
