<svg width="124" height="124" viewBox="0 0 124 124" fill="none" xmlns="http://www.w3.org/2000/svg">
<path d="M62 124C96.2417 124 124 96.2417 124 62C124 27.7583 96.2417 0 62 0C27.7583 0 0 27.7583 0 62C0 96.2417 27.7583 124 62 124Z" fill="#031F1D" fill-opacity="0.76"/>
<path fill-rule="evenodd" clip-rule="evenodd" d="M35.1688 99.981C33.8222 99.9865 32.6196 99.1403 32.1703 97.871C31.721 96.6017 32.1234 95.1871 33.1736 94.3443L38.7466 89.8164C40.8165 88.1392 43.7149 87.9365 45.998 89.3097C58.3124 96.5273 73.9335 94.6137 84.1416 84.6369C94.3502 74.6606 96.6215 59.0877 89.6884 46.6108C82.7553 34.1338 68.3314 27.8379 54.4686 31.2371C40.6054 34.6367 30.7304 46.8907 30.3554 61.1597C30.1358 67.429 31.8371 73.6164 35.2321 78.8921C35.8372 79.8477 35.8866 81.0541 35.3613 82.0561C34.836 83.0581 33.8158 83.7042 32.6855 83.7502C31.5551 83.7966 30.4859 83.2359 29.8804 82.2799C25.8033 75.9388 23.7596 68.5037 24.0225 60.9697C24.4875 43.8513 36.3456 29.1592 52.9797 25.091C69.6142 21.0229 86.9142 28.5841 95.2272 43.5557C103.54 58.5273 100.811 77.2094 88.5635 89.1779C76.3159 101.146 57.5756 103.444 42.7998 94.7876L37.1635 99.2526C36.6023 99.7175 35.8976 99.9751 35.1688 99.981ZM65.123 74.6475V58.8149C65.123 57.0659 63.7051 55.6484 61.9565 55.6484C60.2075 55.6484 58.79 57.0659 58.79 58.8149V74.6475C58.79 76.3961 60.2075 77.8136 61.9565 77.8136C63.7051 77.8136 65.123 76.3961 65.123 74.6475ZM58.79 49.3179C58.79 51.0669 60.2075 52.4844 61.9565 52.4844C63.7051 52.4844 65.123 51.0669 65.123 49.3179C65.123 47.5693 63.7051 46.1513 61.9565 46.1513C60.2075 46.1513 58.79 47.5693 58.79 49.3179Z" fill="#E2FCFA"/>
</svg>
