<svg width="374" height="82" viewBox="0 0 374 82" fill="none" xmlns="http://www.w3.org/2000/svg">
<path fill-rule="evenodd" clip-rule="evenodd" d="M50.3032 9H23.6969C17.5433 9 15.3119 9.64072 13.0622 10.8438C10.8125 12.047 9.04699 13.8125 7.84384 16.0622C6.64072 18.3119 6 20.5433 6 26.6969V53.3032C6 59.4568 6.64072 61.6883 7.84384 63.9378C9.04699 66.1877 10.8125 67.953 13.0622 69.1563C15.3119 70.3595 17.5433 71 23.6969 71H50.3032C56.4568 71 58.6883 70.3595 60.9378 69.1563C63.1877 67.953 64.953 66.1877 66.1563 63.9378C67.3595 61.6883 68 59.4568 68 53.3032V26.6969C68 20.5433 67.3595 18.3119 66.1563 16.0622C64.953 13.8125 63.1877 12.047 60.9378 10.8438C58.6883 9.64072 56.4568 9 50.3032 9Z" fill="url(#paint0_linear_7093_650)"/>
<path d="M19.2871 27.8351C19.2871 27.8351 34.2718 27.7974 41.3066 27.8489C45.5492 27.8804 48.9409 29.6502 51.629 32.9827C57.3989 40.1371 54.0327 51.8601 43.8873 54.0838C42.7066 54.3429 41.4555 54.3307 40.236 54.3495C38.6201 54.3744 36.9776 54.4769 35.3922 54.2421C31.9971 53.74 28.9658 50.4585 28.8728 46.8907C28.8523 46.1229 29.0394 46.212 28.4947 45.9098C26.1044 44.5834 24.0434 41.4834 23.7367 38.875C23.6277 37.9488 23.8275 37.6217 23.3697 37.3886C21.3874 35.7517 19.7399 32.629 19.5207 30.1412L19.2871 27.8351ZM32.0104 46.6637C32.2756 49.0967 34.0919 51.4117 37.064 51.4034H41.1942C45.1257 51.4051 48.9808 48.9107 50.5917 45.0617C53.4099 38.3275 48.4864 30.8935 41.1909 30.8852C39.3104 30.883 37.4299 30.8864 35.5494 30.8847C31.8277 30.8808 28.1061 30.8753 24.3844 30.8708C23.8391 30.8697 23.2939 30.8708 22.7314 30.8708C23.0558 33.3221 24.747 35.6056 27.8 35.5535L41.1682 35.5364C43.9648 35.5408 46.405 37.6892 46.6796 40.369C46.9912 43.4137 45.1174 46.0022 42.1834 46.5563C41.7777 46.6327 41.3569 46.6582 40.9434 46.6593C37.9846 46.6682 35.0252 46.6643 32.011 46.6643L32.0104 46.6637ZM26.7941 38.7128C26.7941 38.7128 27.5209 43.4818 31.8482 43.4641C31.8482 43.4641 40.3301 43.4724 41.2794 43.427C42.2377 43.381 42.9595 42.9232 43.3576 42.0325C43.7273 41.2049 43.6338 40.4156 43.0819 39.6882C42.4862 38.9043 41.6409 38.7349 40.7275 38.7327L26.7941 38.7128Z" fill="white"/>
<path d="M19.2871 27.8351C19.2871 27.8351 34.2718 27.7974 41.3066 27.8489C45.5492 27.8804 48.9409 29.6502 51.629 32.9827C57.3989 40.1371 54.0327 51.8601 43.8873 54.0838C42.7066 54.3429 41.4555 54.3307 40.236 54.3495C38.6201 54.3744 36.9776 54.4769 35.3922 54.2421C31.9971 53.74 28.9658 50.4585 28.8728 46.8907C28.8523 46.1229 29.0394 46.212 28.4947 45.9098C26.1044 44.5834 24.0434 41.4834 23.7367 38.875C23.6277 37.9488 23.8275 37.6217 23.3697 37.3886C21.3874 35.7517 19.7399 32.629 19.5207 30.1412L19.2871 27.8351ZM32.0104 46.6637C32.2756 49.0967 34.0919 51.4117 37.064 51.4034H41.1942C45.1257 51.4051 48.9808 48.9107 50.5917 45.0617C53.4099 38.3275 48.4864 30.8935 41.1909 30.8852C39.3104 30.883 37.4299 30.8864 35.5494 30.8847C31.8277 30.8808 28.1061 30.8753 24.3844 30.8708C23.8391 30.8697 23.2939 30.8708 22.7314 30.8708C23.0558 33.3221 24.747 35.6056 27.8 35.5535L41.1682 35.5364C43.9648 35.5408 46.405 37.6892 46.6796 40.369C46.9912 43.4137 45.1174 46.0022 42.1834 46.5563C41.7777 46.6327 41.3569 46.6582 40.9434 46.6593C37.9846 46.6682 35.0252 46.6643 32.011 46.6643L32.0104 46.6637ZM26.7941 38.7128C26.7941 38.7128 27.5209 43.4818 31.8482 43.4641C31.8482 43.4641 40.3301 43.4724 41.2794 43.427C42.2377 43.381 42.9595 42.9232 43.3576 42.0325C43.7273 41.2049 43.6338 40.4156 43.0819 39.6882C42.4862 38.9043 41.6409 38.7349 40.7275 38.7327L26.7941 38.7128Z" fill="url(#paint1_linear_7093_650)" fill-opacity="0.4"/>
<path d="M96.125 57.375C96.125 60.6875 97.5625 62 101.156 62H109.812C122.125 62 128.531 54.7188 128.531 40.6875C128.531 26.625 122.125 19.3438 109.812 19.3438H101.156C97.5625 19.3438 96.125 20.6562 96.125 23.9688V57.375ZM101.594 57.125V24.1875H109.562C118.531 24.1875 122.969 29.625 122.969 40.6875C122.969 51.7188 118.562 57.125 109.562 57.125H101.594Z" fill="white"/>
<path d="M134.844 48.2188C134.844 57.0938 140.281 62.5625 149.094 62.5625C153.5 62.5625 157.5 61.1875 159.562 58.9688C160.5 58 161.094 56.8125 161.094 55.8438C161.094 54.5312 160.188 53.5625 159 53.5625C158.094 53.5625 157.719 53.8125 156.031 55.375C154.281 57.0625 152.125 57.9062 149.344 57.9062C143.719 57.9062 140.312 54.3438 140.281 48.6562V46.9375H158.969C161.281 46.9375 161.906 45.9375 161.906 42.375C161.906 34.3125 156.406 28.5938 148.562 28.5938C140.469 28.5938 134.844 34.5312 134.844 43.0312V48.2188ZM140.281 42.5625V42.4688C140.281 36.9688 143.656 33.2188 148.625 33.2188C153.469 33.2188 156.562 36.8125 156.562 42.4688V42.5625H140.281Z" fill="white"/>
<path d="M168.719 48.4062C168.719 57 173.719 62.5625 182.406 62.5625C184.781 62.5625 187.594 62.125 190.156 60.625C192.562 59.25 194.344 57.1562 194.344 55C194.344 53.25 193.188 52.5312 192.031 52.5312C190.625 52.5312 189.844 53.625 189.281 54.375C187.344 56.9688 184.906 57.7812 182.406 57.7812C176.844 57.7812 174.188 53.7188 174.188 48.125V43C174.188 37.3438 176.938 33.375 182.375 33.375C185.281 33.375 187.531 34.5 189.156 36.7812C189.781 37.6562 190.469 38.625 191.938 38.625C193.438 38.625 194.25 37.5312 194.25 36.125C194.25 33.9062 192.25 31.8125 190.156 30.5625C187.656 29.0625 184.75 28.5938 182.312 28.5938C173.719 28.5938 168.719 34.2188 168.719 42.7188V48.4062Z" fill="white"/>
<path d="M200.312 71.3125C200.312 71.9375 200.5 72.4375 200.906 72.8438C201.562 73.4688 202.781 73.8438 204.25 73.8438C209.344 73.8438 212.594 71.1875 215 64.4375L226.062 33.5625C226.375 32.75 226.5 32.125 226.5 31.625C226.5 30.1562 225.375 29.0625 223.844 29.0625C222.562 29.0625 221.625 29.9375 221.062 31.7812L212.969 56.6562H212.719L204.625 31.7812C204.062 29.9375 203.125 29.0625 201.812 29.0625C200.219 29.0625 199.062 30.1875 199.062 31.6562C199.062 32.1562 199.188 32.8125 199.469 33.5625L210.031 62.5C210.031 62.5312 209.5 64.375 209.5 64.4062C208.656 67.375 206.688 69.3125 204.531 69.3125C203.844 69.3125 203.25 69.25 202.812 69.25C201.312 69.25 200.312 70.0625 200.312 71.3125Z" fill="white"/>
<path d="M238.938 71V57.1562H239.219C240.719 60.5938 244.125 62.5312 248.656 62.5312C256.5 62.5312 261.438 57.125 261.438 48.4688V42.6562C261.438 34.0625 256.562 28.625 248.844 28.625C244.125 28.625 240.312 30.8125 238.969 34.375H238.688V31.7812C238.688 29.9062 237.75 28.8438 236.125 28.8438C234.5 28.8438 233.562 29.9375 233.562 31.8438V71C233.562 72.875 234.562 74 236.25 74C237.938 74 238.938 72.875 238.938 71ZM238.938 48.8125V42.9375C238.938 36.9375 242.219 33.3125 247.5 33.3125C252.969 33.3125 256.031 37.0938 256.031 43.7812V47.3438C256.031 54 252.969 57.8438 247.656 57.8438C242.5 57.8438 238.938 54.1562 238.938 48.8125Z" fill="white"/>
<path d="M296.719 59.3125V39.5938C296.719 32.7812 292.531 28.625 285.656 28.625C280.781 28.625 276.594 31.3125 275.469 35.1562H275.188V19.9062C275.188 18 274.156 16.9062 272.469 16.9062C270.812 16.9062 269.812 18 269.812 19.9062V59.3125C269.812 61.1875 270.781 62.3125 272.469 62.3125C274.156 62.3125 275.188 61.1875 275.188 59.3125V43.625C275.188 37.2812 278.594 33.375 283.938 33.375C288.594 33.375 291.312 36.1875 291.312 41.2188V59.3125C291.312 61.1875 292.281 62.3125 293.969 62.3125C295.656 62.3125 296.719 61.1562 296.719 59.3125Z" fill="white"/>
<path d="M304.469 48.2188C304.469 57.0938 309.906 62.5625 318.719 62.5625C323.125 62.5625 327.125 61.1875 329.188 58.9688C330.125 58 330.719 56.8125 330.719 55.8438C330.719 54.5312 329.812 53.5625 328.625 53.5625C327.719 53.5625 327.344 53.8125 325.656 55.375C323.906 57.0625 321.75 57.9062 318.969 57.9062C313.344 57.9062 309.938 54.3438 309.906 48.6562V46.9375H328.594C330.906 46.9375 331.531 45.9375 331.531 42.375C331.531 34.3125 326.031 28.5938 318.188 28.5938C310.094 28.5938 304.469 34.5312 304.469 43.0312V48.2188ZM309.906 42.5625V42.4688C309.906 36.9688 313.281 33.2188 318.25 33.2188C323.094 33.2188 326.188 36.8125 326.188 42.4688V42.5625H309.906Z" fill="white"/>
<path d="M345.031 59.3125V41.6562C345.031 36.25 347.531 33.6562 352.344 33.625C353.375 33.625 354.156 33.5 354.719 33.1875C355.438 32.7812 355.781 32.125 355.781 31.1562C355.781 30.3125 355.406 29.5938 354.719 29.1875C354.125 28.8125 353.344 28.625 352.406 28.625C349.406 28.625 346.875 30.0938 345.156 33.0312H345V31.7812C345 29.9688 344.031 28.8438 342.375 28.8438C340.719 28.8438 339.656 30 339.656 31.8438V59.3125C339.656 61.1875 340.656 62.3125 342.344 62.3125C344.062 62.3125 345.031 61.1875 345.031 59.3125Z" fill="white"/>
<defs>
<linearGradient id="paint0_linear_7093_650" x1="37.0001" y1="9" x2="37.0001" y2="71" gradientUnits="userSpaceOnUse">
<stop stop-color="#1ED9A3"/>
<stop offset="1" stop-color="#0DBD8B"/>
</linearGradient>
<linearGradient id="paint1_linear_7093_650" x1="17.8224" y1="27.7116" x2="19.3115" y2="55.8536" gradientUnits="userSpaceOnUse">
<stop stop-color="#B9B9B9"/>
<stop offset="0.956462" stop-color="#5B5151" stop-opacity="0"/>
</linearGradient>
</defs>
</svg>
