<svg width="374" height="82" viewBox="0 0 374 82" fill="none" xmlns="http://www.w3.org/2000/svg">
<path fill-rule="evenodd" clip-rule="evenodd" d="M54.5906 7H25.4095C18.6604 7 16.213 7.70273 13.7456 9.02228C11.2783 10.3419 9.34186 12.2783 8.02228 14.7456C6.70273 17.213 6 19.6604 6 26.4095V55.5906C6 62.3397 6.70273 64.7872 8.02228 67.2544C9.34186 69.722 11.2783 71.6582 13.7456 72.9779C16.213 74.2976 18.6604 75 25.4095 75H54.5906C61.3397 75 63.7872 74.2976 66.2544 72.9779C68.722 71.6582 70.6582 69.722 71.9779 67.2544C73.2976 64.7872 74 62.3397 74 55.5906V26.4095C74 19.6604 73.2976 17.213 71.9779 14.7456C70.6582 12.2783 68.722 10.3419 66.2544 9.02228C63.7872 7.70273 61.3397 7 54.5906 7Z" fill="url(#paint0_linear_7093_650)"/>
<path d="M20.5742 27.6581C20.5742 27.6581 37.009 27.6168 44.7246 27.6733C49.3777 27.7079 53.0977 29.6489 56.046 33.304C62.3743 41.1507 58.6822 54.0082 47.5551 56.4471C46.2601 56.7312 44.8879 56.7179 43.5504 56.7385C41.7781 56.7658 39.9767 56.8782 38.2379 56.6207C34.5143 56.07 31.1895 52.4709 31.0875 48.5579C31.0651 47.7157 31.2703 47.8135 30.6728 47.482C28.0512 46.0273 25.7908 42.6273 25.4544 39.7664C25.3348 38.7506 25.554 38.3918 25.0519 38.1362C22.8777 36.3409 21.0709 32.916 20.8304 30.1875L20.5742 27.6581ZM34.5288 48.3089C34.8196 50.9773 36.8117 53.5164 40.0714 53.5073H44.6014C48.9133 53.5091 53.1414 50.7733 54.9082 46.5518C57.9992 39.1659 52.5993 31.0126 44.5977 31.0035C42.5352 31.0011 40.4728 31.0047 38.4103 31.0029C34.3285 30.9986 30.2466 30.9926 26.1648 30.9877C25.5668 30.9865 24.9687 30.9877 24.3519 30.9877C24.7077 33.6761 26.5625 36.1806 29.9109 36.1235L44.5728 36.1047C47.6401 36.1096 50.3164 38.4659 50.6175 41.4051C50.9594 44.7444 48.9042 47.5834 45.6863 48.1911C45.2413 48.2749 44.7798 48.3029 44.3263 48.3041C41.0811 48.3138 37.8353 48.3095 34.5294 48.3095L34.5288 48.3089ZM28.8077 39.5885C28.8077 39.5885 29.6049 44.8191 34.3509 44.7996C34.3509 44.7996 43.6536 44.8087 44.6948 44.7589C45.7458 44.7086 46.5375 44.2064 46.9741 43.2296C47.3796 42.3219 47.277 41.4561 46.6717 40.6583C46.0184 39.7986 45.0913 39.6128 44.0895 39.6104L28.8077 39.5885Z" fill="white"/>
<path d="M20.5742 27.6581C20.5742 27.6581 37.009 27.6168 44.7246 27.6733C49.3777 27.7079 53.0977 29.6489 56.046 33.304C62.3743 41.1507 58.6822 54.0082 47.5551 56.4471C46.2601 56.7312 44.8879 56.7179 43.5504 56.7385C41.7781 56.7658 39.9767 56.8782 38.2379 56.6207C34.5143 56.07 31.1895 52.4709 31.0875 48.5579C31.0651 47.7157 31.2703 47.8135 30.6728 47.482C28.0512 46.0273 25.7908 42.6273 25.4544 39.7664C25.3348 38.7506 25.554 38.3918 25.0519 38.1362C22.8777 36.3409 21.0709 32.916 20.8304 30.1875L20.5742 27.6581ZM34.5288 48.3089C34.8196 50.9773 36.8117 53.5164 40.0714 53.5073H44.6014C48.9133 53.5091 53.1414 50.7733 54.9082 46.5518C57.9992 39.1659 52.5993 31.0126 44.5977 31.0035C42.5352 31.0011 40.4728 31.0047 38.4103 31.0029C34.3285 30.9986 30.2466 30.9926 26.1648 30.9877C25.5668 30.9865 24.9687 30.9877 24.3519 30.9877C24.7077 33.6761 26.5625 36.1806 29.9109 36.1235L44.5728 36.1047C47.6401 36.1096 50.3164 38.4659 50.6175 41.4051C50.9594 44.7444 48.9042 47.5834 45.6863 48.1911C45.2413 48.2749 44.7798 48.3029 44.3263 48.3041C41.0811 48.3138 37.8353 48.3095 34.5294 48.3095L34.5288 48.3089ZM28.8077 39.5885C28.8077 39.5885 29.6049 44.8191 34.3509 44.7996C34.3509 44.7996 43.6536 44.8087 44.6948 44.7589C45.7458 44.7086 46.5375 44.2064 46.9741 43.2296C47.3796 42.3219 47.277 41.4561 46.6717 40.6583C46.0184 39.7986 45.0913 39.6128 44.0895 39.6104L28.8077 39.5885Z" fill="url(#paint1_linear_7093_650)" fill-opacity="0.4"/>
<path d="M96.125 41.5116C96.125 44.1805 97.2832 45.2379 100.179 45.2379H107.153C117.073 45.2379 122.234 39.3715 122.234 28.0666C122.234 16.7366 117.073 10.8701 107.153 10.8701H100.179C97.2832 10.8701 96.125 11.9276 96.125 14.5965V41.5116ZM100.531 41.3102V14.7727H106.951C114.178 14.7727 117.753 19.1536 117.753 28.0666C117.753 36.9544 114.203 41.3102 106.951 41.3102H100.531Z" fill="white"/>
<path d="M127.32 34.1345C127.32 41.285 131.701 45.6911 138.802 45.6911C142.352 45.6911 145.574 44.5833 147.236 42.7957C147.991 42.0152 148.47 41.0584 148.47 40.2779C148.47 39.2204 147.74 38.4399 146.783 38.4399C146.053 38.4399 145.751 38.6413 144.391 39.9002C142.981 41.2598 141.244 41.9396 139.003 41.9396C134.471 41.9396 131.727 39.0694 131.701 34.487V33.1022H146.758C148.621 33.1022 149.124 32.2965 149.124 29.4262C149.124 22.9303 144.693 18.3228 138.373 18.3228C131.852 18.3228 127.32 23.1066 127.32 29.955V34.1345ZM131.701 29.5773V29.5018C131.701 25.0705 134.421 22.0491 138.424 22.0491C142.326 22.0491 144.819 24.9446 144.819 29.5018V29.5773H131.701Z" fill="white"/>
<path d="M154.613 34.2856C154.613 41.2095 158.642 45.6911 165.641 45.6911C167.555 45.6911 169.821 45.3387 171.885 44.1301C173.824 43.0223 175.259 41.3354 175.259 39.5981C175.259 38.1881 174.328 37.609 173.396 37.609C172.263 37.609 171.633 38.4903 171.18 39.0945C169.619 41.1843 167.655 41.8389 165.641 41.8389C161.159 41.8389 159.019 38.5658 159.019 34.059V29.9298C159.019 25.3726 161.235 22.175 165.616 22.175C167.958 22.175 169.77 23.0814 171.08 24.9194C171.583 25.6244 172.137 26.4049 173.32 26.4049C174.529 26.4049 175.184 25.5237 175.184 24.3907C175.184 22.603 173.572 20.9161 171.885 19.909C169.871 18.7004 167.529 18.3228 165.566 18.3228C158.642 18.3228 154.613 22.8548 154.613 29.7032V34.2856Z" fill="white"/>
<path d="M180.068 52.741C180.068 53.2445 180.219 53.6474 180.546 53.9747C181.075 54.4782 182.057 54.7804 183.24 54.7804C187.344 54.7804 189.963 52.6402 191.902 47.2018L200.815 22.3261C201.066 21.6714 201.167 21.1679 201.167 20.765C201.167 19.5817 200.261 18.7004 199.027 18.7004C197.995 18.7004 197.239 19.4054 196.786 20.8909L190.265 40.9325H190.064L183.543 20.8909C183.089 19.4054 182.334 18.7004 181.277 18.7004C179.993 18.7004 179.061 19.6069 179.061 20.7902C179.061 21.1931 179.162 21.7218 179.388 22.3261L187.898 45.6408C187.898 45.666 187.47 47.1515 187.47 47.1766C186.791 49.5685 185.204 51.1296 183.467 51.1296C182.913 51.1296 182.435 51.0792 182.082 51.0792C180.874 51.0792 180.068 51.7338 180.068 52.741Z" fill="white"/>
<path d="M211.188 52.4892V41.3354H211.415C212.623 44.1049 215.367 45.666 219.018 45.666C225.338 45.666 229.316 41.3102 229.316 34.3359V29.6528C229.316 22.7289 225.388 18.348 219.169 18.348C215.367 18.348 212.296 20.1104 211.213 22.9807H210.987V20.8909C210.987 19.3803 210.231 18.5242 208.922 18.5242C207.613 18.5242 206.857 19.4054 206.857 20.9413V52.4892C206.857 53.9998 207.663 54.9062 209.023 54.9062C210.382 54.9062 211.188 53.9998 211.188 52.4892ZM211.188 34.6129V29.8794C211.188 25.0453 213.832 22.1246 218.087 22.1246C222.493 22.1246 224.96 25.1712 224.96 30.5592V33.4295C224.96 38.7924 222.493 41.8893 218.213 41.8893C214.058 41.8893 211.188 38.9183 211.188 34.6129Z" fill="white"/>
<path d="M257.742 43.0726V27.1854C257.742 21.6966 254.368 18.348 248.829 18.348C244.901 18.348 241.527 20.5133 240.621 23.6101H240.394V11.3233C240.394 9.78748 239.563 8.90625 238.204 8.90625C236.869 8.90625 236.064 9.78748 236.064 11.3233V43.0726C236.064 44.5833 236.844 45.4897 238.204 45.4897C239.563 45.4897 240.394 44.5833 240.394 43.0726V30.4333C240.394 25.3222 243.139 22.175 247.444 22.175C251.196 22.175 253.386 24.441 253.386 28.4946V43.0726C253.386 44.5833 254.167 45.4897 255.526 45.4897C256.886 45.4897 257.742 44.5581 257.742 43.0726Z" fill="white"/>
<path d="M263.986 34.1345C263.986 41.285 268.367 45.6911 275.467 45.6911C279.017 45.6911 282.24 44.5833 283.902 42.7957C284.657 42.0152 285.135 41.0584 285.135 40.2779C285.135 39.2204 284.405 38.4399 283.448 38.4399C282.718 38.4399 282.416 38.6413 281.057 39.9002C279.647 41.2598 277.909 41.9396 275.669 41.9396C271.136 41.9396 268.392 39.0694 268.367 34.487V33.1022H283.423C285.286 33.1022 285.79 32.2965 285.79 29.4262C285.79 22.9303 281.359 18.3228 275.039 18.3228C268.518 18.3228 263.986 23.1066 263.986 29.955V34.1345ZM268.367 29.5773V29.5018C268.367 25.0705 271.086 22.0491 275.089 22.0491C278.992 22.0491 281.485 24.9446 281.485 29.5018V29.5773H268.367Z" fill="white"/>
<path d="M296.667 43.0726V28.8471C296.667 24.4914 298.681 22.4016 302.558 22.3764C303.389 22.3764 304.019 22.2757 304.472 22.0239C305.051 21.6966 305.328 21.1679 305.328 20.3874C305.328 19.7076 305.026 19.1285 304.472 18.8012C303.994 18.499 303.364 18.348 302.609 18.348C300.192 18.348 298.152 19.5313 296.768 21.898H296.642V20.8909C296.642 19.4306 295.861 18.5242 294.527 18.5242C293.192 18.5242 292.336 19.4558 292.336 20.9413V43.0726C292.336 44.5833 293.142 45.4897 294.502 45.4897C295.886 45.4897 296.667 44.5833 296.667 43.0726Z" fill="white"/>
<path d="M186.961 71.0781C187.383 71.0781 187.641 70.7891 187.641 70.3281V66.9531H190.141C192.195 66.9531 193.555 65.6484 193.555 63.6484C193.555 61.6641 192.195 60.3359 190.156 60.3359H187.555C186.633 60.3359 186.281 60.6641 186.281 61.5156V70.3281C186.281 70.7891 186.539 71.0781 186.961 71.0781ZM187.648 65.7578V61.5391H190.078C191.398 61.5391 192.156 62.3125 192.156 63.6484C192.156 65.2031 191.391 65.7578 189.273 65.7578H187.648Z" fill="#818181"/>
<path d="M198.367 62.6484C196.344 62.6484 194.836 63.9688 194.836 66.2656V67.5156C194.836 69.8203 196.344 71.1406 198.367 71.1406C200.383 71.1406 201.891 69.8203 201.891 67.5156V66.2656C201.891 63.9688 200.383 62.6484 198.367 62.6484ZM198.367 63.8203C199.695 63.8203 200.523 64.8359 200.523 66.3828V67.3984C200.523 68.9844 199.695 69.9766 198.367 69.9766C197.039 69.9766 196.195 68.9844 196.195 67.3984V66.3828C196.195 64.8359 197.039 63.8203 198.367 63.8203Z" fill="#818181"/>
<path d="M204.984 69.8125C205.273 70.8516 205.477 71.0781 206.023 71.0781C206.539 71.0781 206.727 70.8516 207.023 69.8125L208.5 64.6562H208.539L210.055 69.8125C210.352 70.8516 210.586 71.0781 211.094 71.0781C211.586 71.0781 211.789 70.8516 212.07 69.8125L213.672 63.7891C213.727 63.5938 213.75 63.4844 213.75 63.3828C213.75 63.0078 213.492 62.75 213.109 62.75C212.781 62.75 212.547 63.0078 212.43 63.4844L211.078 69.3359H211.016L209.492 63.9688C209.203 62.9531 209.031 62.75 208.516 62.75C208 62.75 207.82 62.9609 207.547 63.9688L206.055 69.3359H206L204.695 63.5156C204.578 63.0234 204.32 62.75 203.977 62.75C203.555 62.75 203.266 63.0391 203.266 63.4531C203.266 63.5703 203.289 63.7109 203.328 63.8828L204.984 69.8125Z" fill="#818181"/>
<path d="M215.102 67.5547C215.102 69.7734 216.461 71.1406 218.664 71.1406C219.766 71.1406 220.766 70.7969 221.281 70.2422C221.516 70 221.664 69.7031 221.664 69.4609C221.664 69.1328 221.438 68.8906 221.141 68.8906C220.914 68.8906 220.82 68.9531 220.398 69.3438C219.961 69.7656 219.422 69.9766 218.727 69.9766C217.32 69.9766 216.469 69.0859 216.461 67.6641V67.2344H221.133C221.711 67.2344 221.867 66.9844 221.867 66.0938C221.867 64.0781 220.492 62.6484 218.531 62.6484C216.508 62.6484 215.102 64.1328 215.102 66.2578V67.5547ZM216.461 66.1406V66.1172C216.461 64.7422 217.305 63.8047 218.547 63.8047C219.758 63.8047 220.531 64.7031 220.531 66.1172V66.1406H216.461Z" fill="#818181"/>
<path d="M225.242 70.3281V65.9141C225.242 64.5625 225.867 63.9141 227.07 63.9062C227.328 63.9062 227.523 63.875 227.664 63.7969C227.844 63.6953 227.93 63.5312 227.93 63.2891C227.93 63.0781 227.836 62.8984 227.664 62.7969C227.516 62.7031 227.32 62.6562 227.086 62.6562C226.336 62.6562 225.703 63.0234 225.273 63.7578H225.234V63.4453C225.234 62.9922 224.992 62.7109 224.578 62.7109C224.164 62.7109 223.898 63 223.898 63.4609V70.3281C223.898 70.7969 224.148 71.0781 224.57 71.0781C225 71.0781 225.242 70.7969 225.242 70.3281Z" fill="#818181"/>
<path d="M228.977 67.5547C228.977 69.7734 230.336 71.1406 232.539 71.1406C233.641 71.1406 234.641 70.7969 235.156 70.2422C235.391 70 235.539 69.7031 235.539 69.4609C235.539 69.1328 235.312 68.8906 235.016 68.8906C234.789 68.8906 234.695 68.9531 234.273 69.3438C233.836 69.7656 233.297 69.9766 232.602 69.9766C231.195 69.9766 230.344 69.0859 230.336 67.6641V67.2344H235.008C235.586 67.2344 235.742 66.9844 235.742 66.0938C235.742 64.0781 234.367 62.6484 232.406 62.6484C230.383 62.6484 228.977 64.1328 228.977 66.2578V67.5547ZM230.336 66.1406V66.1172C230.336 64.7422 231.18 63.8047 232.422 63.8047C233.633 63.8047 234.406 64.7031 234.406 66.1172V66.1406H230.336Z" fill="#818181"/>
<path d="M243.086 69.7031H243.156V70.3438C243.164 70.8125 243.391 71.0781 243.797 71.0781C244.211 71.0781 244.438 70.8047 244.438 70.3281V60.4766C244.438 60 244.188 59.7266 243.766 59.7266C243.344 59.7266 243.094 60 243.094 60.4766V64H243.031C242.703 63.1641 241.797 62.6562 240.648 62.6562C238.719 62.6562 237.445 64.0078 237.445 66.0781V67.7188C237.445 69.7812 238.688 71.1328 240.609 71.1328C241.82 71.1328 242.852 70.5312 243.086 69.7031ZM238.812 67.4141V66.375C238.812 64.7891 239.578 63.8281 240.883 63.8281C242.164 63.8281 243.094 64.7734 243.094 66.0781V67.5547C243.094 69.0312 242.25 69.9609 240.93 69.9609C239.594 69.9609 238.812 69.0156 238.812 67.4141Z" fill="#818181"/>
<path d="M253.906 71.1328C255.867 71.1328 257.102 69.7812 257.102 67.6172V66.1641C257.102 64.0078 255.883 62.6562 253.953 62.6562C252.758 62.6562 251.773 63.2344 251.523 64.0859H251.453V60.4766C251.453 60.0078 251.203 59.7266 250.781 59.7266C250.359 59.7266 250.109 60.0078 250.109 60.4766V70.3281C250.109 70.8047 250.344 71.0781 250.75 71.0781C251.164 71.0781 251.398 70.8125 251.398 70.3438V69.7891H251.469C251.836 70.625 252.75 71.1328 253.906 71.1328ZM251.453 67.6719V66.2891C251.453 64.7812 252.297 63.8281 253.633 63.8281C254.969 63.8281 255.734 64.8203 255.734 66.5V67.3516C255.734 69.0078 254.984 69.9609 253.664 69.9609C252.375 69.9609 251.453 69 251.453 67.6719Z" fill="#818181"/>
<path d="M258.656 73.3281C258.656 73.4844 258.703 73.6094 258.805 73.7109C258.969 73.8672 259.273 73.9609 259.641 73.9609C260.914 73.9609 261.727 73.2969 262.328 71.6094L265.094 63.8906C265.172 63.6875 265.203 63.5312 265.203 63.4062C265.203 63.0391 264.922 62.7656 264.539 62.7656C264.219 62.7656 263.984 62.9844 263.844 63.4453L261.82 69.6641H261.758L259.734 63.4453C259.594 62.9844 259.359 62.7656 259.031 62.7656C258.633 62.7656 258.344 63.0469 258.344 63.4141C258.344 63.5391 258.375 63.7031 258.445 63.8906L261.086 71.125C261.086 71.1328 260.953 71.5938 260.953 71.6016C260.742 72.3438 260.25 72.8281 259.711 72.8281C259.539 72.8281 259.391 72.8125 259.281 72.8125C258.906 72.8125 258.656 73.0156 258.656 73.3281Z" fill="#818181"/>
<path d="M270 69.8438C270 70.6719 270.359 71 271.258 71H273.422C276.5 71 278.102 69.1797 278.102 65.6719C278.102 62.1562 276.5 60.3359 273.422 60.3359H271.258C270.359 60.3359 270 60.6641 270 61.4922V69.8438ZM271.367 69.7812V61.5469H273.359C275.602 61.5469 276.711 62.9062 276.711 65.6719C276.711 68.4297 275.609 69.7812 273.359 69.7812H271.367Z" fill="#818181"/>
<path d="M279.898 60.7344C279.898 61.2266 280.281 61.5938 280.75 61.5938C281.258 61.5938 281.633 61.2266 281.633 60.7344C281.633 60.2422 281.258 59.8906 280.75 59.8906C280.281 59.8906 279.898 60.2422 279.898 60.7344ZM281.43 70.3281V63.4609C281.43 62.9609 281.148 62.7109 280.766 62.7109C280.383 62.7109 280.086 62.9531 280.086 63.4609V70.3281C280.086 70.8281 280.375 71.0781 280.758 71.0781C281.141 71.0781 281.43 70.8359 281.43 70.3281Z" fill="#818181"/>
<path d="M283.805 60.7344C283.805 61.2188 284.18 61.5938 284.656 61.5938C285.164 61.5938 285.539 61.2266 285.539 60.7344C285.539 60.2422 285.164 59.8906 284.656 59.8906C284.172 59.8906 283.805 60.2578 283.805 60.7344ZM283.203 73.8672C284.578 73.8672 285.336 73.0469 285.336 71.5547V63.4609C285.336 63 285.086 62.7109 284.672 62.7109C284.25 62.7109 283.992 62.9922 283.992 63.4609V71.1719C283.992 72.3281 283.75 72.7656 283.125 72.7656C283.039 72.7656 282.844 72.7578 282.766 72.7578C282.391 72.7578 282.172 72.9531 282.172 73.2734C282.172 73.4609 282.25 73.6016 282.422 73.7031C282.586 73.8125 282.852 73.8672 283.203 73.8672Z" fill="#818181"/>
<path d="M287.492 67.5547C287.492 69.7734 288.852 71.1406 291.055 71.1406C292.156 71.1406 293.156 70.7969 293.672 70.2422C293.906 70 294.055 69.7031 294.055 69.4609C294.055 69.1328 293.828 68.8906 293.531 68.8906C293.305 68.8906 293.211 68.9531 292.789 69.3438C292.352 69.7656 291.812 69.9766 291.117 69.9766C289.711 69.9766 288.859 69.0859 288.852 67.6641V67.2344H293.523C294.102 67.2344 294.258 66.9844 294.258 66.0938C294.258 64.0781 292.883 62.6484 290.922 62.6484C288.898 62.6484 287.492 64.1328 287.492 66.2578V67.5547ZM288.852 66.1406V66.1172C288.852 64.7422 289.695 63.8047 290.938 63.8047C292.148 63.8047 292.922 64.7031 292.922 66.1172V66.1406H288.852Z" fill="#818181"/>
<path d="M296.797 68.8203C296.797 70.5312 297.367 71.125 298.852 71.125C299.297 71.125 299.602 71.0703 299.82 70.9609C300.062 70.8438 300.164 70.6641 300.164 70.4453C300.164 70.1406 299.953 69.9453 299.648 69.9453C299.5 69.9453 299.344 69.9688 299.125 69.9688C298.367 69.9688 298.148 69.7109 298.148 68.8359V63.9297H299.242C299.625 63.9297 299.867 63.7188 299.867 63.3672C299.867 63.0156 299.633 62.7969 299.242 62.7969H298.141V61.4453C298.141 60.9766 297.891 60.7031 297.469 60.7031C297.055 60.7031 296.805 60.9766 296.805 61.4453V62.7969H296.203C295.812 62.7969 295.578 63.0156 295.578 63.3672C295.578 63.7188 295.82 63.9297 296.203 63.9297H296.797V68.8203Z" fill="#818181"/>
<path d="M301.211 69.3281C301.211 69.8047 301.539 70.2656 302.125 70.6016C302.734 70.9453 303.523 71.1406 304.359 71.1406C306.281 71.1406 307.469 70.1953 307.469 68.6953C307.469 67.5312 306.805 66.8359 305.375 66.4922L303.852 66.125C303.031 65.9219 302.648 65.5625 302.648 64.9688C302.648 64.2109 303.266 63.75 304.273 63.75C304.992 63.75 305.469 63.9766 306.016 64.5625C306.344 64.8984 306.469 64.9766 306.711 64.9766C307.055 64.9766 307.281 64.7656 307.281 64.4219C307.281 64.0156 306.977 63.5703 306.484 63.2422C305.906 62.8594 305.148 62.6484 304.328 62.6484C302.5 62.6484 301.328 63.5938 301.328 65.0547C301.328 66.2109 302.016 66.9297 303.445 67.2578L305.008 67.6172C305.727 67.7891 306.148 68.2266 306.148 68.8047C306.148 69.5625 305.484 70.0391 304.43 70.0391C303.594 70.0391 302.953 69.75 302.453 69.1719C302.18 68.8359 302.016 68.7266 301.797 68.7266C301.438 68.7266 301.211 68.9531 301.211 69.3281Z" fill="#818181"/>
<line x1="98" y1="66.5" x2="171" y2="66.5" stroke="#818181"/>
<defs>
<linearGradient id="paint0_linear_7093_650" x1="40.0001" y1="7" x2="40.0001" y2="75" gradientUnits="userSpaceOnUse">
<stop stop-color="#1ED9A3"/>
<stop offset="1" stop-color="#0DBD8B"/>
</linearGradient>
<linearGradient id="paint1_linear_7093_650" x1="18.9677" y1="27.5227" x2="20.6009" y2="58.3881" gradientUnits="userSpaceOnUse">
<stop stop-color="#B9B9B9"/>
<stop offset="0.956462" stop-color="#5B5151" stop-opacity="0"/>
</linearGradient>
</defs>
</svg>
