<svg width="300" height="300" viewBox="0 0 300 300" fill="none" xmlns="http://www.w3.org/2000/svg">
<path d="M254.19 45L166.644 110.022L182.833 71.6599L254.19 45Z" fill="#E2761B" stroke="#E2761B" stroke-linecap="round" stroke-linejoin="round"/>
<path d="M52.0859 45L138.928 110.638L123.531 71.6599L52.0859 45Z" fill="#E4761B" stroke="#E4761B" stroke-linecap="round" stroke-linejoin="round"/>
<path d="M222.69 195.721L199.374 231.443L249.262 245.169L263.604 196.513L222.69 195.721Z" fill="#E4761B" stroke="#E4761B" stroke-linecap="round" stroke-linejoin="round"/>
<path d="M42.8477 196.513L57.1014 245.169L106.99 231.443L83.6733 195.721L42.8477 196.513Z" fill="#E4761B" stroke="#E4761B" stroke-linecap="round" stroke-linejoin="round"/>
<path d="M104.173 135.363L90.2715 156.391L139.808 158.591L138.048 105.359L104.173 135.363Z" fill="#E4761B" stroke="#E4761B" stroke-linecap="round" stroke-linejoin="round"/>
<path d="M202.102 135.362L167.787 104.743L166.644 158.59L216.092 156.391L202.102 135.362Z" fill="#E4761B" stroke="#E4761B" stroke-linecap="round" stroke-linejoin="round"/>
<path d="M106.99 231.444L136.73 216.926L111.038 196.865L106.99 231.444Z" fill="#E4761B" stroke="#E4761B" stroke-linecap="round" stroke-linejoin="round"/>
<path d="M169.549 216.926L199.376 231.444L195.241 196.865L169.549 216.926Z" fill="#E4761B" stroke="#E4761B" stroke-linecap="round" stroke-linejoin="round"/>
<path d="M199.377 231.443L169.55 216.925L171.925 236.37L171.661 244.553L199.377 231.443Z" fill="#D7C1B3" stroke="#D7C1B3" stroke-linecap="round" stroke-linejoin="round"/>
<path d="M106.991 231.443L134.707 244.553L134.531 236.37L136.731 216.925L106.991 231.443Z" fill="#D7C1B3" stroke="#D7C1B3" stroke-linecap="round" stroke-linejoin="round"/>
<path d="M135.146 184.018L110.334 176.715L127.843 168.708L135.146 184.018Z" fill="#233447" stroke="#233447" stroke-linecap="round" stroke-linejoin="round"/>
<path d="M171.132 184.018L178.435 168.708L196.032 176.715L171.132 184.018Z" fill="#233447" stroke="#233447" stroke-linecap="round" stroke-linejoin="round"/>
<path d="M106.989 231.443L111.213 195.721L83.6729 196.513L106.989 231.443Z" fill="#CD6116" stroke="#CD6116" stroke-linecap="round" stroke-linejoin="round"/>
<path d="M195.151 195.721L199.375 231.443L222.691 196.513L195.151 195.721Z" fill="#CD6116" stroke="#CD6116" stroke-linecap="round" stroke-linejoin="round"/>
<path d="M216.093 156.391L166.645 158.591L171.22 184.019L178.523 168.709L196.12 176.716L216.093 156.391Z" fill="#CD6116" stroke="#CD6116" stroke-linecap="round" stroke-linejoin="round"/>
<path d="M110.332 176.716L127.93 168.709L135.145 184.019L139.808 158.591L90.2715 156.391L110.332 176.716Z" fill="#CD6116" stroke="#CD6116" stroke-linecap="round" stroke-linejoin="round"/>
<path d="M90.2715 156.391L111.036 196.865L110.332 176.716L90.2715 156.391Z" fill="#E4751F" stroke="#E4751F" stroke-linecap="round" stroke-linejoin="round"/>
<path d="M196.119 176.716L195.239 196.865L216.092 156.391L196.119 176.716Z" fill="#E4751F" stroke="#E4751F" stroke-linecap="round" stroke-linejoin="round"/>
<path d="M139.807 158.591L135.144 184.019L140.951 214.022L142.27 174.516L139.807 158.591Z" fill="#E4751F" stroke="#E4751F" stroke-linecap="round" stroke-linejoin="round"/>
<path d="M166.644 158.591L164.269 174.428L165.324 214.022L171.219 184.019L166.644 158.591Z" fill="#E4751F" stroke="#E4751F" stroke-linecap="round" stroke-linejoin="round"/>
<path d="M171.219 184.019L165.324 214.022L169.548 216.926L195.24 196.865L196.119 176.716L171.219 184.019Z" fill="#F6851B" stroke="#F6851B" stroke-linecap="round" stroke-linejoin="round"/>
<path d="M110.334 176.716L111.038 196.865L136.73 216.926L140.953 214.022L135.146 184.019L110.334 176.716Z" fill="#F6851B" stroke="#F6851B" stroke-linecap="round" stroke-linejoin="round"/>
<path d="M171.66 244.553L171.924 236.371L169.724 234.435H136.554L134.53 236.371L134.706 244.553L106.99 231.443L116.669 239.362L136.29 253H169.988L189.697 239.362L199.376 231.443L171.66 244.553Z" fill="#C0AD9E" stroke="#C0AD9E" stroke-linecap="round" stroke-linejoin="round"/>
<path d="M169.547 216.925L165.324 214.021H140.951L136.728 216.925L134.528 236.37L136.552 234.434H169.723L171.923 236.37L169.547 216.925Z" fill="#161616" stroke="#161616" stroke-linecap="round" stroke-linejoin="round"/>
<path d="M257.887 114.245L265.366 78.3468L254.192 45L169.549 107.822L202.104 135.362L248.121 148.824L258.327 136.946L253.928 133.778L260.967 127.355L255.511 123.132L262.55 117.765L257.887 114.245Z" fill="#763D16" stroke="#763D16" stroke-linecap="round" stroke-linejoin="round"/>
<path d="M41 78.3468L48.4788 114.245L43.7276 117.765L50.7665 123.132L45.3993 127.355L52.4382 133.778L48.0389 136.946L58.1573 148.824L104.174 135.362L136.729 107.822L52.0863 45L41 78.3468Z" fill="#763D16" stroke="#763D16" stroke-linecap="round" stroke-linejoin="round"/>
<path d="M248.119 148.824L202.102 135.362L216.092 156.391L195.239 196.864L222.691 196.512H263.605L248.119 148.824Z" fill="#F6851B" stroke="#F6851B" stroke-linecap="round" stroke-linejoin="round"/>
<path d="M104.174 135.362L58.1573 148.824L42.8477 196.512H83.6733L111.037 196.864L90.2723 156.391L104.174 135.362Z" fill="#F6851B" stroke="#F6851B" stroke-linecap="round" stroke-linejoin="round"/>
<path d="M166.645 158.59L169.548 107.822L182.922 71.6597H123.531L136.729 107.822L139.809 158.59L140.865 174.604L140.953 214.022H165.325L165.501 174.604L166.645 158.59Z" fill="#F6851B" stroke="#F6851B" stroke-linecap="round" stroke-linejoin="round"/>
</svg>
