<svg width="20" height="20" viewBox="0 0 20 20" fill="none" xmlns="http://www.w3.org/2000/svg">
<g clip-path="url(#clip0_412_285)">
<path d="M9.16675 2.14785C9.68242 1.85013 10.3177 1.85013 10.8334 2.14785L16.3836 5.35227C16.8993 5.64999 17.217 6.2002 17.217 6.79564V13.2045C17.217 13.7999 16.8993 14.3501 16.3836 14.6479L10.8334 17.8523C10.3177 18.15 9.68242 18.15 9.16675 17.8523L3.61654 14.6479C3.10087 14.3501 2.7832 13.7999 2.7832 13.2045V6.79564C2.7832 6.2002 3.10087 5.64999 3.61654 5.35227L9.16675 2.14785Z" stroke="#789594" stroke-width="1.5"/>
<path d="M13.3149 10.0001C13.3149 11.8308 11.8308 13.3149 10.0001 13.3149C8.16936 13.3149 6.68526 11.8308 6.68526 10.0001C6.68526 8.16934 8.16936 6.68524 10.0001 6.68524C11.8308 6.68524 13.3149 8.16934 13.3149 10.0001Z" stroke="#789594" stroke-width="1.5"/>
</g>
<defs>
<clipPath id="clip0_412_285">
<rect width="20" height="20" fill="white"/>
</clipPath>
</defs>
</svg>
