<svg width="12" height="12" viewBox="0 0 12 12" fill="none" xmlns="http://www.w3.org/2000/svg">
<g clip-path="url(#clip0_414_371)">
<path fill-rule="evenodd" clip-rule="evenodd" d="M6.95438 10.5401L11.5112 4.63236C12.6513 3.15418 11.6144 1.00905 9.74774 0.984368L9.72855 2.43542C10.3993 2.44429 10.7718 3.21491 10.3621 3.74605L5.80531 9.65377C5.37446 10.2123 4.48551 9.99613 4.35978 9.30218L4.00075 6.19464C3.98786 6.0831 3.93764 5.9792 3.85823 5.89982L1.64587 3.688C1.18014 3.1584 1.56289 2.32745 2.26827 2.33677L9.72855 2.43542L9.74774 0.984368L2.28745 0.885719C0.326022 0.859783 -0.741006 3.17131 0.556132 4.64633L2.42682 6.77353L2.93185 9.5609C3.28203 11.4937 5.75632 12.0933 6.95438 10.5401Z" fill="#667C7A"/>
<path fill-rule="evenodd" clip-rule="evenodd" d="M4.94193 5.54246C4.85202 5.34067 4.94272 5.1042 5.14451 5.01429L8.06752 3.71198C8.26931 3.62208 8.50578 3.71278 8.59569 3.91457C8.68559 4.11636 8.59489 4.35283 8.3931 4.44274L5.47009 5.74505C5.2683 5.83495 5.03183 5.74425 4.94193 5.54246Z" fill="#667C7A" fill-opacity="0.36"/>
</g>
<defs>
<clipPath id="clip0_414_371">
<rect width="12" height="12" fill="white"/>
</clipPath>
</defs>
</svg>
