<svg width="1280" height="520" viewBox="0 0 1280 520" fill="none" xmlns="http://www.w3.org/2000/svg">
<g clip-path="url(#clip0_7096_854)">
<path d="M1189.14 441.499H1199.45M1194.29 436.327V446.67" stroke="#19524F" stroke-width="2"/>
<path d="M1175.91 463.821H1186.22M1181.06 458.65V468.993" stroke="#19524F" stroke-width="2"/>
<path d="M1266.27 155.99C1266.27 155.99 1269.87 158.36 1270.13 158.51C1270.39 158.66 1271.04 159.215 1270.72 160.527C1270.4 161.84 1260.17 195.712 1259.71 197.367C1259.26 199.022 1258.59 199.84 1256.67 200.27C1254.76 200.702 1222.62 207.814 1221.77 208.024C1220.92 208.232 1219.56 208.117 1218.95 207.269C1218.68 206.893 1214.71 202.158 1210.32 196.949M1207.08 193.107C1202.61 187.811 1198.55 183.008 1198.35 182.784C1197.91 182.285 1197.61 181.486 1197.94 180.072C1198 179.846 1198.22 178.74 1198.56 177.035M1199.88 170.445C1202.11 159.257 1205.46 142.308 1205.52 141.942C1205.61 141.407 1206.11 140.598 1207.39 140.585C1208.68 140.572 1225.05 140.855 1225.05 140.855M1208.07 142.255C1208.07 142.255 1230.33 160.079 1231.06 160.684C1231.78 161.288 1232.26 161.395 1233.87 161.438C1235.48 161.481 1268.44 159.172 1268.44 159.172M1232.37 161.409L1226.61 182.919M1224 192.634L1219.91 207.899" stroke="#19524F" stroke-width="2" stroke-linecap="round"/>
<path d="M1266.21 348.483V358.826M1257.17 439.087H1246.86M1252.02 444.259V433.916M1257.17 467.565H1246.86M1252.02 472.736V462.394M1257.17 453.326H1246.86M1252.02 458.498V448.155M1257.17 481.804H1246.86M1252.02 486.975V476.632M1242.98 439.087H1232.67M1237.83 444.259V433.916M1242.98 467.565H1232.67M1237.83 472.736V462.394M1242.98 453.326H1232.67M1237.83 458.498V448.155M1242.98 481.804H1232.67M1237.83 486.975V476.632M1228.79 467.565H1218.48M1223.64 472.736V462.394M1228.79 481.804H1218.48M1223.64 486.975V476.632M1271.36 382.132H1261.06M1266.21 387.303V376.961M1271.36 410.61H1261.06M1266.21 415.781V405.438M1271.36 396.371H1261.06M1266.21 401.542V391.199M1271.36 424.848H1261.06M1266.21 430.02V419.677M1257.17 410.61H1246.86M1252.02 415.781V405.438M1257.17 424.848H1246.86M1252.02 430.02V419.677M1271.36 496.043H1261.06M1266.21 501.214V490.871M1271.36 510.281H1261.06M1266.21 515.453V505.11M1257.17 496.043H1246.86M1252.02 501.214V490.871M1257.17 510.281H1246.86M1252.02 515.453V505.11M1242.98 496.043H1232.67M1237.83 501.214V490.871M1242.98 510.281H1232.67M1237.83 515.453V505.11M1228.79 496.043H1218.48M1223.64 501.214V490.871M1228.79 510.281H1218.48M1223.64 515.453V505.11M1214.6 496.043H1204.29M1209.44 501.214V490.871M1246.19 367.215H1256.5M1251.34 362.044V372.387M1246.87 396.371H1257.17M1252.02 391.199V401.542M1246.87 382.132H1257.17M1252.02 376.961V387.303M1246.19 352.977H1256.5M1251.34 347.805V358.148M1261.06 367.893H1271.37M1266.21 362.722V373.065M1261.06 353.655H1271.37M1209.44 510.281L1214.6 510.281H1204.29L1209.44 510.281ZM1209.44 510.281V515.453V505.11V510.281ZM1195.25 510.281L1200.41 510.281H1190.1L1195.25 510.281ZM1195.25 510.281V515.453V505.11V510.281ZM1181.06 510.281L1186.22 510.281H1175.91L1181.06 510.281ZM1181.06 510.281V515.453V505.11V510.281ZM1170.12 510.281H1164.97M1164.97 510.281H1159.81M1164.97 510.281V515.453M1164.97 510.281V505.11M1155.93 510.281H1150.78M1150.78 510.281H1145.62M1150.78 510.281V515.453M1150.78 510.281V505.11M1141.74 510.281H1136.58M1136.58 510.281H1131.43M1136.58 510.281V515.453M1136.58 510.281V505.11M1272.19 238.966H1261.88M1267.04 244.137V233.794M1272.19 267.443H1261.88M1267.04 272.615V262.272M1272.19 253.205H1261.88M1267.04 258.376V248.033M1272.19 281.682H1261.88M1267.04 286.853V276.511M1255.88 238.966H1250.73M1250.73 238.966H1245.58M1250.73 238.966V244.137M1250.73 238.966V233.794M1256.3 253.205H1251.14M1251.14 253.205H1245.99M1251.14 253.205V258.376M1251.14 253.205V248.033M1239.98 253.205H1234.83M1234.83 253.205H1229.67M1234.83 253.205V258.376M1234.83 253.205V248.033M1272.19 221.337H1267.04M1267.04 221.337H1261.88M1267.04 221.337V226.509M1267.04 221.337V216.166M1272.19 135.557H1267.04M1267.04 135.557H1261.88M1267.04 135.557V140.729M1267.04 135.557V130.386M1272.19 118.195H1267.04M1267.04 118.195H1261.88M1267.04 118.195V123.367M1267.04 118.195V113.024M1255.88 118.195H1250.73M1250.73 118.195H1245.58M1250.73 118.195V123.367M1250.73 118.195V113.024M1272.19 100.833H1267.04M1267.04 100.833H1261.88M1267.04 100.833V106.005M1267.04 100.833V95.662" stroke="#19524F" stroke-width="2"/>
<path d="M1246.18 346.737H1256.49M1251.34 341.566V351.909" stroke="#19524F" stroke-width="2"/>
<path d="M1245.36 330.202H1255.66M1250.51 325.03V335.373" stroke="#19524F" stroke-width="2"/>
<path d="M1231.3 375.674H1241.61M1236.45 370.502V380.845" stroke="#19524F" stroke-width="2"/>
<path d="M1231.3 390.556H1241.61M1236.45 385.384V395.727" stroke="#19524F" stroke-width="2"/>
<path d="M1231.3 404.61H1241.61M1236.45 399.439V409.782" stroke="#19524F" stroke-width="2"/>
<path d="M1215.59 404.61H1225.9M1220.75 399.439V409.782" stroke="#19524F" stroke-width="2"/>
<path d="M1232.96 432.72H1243.26M1238.11 427.548V437.891" stroke="#19524F" stroke-width="2"/>
<path d="M1215.59 446.775H1225.9M1220.75 441.604V451.946" stroke="#19524F" stroke-width="2"/>
<path d="M1261.06 346.737H1271.37M1266.22 341.566V351.909" stroke="#19524F" stroke-width="2"/>
<path d="M1261.06 330.202H1271.37M1266.22 325.03V335.373" stroke="#19524F" stroke-width="2"/>
<path d="M968.683 495.868H958.247M963.465 501.086V490.65M968.683 510.235H958.247M963.465 515.453V505.017M954.316 495.868H943.881M949.098 501.086V490.65M954.316 510.235H943.881M949.098 515.453V505.017M939.949 495.868H929.514M934.731 501.086V490.65M939.949 510.235H929.514M934.731 515.453V505.017M925.583 495.868H915.147M920.365 501.086V490.65M925.583 510.235H915.147M920.365 515.453V505.017M911.216 495.868H900.78M905.998 501.086V490.65M911.216 510.235H900.78M905.998 515.453V505.017M896.849 510.235H886.414M891.631 515.453V505.017M882.483 510.235H872.047M877.265 515.453V505.017" stroke="#19524F" stroke-width="2"/>
<path d="M217.773 494.369H206.413M212.093 500.049V488.689M217.773 510.009H206.413M212.093 515.689V504.329M202.134 494.369H190.774M196.454 500.049V488.689M202.134 510.009H190.774M196.454 515.689V504.329M186.495 494.369H175.134M180.814 500.049V488.689M186.495 510.009H175.134M180.814 515.689V504.329M170.855 494.369H159.495M165.175 500.049V488.689M170.855 510.009H159.495M165.175 515.689V504.329M155.216 494.369H143.855M149.536 500.049V488.689M155.216 510.009H143.855M149.536 515.689V504.329M139.576 510.009H128.216M133.896 515.689V504.329M123.937 510.009H112.577M118.257 515.689V504.329M106.807 510.009H101.126M101.126 510.009H95.4462M101.126 510.009V515.689M101.126 510.009V504.329M91.1676 510.009H85.4874M85.4874 510.009H79.8073M85.4874 510.009V515.689M85.4874 510.009V504.329M75.5278 510.009H69.8477M69.8477 510.009H64.1676M69.8477 510.009V515.689M69.8477 510.009V504.329M59.8884 510.009H54.2082M54.2082 510.009H48.5281M54.2082 510.009V515.689M54.2082 510.009V504.329M44.2489 510.009H38.5688M38.5688 510.009H32.8887M38.5688 510.009V515.689M38.5688 510.009V504.329" stroke="#19524F" stroke-width="2"/>
<path d="M545 507.289H556.58M550.79 501.499V513.079" stroke="#19524F" stroke-width="2"/>
<path d="M332.436 501.215H344.016M338.226 495.425V507.006" stroke="#19524F" stroke-width="2"/>
<path d="M365 500.79H376.58M370.79 495V506.58" stroke="#19524F" stroke-width="2"/>
<path d="M395 500.79H406.58M400.79 495V506.58" stroke="#19524F" stroke-width="2"/>
<path d="M407 488.79H418.58M412.79 483V494.58" stroke="#19524F" stroke-width="2"/>
<path d="M705.941 508.808H717.521M711.731 503.018V514.598" stroke="#19524F" stroke-width="2"/>
<path d="M716.129 492.865H727.709M721.919 487.075V498.655" stroke="#19524F" stroke-width="2"/>
<path d="M725.68 509.285H737.26M731.47 503.495V515.075" stroke="#19524F" stroke-width="2"/>
<path d="M110.03 400.21V388.974M57.2674 394.592H68.5079H57.2674ZM62.8877 400.21V388.974V400.21ZM57.2674 425.53H68.5079H57.2674ZM62.8877 431.148V419.911V431.148ZM57.2674 410.061H68.5079H57.2674ZM62.8877 415.679V404.443V415.679ZM57.2674 440.998H68.5079H57.2674ZM62.8877 446.616V435.38V446.616ZM72.736 394.592H83.9765H72.736ZM78.3563 400.21V388.974V400.21ZM72.736 410.061H83.9765H72.736ZM78.3563 415.679V404.443V415.679ZM41.7988 332.718H53.0393H41.7988ZM47.4191 338.336V327.1V338.336ZM41.7988 348.187H53.0393H41.7988ZM47.4191 353.805V342.568V353.805ZM57.2674 363.655H68.5079H57.2674ZM62.8877 369.273V358.037V369.273ZM57.2674 348.187H68.5079H57.2674ZM62.8877 353.805V342.568V353.805ZM57.2674 379.124H68.5079H57.2674ZM62.8877 384.742V373.506V384.742ZM72.736 332.718H83.9765H72.736ZM78.3563 338.336V327.1V338.336ZM72.736 363.655H83.9765H72.736ZM78.3563 369.273V358.037V369.273ZM72.736 348.187H83.9765H72.736ZM78.3563 353.805V342.568V353.805ZM72.736 379.124H83.9765H72.736ZM78.3563 384.742V373.506V384.742ZM88.2046 363.655H99.4451H88.2046ZM93.8249 369.273V358.037V369.273ZM88.2046 379.124H99.4451H88.2046ZM93.8249 384.742V373.506V384.742ZM41.7988 456.467H53.0393H41.7988ZM47.4191 462.085V450.849V462.085ZM41.7988 471.935H53.0393H41.7988ZM47.4191 477.553V466.317V477.553ZM57.2674 471.935H68.5079H57.2674ZM62.8877 477.553V466.317V477.553ZM72.736 471.935H83.9765H72.736ZM78.3563 477.553V466.317V477.553ZM103.673 363.655H114.914H103.673ZM109.293 369.273V358.037V369.273ZM41.7988 301.044H53.0393H41.7988ZM47.4191 306.662V295.426V306.662ZM58.004 285.576H69.2445H58.004ZM63.6243 291.194V279.958V291.194ZM88.9412 394.592H100.182H88.9412ZM94.5615 400.21V388.974V400.21ZM104.41 394.592H115.65H104.41Z" stroke="#19524F" stroke-width="2"/>
<path d="M104.726 274.507C104.726 274.507 109.289 266.538 114.206 257.583C119.122 248.627 121.6 235.156 119.965 224.551C118.319 213.944 106.508 163.13 106.302 162.187C106.204 161.737 106.224 161.268 106.361 160.83C106.508 160.393 106.772 160.004 107.135 159.709C107.879 159.085 112.639 155.62 113.315 155.171C114 154.721 113.912 154.229 112.492 153.518C111.072 152.807 80.985 138.525 79.4768 137.806C77.9587 137.088 75.9313 137.813 75.3535 141.107C74.7658 144.401 66.0689 187.71 65.8926 188.59C65.7065 189.471 66.7545 189.901 67.1267 189.83C67.5086 189.76 68.772 189.531 69.1932 189.419C69.9375 189.114 70.6329 188.697 71.2499 188.181C72.2684 187.436 78.5267 182.412 79.085 181.991C79.6433 181.571 80.3875 181.737 80.7401 182.819C81.0927 183.899 94.6083 228.795 97.2722 238.163C99.946 247.531 107.252 281.893 86.5872 302.577C49.4389 339.756 27.9804 302.598 11.5364 319.057C-11.2834 341.896 71.7494 409.161 19.019 461.934M18.7839 462.653C21.0365 464.907 21.0365 468.561 18.7839 470.815C16.5313 473.068 12.8781 473.068 10.6255 470.815C8.37293 468.561 8.37293 464.907 10.6255 462.653C12.8781 460.4 16.5313 460.4 18.7839 462.653Z" stroke="#19524F" stroke-width="2" stroke-linecap="round"/>
<path d="M84.1006 295.727C75.6485 305.916 67.7839 311.131 60.4385 313.487M41.5461 314.396C27.4233 311.981 15.4257 305.118 4.79934 315.756C-5.68015 326.247 2.80131 343.668 13.0555 364.163M17.2081 372.508C28.2557 395.029 39.1368 420.011 28.5594 443.69" stroke="#208A85" stroke-width="2" stroke-linecap="round"/>
<path d="M1149.23 424.009C1149.23 424.009 1157.2 427.237 1164.08 430.142C1167.74 431.649 1171.61 432.617 1175.6 432.94C1184.31 433.693 1193.14 431.649 1201.42 427.452M1205.51 314.143C1209.17 315.972 1216.38 319.63 1219.5 321.352C1229.83 327.055 1237.04 337.493 1239.73 350.514" stroke="#208A85" stroke-width="2" stroke-linecap="round" stroke-linejoin="round"/>
<path d="M1133.63 403.133C1139.33 412.28 1148.48 418.306 1159.99 419.274C1170.65 420.135 1181.52 416.584 1190.99 409.805M1200.99 400.981C1199.7 402.38 1198.41 403.671 1197.12 404.855M1179.26 315.865C1181.52 315.649 1183.78 315.649 1186.04 315.865C1206.7 317.586 1219.72 335.556 1218.96 358.369M1206.27 394.525C1205.4 395.708 1204.54 396.892 1203.57 397.968M1147.19 415.616C1145.04 412.925 1143.32 410.235 1141.92 406.792M1194.54 325.334C1195.61 325.441 1196.69 325.549 1197.76 325.764M1200.56 326.41C1205.4 327.809 1210.03 331.037 1213.91 334.588" stroke="#19524F" stroke-width="2" stroke-linecap="round" stroke-linejoin="round"/>
<path d="M1127.71 403.026C1129.65 407.33 1132.23 411.311 1135.35 414.539M1144.39 421.641C1149.02 424.224 1154.29 425.946 1160.1 426.484C1173.44 427.667 1187.11 422.502 1198.52 413.14M1142.35 420.35C1141.27 419.597 1140.09 418.844 1139.12 417.983M1208.09 403.779C1207.12 404.855 1206.16 405.931 1205.19 407.007M1226.39 354.065C1225.96 329.853 1211.43 311.022 1189.26 309.193C1185.07 308.762 1180.76 309.085 1176.56 309.838M1134.06 398.721C1134.06 398.721 1139.98 401.089 1144.93 403.241C1147.62 404.317 1150.42 405.07 1153.32 405.285C1171.72 406.899 1190.98 391.404 1198.19 370.206M1199.7 365.471C1199.91 364.61 1200.13 363.642 1200.24 362.781M1173.55 316.833C1173.55 316.833 1182.05 321.137 1185.39 322.966C1196.58 329.208 1202.71 343.089 1200.78 359.23" stroke="#208A85" stroke-width="2" stroke-linecap="round" stroke-linejoin="round"/>
<path d="M1125.99 332.866C1121.26 339 1117.6 346.317 1115.55 354.172C1109.63 378.061 1121.15 398.936 1141.49 400.658C1161.72 402.487 1183.02 384.517 1188.94 360.628C1194.86 336.74 1183.34 315.864 1163.01 314.143C1156.12 313.497 1149.13 315.219 1142.67 318.662M1129.86 328.347C1130.72 327.486 1131.48 326.732 1132.34 325.872M1134.71 323.935C1136 322.966 1137.29 321.998 1138.58 321.029" stroke="#208A85" stroke-width="2" stroke-linecap="round" stroke-linejoin="round"/>
<path d="M1172.37 389.575C1172.37 389.575 1173.12 389.682 1175.17 390.543M1178.82 391.942C1180.22 392.48 1181.19 392.695 1182.7 393.233M1183.88 359.768C1184.31 358.046 1184.64 356.324 1184.85 354.603M1161.61 390.436C1155.47 393.987 1148.8 395.816 1142.24 395.278C1124.48 393.664 1114.26 375.263 1119.43 354.172C1124.59 332.974 1143.31 317.156 1161.07 318.662C1176.13 319.954 1185.82 333.404 1185.17 350.406M1167.42 386.347C1173.77 381.074 1179.04 373.649 1182.16 365.148" stroke="#208A85" stroke-width="2" stroke-linecap="round" stroke-linejoin="round"/>
<path d="M1142.78 343.735C1142.78 343.842 1142.89 343.842 1142.89 343.95C1142.78 344.488 1142.89 344.919 1143.21 345.349C1145.47 348.9 1147.73 352.774 1149.88 356.863C1150.42 357.939 1150.96 358.047 1152.03 357.508C1154.4 356.217 1156.77 354.926 1159.24 353.527C1160.64 352.666 1161.93 351.375 1162.9 349.653C1163.22 349.008 1163.55 348.362 1163.76 347.932C1163.22 349.546 1162.58 351.375 1161.82 353.204C1160.96 355.464 1159.56 357.078 1157.95 358.047C1155.37 359.553 1152.68 360.952 1150.2 362.136C1149.34 362.566 1148.8 362.136 1148.37 361.275C1147.94 360.414 1147.51 359.661 1147.19 358.8C1145.47 355.464 1143.75 352.343 1142.02 349.33C1141.7 348.792 1141.49 348.254 1141.7 347.609C1142.13 346.533 1142.46 345.457 1142.78 344.381C1142.78 344.273 1142.78 344.165 1142.78 344.165V343.735Z" fill="#208A85"/>
<path d="M1139.76 352.558L1139.87 352.666C1139.76 353.311 1139.98 353.742 1140.19 354.28C1141.16 356.109 1142.13 358.046 1143.1 359.983C1144.18 362.135 1145.25 364.395 1146.22 366.762C1146.76 368.161 1147.3 368.376 1148.48 367.838C1150.63 366.87 1152.78 365.794 1155.04 364.718C1156.34 363.964 1157.63 362.888 1158.6 361.167C1159.03 360.521 1159.24 359.768 1159.67 359.122C1158.92 361.059 1158.27 363.104 1157.41 365.04C1156.55 367.085 1155.26 368.484 1153.86 369.237C1151.39 370.528 1148.91 371.497 1146.54 372.465C1145.68 372.788 1145.14 372.25 1144.82 371.282C1144.28 370.098 1143.85 368.914 1143.32 367.731C1141.92 364.395 1140.41 361.167 1138.8 358.046C1138.47 357.508 1138.37 356.97 1138.58 356.324C1138.9 355.248 1139.33 354.172 1139.66 352.989C1139.66 352.881 1139.66 352.881 1139.66 352.773L1139.76 352.558Z" fill="#208A85"/>
<path d="M1147.83 344.38C1147.94 344.273 1147.94 344.273 1148.05 344.273C1149.45 343.519 1150.85 342.659 1152.25 341.905C1153.75 341.044 1155.15 340.614 1156.55 340.829C1157.84 340.937 1158.81 341.583 1159.56 342.766C1159.89 343.304 1160.21 343.95 1160.42 344.595C1160.85 345.672 1160.32 347.393 1159.35 348.469C1159.13 348.685 1159.03 348.685 1158.92 348.469C1158.81 348.254 1158.59 347.931 1158.49 347.716C1156.77 345.241 1154.4 344.811 1151.28 346.425C1150.74 346.64 1150.31 346.855 1149.77 347.07C1149.66 347.07 1149.56 347.07 1149.45 347.07C1148.91 346.317 1148.37 345.456 1147.83 344.703C1147.83 344.488 1147.83 344.488 1147.83 344.38Z" fill="#208A85"/>
</g>
<defs>
<clipPath id="clip0_7096_854">
<rect width="1280" height="520" fill="white"/>
</clipPath>
</defs>
</svg>
