<svg width="1440" height="585" viewBox="0 0 1440 585" fill="none" xmlns="http://www.w3.org/2000/svg">
<g clip-path="url(#clip0_7096_854)">
<path d="M1416.01 187.691V211.744M1394.99 398.403H1371.02M1383.01 410.429V386.376M1394.99 464.631H1371.02M1383.01 476.658V452.604M1394.99 431.517H1371.02M1383.01 443.543V419.49M1394.99 497.745H1371.02M1383.01 509.772V485.718M1361.99 398.403H1338.01M1350 410.429V386.376M1361.99 464.631H1338.01M1350 476.658V452.604M1361.99 431.517H1338.01M1350 443.543V419.49M1361.99 497.745H1338.01M1350 509.772V485.718M1328.98 464.631H1305.01M1317 476.658V452.604M1328.98 497.745H1305.01M1317 509.772V485.718M1428 265.946H1404.02M1416.01 277.973V253.919M1428 332.174H1404.02M1416.01 344.201V320.148M1428 299.06H1404.02M1416.01 311.087V287.033M1428 365.288H1404.02M1416.01 377.315V353.262M1394.99 332.174H1371.02M1383.01 344.201V320.148M1394.99 365.288H1371.02M1383.01 377.315V353.262M1428 530.859H1404.02M1416.01 542.886V518.832M1428 563.973H1404.02M1416.01 576V551.947M1394.99 530.859H1371.02M1383.01 542.886V518.832M1394.99 563.973H1371.02M1383.01 576V551.947M1361.99 530.859H1338.01M1350 542.886V518.832M1361.99 563.973H1338.01M1350 576V551.947M1328.98 530.859H1305.01M1317 542.886V518.832M1328.98 563.973H1305.01M1317 576V551.947M1295.98 530.859H1272.01M1283.99 542.886V518.832M1295.98 563.973H1272.01M1283.99 576V551.947M1262.98 563.973H1239M1250.99 576V551.947M1229.97 563.973H1206M1217.99 576V551.947M1369.45 231.255H1393.42M1381.44 219.228V243.282M1371.02 299.06H1395M1383.01 287.033V311.087M1371.02 265.946H1395M1383.01 253.919V277.973M1336.45 165.027H1360.42M1348.43 153V177.053M1369.45 198.141H1393.42M1381.44 186.114V210.168M1404.03 232.832H1428M1416.01 220.805V244.859M1404.03 199.718H1428" stroke="#19524F" stroke-width="2"/>
<path d="M1164.63 534.254V519M1143.63 534.254V519M1122.63 534.254V519M1193.25 547.627H1178M1185.62 555.254V540M1193.25 568.627H1178M1185.62 576.254V561M1172.25 547.627H1157M1164.63 555.254V540M1172.25 568.627H1157M1164.63 576.254V561M1151.25 547.627H1136M1143.63 555.254V540M1151.25 568.627H1136M1143.63 576.254V561M1130.25 547.627H1115M1122.63 555.254V540M1130.25 568.627H1115M1122.63 576.254V561M1109.25 547.627H1094M1101.63 555.254V540M1109.25 568.627H1094M1101.63 576.254V561M1088.25 568.627H1073M1080.63 576.254V561M1067.25 568.627H1052M1059.63 576.254V561" stroke="#19524F" stroke-width="2"/>
<path d="M285.252 547.627H269.998M277.625 555.254V540M285.252 568.627H269.998M277.625 576.254V561M264.253 547.627H248.999M256.626 555.254V540M264.253 568.627H248.999M256.626 576.254V561M243.253 547.627H227.999M235.626 555.254V540M243.253 568.627H227.999M235.626 576.254V561M222.253 547.627H206.999M214.626 555.254V540M222.253 568.627H206.999M214.626 576.254V561M201.253 547.627H186M193.626 555.254V540M201.253 568.627H186M193.626 576.254V561M180.254 568.627H165M172.627 576.254V561M159.254 568.627H144M151.627 576.254V561" stroke="#19524F" stroke-width="2"/>
<path d="M1316 367H1342M1329 354V380" stroke="#19524F" stroke-width="2"/>
<path d="M1372 432.627H1387.25M1379.63 425V440.254" stroke="#19524F" stroke-width="2"/>
<path d="M1306 416H1332M1319 403V429" stroke="#19524F" stroke-width="2"/>
<path d="M1270 463H1296M1283 450V476" stroke="#19524F" stroke-width="2"/>
<path d="M1270 498H1296M1283 485V511" stroke="#19524F" stroke-width="2"/>
<path d="M1228 511H1254M1241 498V524" stroke="#19524F" stroke-width="2"/>
<path d="M1226 469H1252M1239 456V482" stroke="#19524F" stroke-width="2"/>
<path d="M614 558.627H629.254M621.627 551V566.254" stroke="#19524F" stroke-width="2"/>
<path d="M334 550.627H349.254M341.627 543V558.254" stroke="#19524F" stroke-width="2"/>
<path d="M826 560.627H841.254M833.627 553V568.254" stroke="#19524F" stroke-width="2"/>
<path d="M837 539.627H852.254M844.627 532V547.254" stroke="#19524F" stroke-width="2"/>
<path d="M852 557.627H867.254M859.627 550V565.254" stroke="#19524F" stroke-width="2"/>
<path d="M1426.82 91.6339C1426.82 91.6339 1431.17 94.5009 1431.48 94.6819C1431.79 94.8629 1432.58 95.5348 1432.19 97.1218C1431.81 98.7098 1419.43 139.68 1418.89 141.681C1418.34 143.683 1417.52 144.672 1415.21 145.193C1412.89 145.715 1374.02 154.318 1372.99 154.571C1371.96 154.823 1370.32 154.684 1369.58 153.658C1369.26 153.204 1364.45 147.476 1359.14 141.176M1355.22 136.528C1349.82 130.123 1344.9 124.313 1344.66 124.042C1344.13 123.439 1343.77 122.473 1344.17 120.762C1344.23 120.489 1344.51 119.151 1344.92 117.089M1346.51 109.118C1349.21 95.5849 1353.26 75.0848 1353.33 74.6423C1353.45 73.9948 1354.04 73.0166 1355.6 73.0006C1357.15 72.9845 1376.96 73.3272 1376.96 73.3272M1356.42 75.0205C1356.42 75.0205 1383.35 96.5799 1384.22 97.3109C1385.09 98.0419 1385.68 98.1709 1387.63 98.2239C1389.58 98.2759 1429.43 95.4828 1429.43 95.4828M1385.81 98.1879L1378.84 124.206M1375.69 135.956L1370.74 154.42" stroke="#19524F" stroke-width="2" stroke-linecap="round"/>
<path d="M154.167 438.94V419.282M61.8576 429.111H81.5232H61.8576ZM71.6904 438.94V419.282V438.94ZM61.8576 483.237H81.5232H61.8576ZM71.6904 493.066V473.408V493.066ZM61.8576 456.174H81.5232H61.8576ZM71.6904 466.003V446.345V466.003ZM61.8576 510.299H81.5232H61.8576ZM71.6904 520.128V500.47V520.128ZM88.9203 429.111H108.586H88.9203ZM98.7531 438.94V419.282V438.94ZM88.9203 456.174H108.586H88.9203ZM98.7531 466.003V446.345V466.003ZM34.7949 320.86H54.4605H34.7949ZM44.6277 330.689V311.032V330.689ZM34.7949 347.923H54.4605H34.7949ZM44.6277 357.752V338.094V357.752ZM61.8576 374.986H81.5232H61.8576ZM71.6904 384.815V365.157V384.815ZM61.8576 347.923H81.5232H61.8576ZM71.6904 357.752V338.094V357.752ZM61.8576 402.049H81.5232H61.8576ZM71.6904 411.877V392.22V411.877ZM88.9203 320.86H108.586H88.9203ZM98.7531 330.689V311.032V330.689ZM88.9203 374.986H108.586H88.9203ZM98.7531 384.815V365.157V384.815ZM88.9203 347.923H108.586H88.9203ZM98.7531 357.752V338.094V357.752ZM88.9203 402.049H108.586H88.9203ZM98.7531 411.877V392.22V411.877ZM115.983 374.986H135.649H115.983ZM125.816 384.815V365.157V384.815ZM115.983 402.049H135.649H115.983ZM125.816 411.877V392.22V411.877ZM34.7949 537.362H54.4605H34.7949ZM44.6277 547.191V527.533V547.191ZM34.7949 564.425H54.4605H34.7949ZM44.6277 574.254V554.596V574.254ZM61.8576 564.425H81.5232H61.8576ZM71.6904 574.254V554.596V574.254ZM88.9203 564.425H108.586H88.9203ZM98.7531 574.254V554.596V574.254ZM143.046 374.986H162.711H143.046ZM152.879 384.815V365.157V384.815ZM34.7949 265.446H54.4605H34.7949ZM44.6277 275.275V255.617V275.275ZM63.1463 238.384H82.8119H63.1463ZM72.9791 248.213V228.555V248.213ZM117.272 429.111H136.937H117.272ZM127.105 438.94V419.282V438.94ZM144.334 429.111H164H144.334Z" stroke="#19524F" stroke-width="2"/>
<path d="M137.8 252.829C137.8 252.829 143.806 242.343 150.275 230.559C156.744 218.775 160.005 201.05 157.852 187.095C155.687 173.138 140.146 106.276 139.875 105.035C139.746 104.444 139.772 103.827 139.952 103.251C140.146 102.675 140.494 102.163 140.97 101.775C141.95 100.954 148.213 96.3947 149.102 95.8032C150.004 95.2117 149.888 94.5648 148.02 93.6292C146.151 92.6936 106.562 73.9006 104.578 72.9549C102.58 72.0094 99.9124 72.9641 99.152 77.2985C98.3788 81.633 86.9353 138.619 86.7033 139.778C86.4584 140.936 87.8374 141.502 88.3271 141.409C88.8297 141.316 90.4921 141.016 91.0462 140.868C92.0256 140.467 92.9406 139.918 93.7524 139.239C95.0927 138.258 103.327 131.648 104.062 131.094C104.797 130.541 105.776 130.76 106.24 132.183C106.704 133.605 124.488 192.68 127.993 205.006C131.511 217.333 141.125 262.547 113.934 289.763C65.0531 338.685 36.8177 289.791 15.1804 311.448C-14.8463 341.5 94.4097 430.008 25.0261 499.447M24.7168 500.395C27.6809 503.36 27.6809 508.168 24.7168 511.133C21.7528 514.099 16.9459 514.099 13.9819 511.133C11.0179 508.168 11.0179 503.36 13.9819 500.395C16.9459 497.429 21.7528 497.429 24.7168 500.395Z" stroke="#19524F" stroke-width="2" stroke-linecap="round"/>
<path d="M110.661 280.75C99.5396 294.156 89.1913 301.018 79.526 304.119M54.6671 305.315C36.0841 302.137 20.2974 293.107 6.31505 307.103C-7.47404 320.908 3.68601 343.831 17.1787 370.799M22.6428 381.78C37.1793 411.412 51.4969 444.284 37.5789 475.441" stroke="#208A85" stroke-width="2" stroke-linecap="round"/>
<path d="M1211.43 438.281C1211.43 438.281 1223.17 443.028 1233.24 447.219C1238.62 449.44 1244.31 450.816 1250.11 451.299C1262.89 452.415 1275.87 449.435 1287.98 443.313M1293.79 277.389C1299.21 280.102 1309.74 285.389 1314.33 287.909C1329.52 296.259 1340.05 311.635 1344.02 330.642" stroke="#208A85" stroke-width="2" stroke-linecap="round" stroke-linejoin="round"/>
<path d="M1188.59 407.654C1196.96 421.016 1210.39 429.881 1227.22 431.311C1242.83 432.639 1258.79 427.351 1272.68 417.473M1287.27 404.565C1285.44 406.551 1283.53 408.461 1281.54 410.287M1255.35 279.833C1258.68 279.532 1262.02 279.52 1265.35 279.8C1295.51 282.362 1314.72 308.774 1313.56 342.171M1294.95 395.135C1293.69 396.884 1292.38 398.591 1291.02 400.255M1208.42 426.04C1205.24 422.051 1202.79 418.08 1200.68 413.106M1277.76 293.694C1279.33 293.827 1280.89 294.038 1282.42 294.327M1286.63 295.33C1293.78 297.392 1300.5 302.177 1306.18 307.356" stroke="#19524F" stroke-width="2" stroke-linecap="round" stroke-linejoin="round"/>
<path d="M1179.92 407.54C1182.83 413.916 1186.62 419.624 1191.17 424.479M1204.35 434.891C1211.16 438.749 1218.92 441.201 1227.44 441.945C1246.98 443.649 1266.97 436.072 1283.71 422.37M1201.25 432.994C1199.6 431.908 1198.01 430.732 1196.48 429.474M1297.65 408.646C1296.27 410.273 1294.84 411.859 1293.37 413.404M1324.48 335.799C1323.72 300.319 1302.5 272.825 1270.1 269.997C1263.88 269.455 1257.62 269.852 1251.43 271.088M1189.12 401.219C1189.12 401.219 1197.73 404.742 1205.11 407.853C1209.05 409.5 1213.22 410.524 1217.48 410.889C1244.46 413.308 1272.67 390.569 1283.23 359.491M1285.26 352.529C1285.58 351.204 1285.87 349.884 1286.12 348.572M1247.07 281.208C1247.07 281.208 1259.53 287.473 1264.35 290.146C1280.75 299.258 1289.76 319.619 1286.95 343.213" stroke="#208A85" stroke-width="2" stroke-linecap="round" stroke-linejoin="round"/>
<path d="M1177.36 304.776C1170.39 313.75 1165.02 324.425 1162.13 336.061C1153.41 371.093 1170.38 401.578 1200.04 404.151C1229.71 406.723 1260.82 380.408 1269.54 345.377C1278.26 310.345 1261.29 279.86 1231.63 277.287C1221.56 276.413 1211.32 278.869 1201.84 283.866M1183.08 298.154C1184.27 296.92 1185.49 295.724 1186.75 294.568M1190.1 291.681C1191.91 290.197 1193.8 288.8 1195.76 287.497" stroke="#208A85" stroke-width="2" stroke-linecap="round" stroke-linejoin="round"/>
<path d="M1245.21 387.78C1245.21 387.78 1246.29 387.918 1249.34 389.127M1254.77 391.269C1256.85 392.092 1258.2 392.332 1260.5 393.234M1262.12 344.244C1262.73 341.754 1263.21 339.232 1263.55 336.689M1229.51 389.122C1220.58 394.365 1210.77 397.011 1201.12 396.158C1175.06 393.853 1160.11 366.872 1167.74 335.898C1175.36 304.922 1202.68 281.679 1228.74 283.985C1250.84 285.941 1264.94 305.644 1264.07 330.479M1238.06 383.077C1247.4 375.275 1255.14 364.509 1259.71 352.101" stroke="#208A85" stroke-width="2" stroke-linecap="round" stroke-linejoin="round"/>
<path d="M1190.44 327.276C1190.52 327.344 1190.66 327.394 1190.68 327.483C1190.81 328.353 1191.37 328.851 1192.04 329.21C1198.17 332.586 1204.35 336.097 1210.6 339.714C1212.12 340.608 1213.27 340.376 1214.63 339.062C1217.72 336.031 1220.8 332.954 1223.85 329.829C1225.58 328.039 1226.78 325.877 1227.29 323.303C1227.47 322.403 1227.5 321.475 1227.56 320.896C1227.72 323.033 1228.04 325.487 1228.05 327.965C1228.06 331.019 1226.91 333.716 1224.92 335.828C1221.57 339.301 1218.14 342.633 1214.68 345.907C1213.55 346.96 1212.28 346.886 1211.07 346.22C1209.83 345.54 1208.6 344.846 1207.39 344.122C1202.4 341.172 1197.46 338.291 1192.54 335.513C1191.7 335.047 1191.03 334.443 1190.84 333.393C1190.76 331.646 1190.69 329.898 1190.6 328.152C1190.59 328.019 1190.51 327.902 1190.47 327.777L1190.44 327.277L1190.44 327.276Z" fill="#19524F"/>
<path d="M1191.1 341.397C1191.17 341.438 1191.31 341.464 1191.32 341.521C1191.47 342.496 1192.14 343.001 1192.88 343.434C1195.72 345.126 1198.56 346.87 1201.46 348.572C1204.68 350.492 1207.94 352.383 1211.21 354.329C1213.09 355.461 1214.09 355.361 1215.79 353.806C1218.81 351.02 1221.79 348.169 1224.78 345.303C1226.55 343.577 1227.84 341.501 1228.39 338.932C1228.6 337.976 1228.64 336.982 1228.86 335.985C1228.98 338.656 1229.25 341.325 1229.17 343.995C1229.09 346.852 1227.88 349.315 1225.97 351.216C1222.61 354.519 1219.15 357.681 1215.68 360.799C1214.46 361.88 1213.14 361.713 1211.86 360.953C1210.21 359.974 1208.56 358.995 1206.93 357.979C1202.28 355.105 1197.66 352.282 1193.06 349.544C1192.25 349.063 1191.65 348.407 1191.48 347.398C1191.4 345.627 1191.33 343.856 1191.24 342.087C1191.24 341.974 1191.16 341.874 1191.11 341.768L1191.1 341.392L1191.1 341.397Z" fill="#19524F"/>
<path d="M1199.1 325.131C1199.2 324.989 1199.25 324.884 1199.32 324.811C1201.11 323.036 1202.87 321.197 1204.7 319.462C1206.6 317.653 1208.73 316.37 1211.11 315.868C1213.34 315.402 1215.41 315.771 1217.33 316.771C1218.26 317.259 1219.17 317.824 1220.01 318.482C1221.38 319.549 1221.68 321.879 1220.77 323.652C1220.57 324.047 1220.33 324.113 1220.02 323.943C1219.58 323.708 1219.15 323.467 1218.71 323.248C1214.26 321.066 1210.02 321.928 1205.95 325.647C1205.3 326.233 1204.65 326.827 1203.99 327.388C1203.86 327.501 1203.59 327.583 1203.47 327.52C1202.09 326.815 1200.72 326.085 1199.36 325.365C1199.28 325.323 1199.22 325.238 1199.1 325.13L1199.1 325.131Z" fill="#19524F"/>
</g>
<defs>
<clipPath id="clip0_7096_854">
<rect width="1440" height="585" fill="white"/>
</clipPath>
</defs>
</svg>
