<svg width="1280" height="520" viewBox="0 0 1280 520" fill="none" xmlns="http://www.w3.org/2000/svg">
<g clip-path="url(#clip0_7096_854)">
<path d="M1253.53 332.483V343.603M1243.82 429.897H1232.73M1238.28 435.457V424.337M1243.82 460.514H1232.73M1238.28 466.074V454.954M1243.82 445.206H1232.73M1238.28 450.766V439.645M1243.82 475.823H1232.73M1238.28 481.383V470.263M1228.56 429.897H1217.48M1223.02 435.457V424.337M1228.56 460.514H1217.48M1223.02 466.074V454.954M1228.56 445.206H1217.48M1223.02 450.766V439.645M1228.56 475.823H1217.48M1223.02 481.383V470.263M1213.3 460.514H1202.22M1207.76 466.074V454.954M1213.3 475.823H1202.22M1207.76 481.383V470.263M1259.07 368.661H1247.99M1253.53 374.221V363.101M1259.07 399.279H1247.99M1253.53 404.839V393.719M1259.07 383.97H1247.99M1253.53 389.53V378.41M1259.07 414.588H1247.99M1253.53 420.148V409.028M1243.82 399.279H1232.73M1238.28 404.839V393.719M1243.82 414.588H1232.73M1238.28 420.148V409.028M1259.07 491.132H1247.99M1253.53 496.692V485.572M1259.07 506.441H1247.99M1253.53 512.001V500.881M1243.82 491.132H1232.73M1238.28 496.692V485.572M1243.82 506.441H1232.73M1238.28 512.001V500.881M1228.56 491.132H1217.48M1223.02 496.692V485.572M1228.56 506.441H1217.48M1223.02 512.001V500.881M1213.3 491.132H1202.22M1207.76 496.692V485.572M1213.3 506.441H1202.22M1207.76 512.001V500.881M1198.04 491.132H1186.96M1192.5 496.692V485.572M1232.01 352.623H1243.09M1237.55 347.063V358.183M1232.73 383.97H1243.82M1238.28 378.41V389.53M1232.73 368.661H1243.82M1238.28 363.101V374.221M1232.01 337.314H1243.09M1237.55 331.754V342.874M1247.99 353.352H1259.08M1253.53 347.792V358.912M1247.99 338.043H1259.08M1192.5 506.441L1198.04 506.441H1186.96L1192.5 506.441ZM1192.5 506.441V512.001V500.881V506.441ZM1177.24 506.441L1182.79 506.441H1171.7L1177.24 506.441ZM1177.24 506.441V512.001V500.881V506.441ZM1161.99 506.441L1167.53 506.441H1156.44L1161.99 506.441ZM1161.99 506.441V512.001V500.881V506.441ZM1150.22 506.441H1144.68M1144.68 506.441H1139.14M1144.68 506.441V512.001M1144.68 506.441V500.881M1134.96 506.441H1129.42M1129.42 506.441H1123.88M1129.42 506.441V512.001M1129.42 506.441V500.881M1119.71 506.441H1114.16M1114.16 506.441H1108.62M1114.16 506.441V512.001M1114.16 506.441V500.881M1259.96 214.735H1248.88M1254.42 220.295V209.175M1259.96 245.353H1248.88M1254.42 250.913V239.793M1259.96 230.044H1248.88M1254.42 235.604V224.484M1259.96 260.662H1248.88M1254.42 266.222V255.102M1242.43 214.735H1236.89M1236.89 214.735H1231.35M1236.89 214.735V220.295M1236.89 214.735V209.175M1242.87 230.044H1237.33M1237.33 230.044H1231.79M1237.33 230.044V235.604M1237.33 230.044V224.484M1225.33 230.044H1219.79M1219.79 230.044H1214.25M1219.79 230.044V235.604M1219.79 230.044V224.484M1259.96 195.782H1254.42M1254.42 195.782H1248.88M1254.42 195.782V201.342M1254.42 195.782V190.222M1259.96 103.555H1254.42M1254.42 103.555H1248.88M1254.42 103.555V109.116M1254.42 103.555V97.9954M1259.96 84.8888H1254.42M1254.42 84.8888H1248.88M1254.42 84.8888V90.4488M1254.42 84.8888V79.3288M1242.43 84.8888H1236.89M1236.89 84.8888H1231.35M1236.89 84.8888V90.4488M1236.89 84.8888V79.3288M1259.96 66.222H1254.42M1254.42 66.222H1248.88M1254.42 66.222V71.782M1254.42 66.222V60.662" stroke="#19524F" stroke-width="2"/>
<path d="M1232 322.005H1243.08M1237.54 316.445V327.565" stroke="#19524F" stroke-width="2"/>
<path d="M1231.11 304.227H1242.19M1236.65 298.667V309.787" stroke="#19524F" stroke-width="2"/>
<path d="M1216 353.116H1227.08M1221.54 347.556V358.676" stroke="#19524F" stroke-width="2"/>
<path d="M1216 369.116H1227.08M1221.54 363.556V374.676" stroke="#19524F" stroke-width="2"/>
<path d="M1216 384.227H1227.08M1221.54 378.667V389.787" stroke="#19524F" stroke-width="2"/>
<path d="M1199.11 384.227H1210.19M1204.65 378.667V389.787" stroke="#19524F" stroke-width="2"/>
<path d="M1217.78 414.449H1228.86M1223.32 408.889V420.009" stroke="#19524F" stroke-width="2"/>
<path d="M1199.11 429.561H1210.19M1204.65 424V435.121" stroke="#19524F" stroke-width="2"/>
<path d="M1170.67 466.894H1181.75M1176.21 461.334V472.454" stroke="#19524F" stroke-width="2"/>
<path d="M1156.44 490.894H1167.53M1161.98 485.334V496.454" stroke="#19524F" stroke-width="2"/>
<path d="M1182.22 399.338H1193.3M1187.76 393.778V404.898" stroke="#19524F" stroke-width="2"/>
<path d="M1248 322.005H1259.08M1253.54 316.445V327.565" stroke="#19524F" stroke-width="2"/>
<path d="M1248 304.227H1259.08M1253.54 298.667V309.787" stroke="#19524F" stroke-width="2"/>
<path d="M1039.01 490.944H1027.79M1033.4 496.554V485.334M1039.01 506.391H1027.79M1033.4 512.001V500.781M1023.56 490.944H1012.34M1017.95 496.554V485.334M1023.56 506.391H1012.34M1017.95 512.001V500.781M1008.12 490.944H996.897M1002.51 496.554V485.334M1008.12 506.391H996.897M1002.51 512.001V500.781M992.67 490.944H981.45M987.06 496.554V485.334M992.67 506.391H981.45M987.06 512.001V500.781M977.224 490.944H966.004M971.614 496.554V485.334M977.224 506.391H966.004M971.614 512.001V500.781M961.778 506.391H950.558M956.168 512.001V500.781M946.331 506.391H935.111M940.721 512.001V500.781" stroke="#19524F" stroke-width="2"/>
<path d="M253.557 486.78H239.998M246.778 493.56V480M253.557 505.447H239.998M246.778 512.226V498.667M234.891 486.78H221.332M228.112 493.56V480M234.891 505.447H221.332M228.112 512.226V498.667M216.225 486.78H202.666M209.445 493.56V480M216.225 505.447H202.666M209.445 512.226V498.667M197.558 486.78H183.999M190.779 493.56V480M197.558 505.447H183.999M190.779 512.226V498.667M178.892 486.78H165.333M172.112 493.56V480M178.892 505.447H165.333M172.112 512.226V498.667M160.225 505.447H146.666M153.446 512.226V498.667M141.559 505.447H128M134.779 512.226V498.667M121.113 505.447H114.334M114.334 505.447H107.554M114.334 505.447V512.226M114.334 505.447V498.667M102.447 505.447H95.6678M95.6678 505.447H88.8882M95.6678 505.447V512.226M95.6678 505.447V498.667M83.7805 505.447H77.001M77.001 505.447H70.2216M77.001 505.447V512.226M77.001 505.447V498.667M65.1141 505.447H58.3345M58.3345 505.447H51.5551M58.3345 505.447V512.226M58.3345 505.447V498.667M46.4476 505.447H39.6681M39.6681 505.447H32.8887M39.6681 505.447V512.226M39.6681 505.447V498.667" stroke="#19524F" stroke-width="2"/>
<path d="M545.777 496.558H559.336M552.557 489.778V503.337" stroke="#19524F" stroke-width="2"/>
<path d="M296.889 489.447H310.448M303.668 482.667V496.226" stroke="#19524F" stroke-width="2"/>
<path d="M734.223 498.336H747.782M741.002 491.556V505.115" stroke="#19524F" stroke-width="2"/>
<path d="M744 479.669H757.559M750.779 472.889V486.448" stroke="#19524F" stroke-width="2"/>
<path d="M757.334 495.669H770.893M764.113 488.889V502.448" stroke="#19524F" stroke-width="2"/>
<path d="M1266.5 127.674C1266.5 127.674 1270.37 130.223 1270.65 130.384C1270.92 130.544 1271.63 131.142 1271.28 132.552C1270.94 133.964 1259.94 170.382 1259.45 172.16C1258.96 173.94 1258.24 174.819 1256.18 175.282C1254.12 175.746 1219.57 183.393 1218.65 183.618C1217.74 183.842 1216.28 183.719 1215.63 182.807C1215.34 182.403 1211.06 177.312 1206.34 171.712M1202.86 167.58C1198.06 161.887 1193.69 156.722 1193.47 156.481C1193 155.945 1192.68 155.087 1193.04 153.566C1193.09 153.323 1193.34 152.134 1193.71 150.301M1195.12 143.216C1197.51 131.186 1201.11 112.964 1201.18 112.571C1201.28 111.995 1201.81 111.126 1203.2 111.111C1204.58 111.097 1222.18 111.402 1222.18 111.402M1203.93 112.907C1203.93 112.907 1227.86 132.071 1228.64 132.72C1229.41 133.37 1229.93 133.485 1231.67 133.532C1233.4 133.578 1268.83 131.096 1268.83 131.096M1230.05 133.5L1223.86 156.627M1221.06 167.072L1216.66 183.484" stroke="#19524F" stroke-width="2" stroke-linecap="round"/>
<path d="M128.693 371.761V358.619M66.981 365.19H80.1281H66.981ZM73.5545 371.761V358.619V371.761ZM66.981 401.375H80.1281H66.981ZM73.5545 407.946V394.804V407.946ZM66.981 383.282H80.1281H66.981ZM73.5545 389.853V376.711V389.853ZM66.981 419.467H80.1281H66.981ZM73.5545 426.038V412.896V426.038ZM85.0733 365.19H98.2204H85.0733ZM91.6468 371.761V358.619V371.761ZM85.0733 383.282H98.2204H85.0733ZM91.6468 389.853V376.711V389.853ZM48.8887 292.821H62.0358H48.8887ZM55.4622 299.392V286.25V299.392ZM48.8887 310.913H62.0358H48.8887ZM55.4622 317.484V304.342V317.484ZM66.981 329.005H80.1281H66.981ZM73.5545 335.576V322.434V335.576ZM66.981 310.913H80.1281H66.981ZM73.5545 317.484V304.342V317.484ZM66.981 347.098H80.1281H66.981ZM73.5545 353.669V340.527V353.669ZM85.0733 292.821H98.2204H85.0733ZM91.6468 299.392V286.25V299.392ZM85.0733 329.005H98.2204H85.0733ZM91.6468 335.576V322.434V335.576ZM85.0733 310.913H98.2204H85.0733ZM91.6468 317.484V304.342V317.484ZM85.0733 347.098H98.2204H85.0733ZM91.6468 353.669V340.527V353.669ZM103.166 329.005H116.313H103.166ZM109.739 335.576V322.434V335.576ZM103.166 347.098H116.313H103.166ZM109.739 353.669V340.527V353.669ZM48.8887 437.559H62.0358H48.8887ZM55.4622 444.13V430.988V444.13ZM48.8887 455.651H62.0358H48.8887ZM55.4622 462.222V449.081V462.222ZM66.981 455.651H80.1281H66.981ZM73.5545 462.222V449.081V462.222ZM85.0733 455.651H98.2204H85.0733ZM91.6468 462.222V449.081V462.222ZM121.258 329.005H134.405H121.258ZM127.831 335.576V322.434V335.576ZM48.8887 255.775H62.0358H48.8887ZM55.4622 262.346V249.204V262.346ZM67.8425 237.682H80.9896H67.8425ZM74.4161 244.253V231.111V244.253ZM104.027 365.19H117.174H104.027ZM110.601 371.761V358.619V371.761ZM122.119 365.19H135.267H122.119Z" stroke="#19524F" stroke-width="2"/>
<path d="M122.489 224.737C122.489 224.737 127.827 215.416 133.578 204.941C139.328 194.467 142.226 178.711 140.313 166.307C138.389 153.901 124.574 94.4682 124.334 93.3651C124.219 92.8393 124.242 92.2906 124.402 91.7786C124.574 91.2665 124.883 90.8118 125.307 90.467C126.178 89.7373 131.745 85.6845 132.535 85.1587C133.337 84.6329 133.234 84.0578 131.573 83.2262C129.912 82.3946 94.7221 65.6897 92.958 64.8491C91.1825 64.0086 88.8112 64.8572 88.1353 68.71C87.448 72.563 77.276 123.217 77.0698 124.247C76.8522 125.277 78.0779 125.78 78.5132 125.697C78.9599 125.615 80.4376 125.348 80.9302 125.216C81.8008 124.86 82.614 124.372 83.3357 123.768C84.527 122.896 91.8469 117.021 92.4998 116.528C93.1527 116.037 94.0233 116.232 94.4357 117.496C94.848 118.76 110.656 171.271 113.772 182.228C116.899 193.185 125.445 233.375 101.274 257.567C57.8252 301.053 32.7271 257.592 13.4939 276.843C-13.1965 303.556 83.92 382.23 22.2457 443.953M21.9707 444.795C24.6054 447.431 24.6054 451.705 21.9707 454.341C19.3361 456.977 15.0632 456.977 12.4285 454.341C9.79387 451.705 9.79387 447.431 12.4285 444.795C15.0632 442.16 19.3361 442.16 21.9707 444.795Z" stroke="#19524F" stroke-width="2" stroke-linecap="round"/>
<path d="M98.3654 249.556C88.4796 261.472 79.2811 267.572 70.6898 270.328M48.593 271.391C32.0747 268.567 18.0422 260.54 5.61338 272.981C-6.64359 285.252 3.27646 305.628 15.27 329.599M20.1269 339.36C33.0483 365.7 45.775 394.92 33.4035 422.615" stroke="#208A85" stroke-width="2" stroke-linecap="round"/>
<path d="M1161.46 361.231C1161.46 361.231 1169.42 364.459 1176.3 367.364C1179.96 368.871 1183.84 369.839 1187.82 370.162C1196.53 370.915 1205.36 368.871 1213.64 364.674M1217.73 251.365C1221.39 253.194 1228.6 256.853 1231.72 258.574C1242.05 264.278 1249.26 274.715 1251.95 287.736" stroke="#208A85" stroke-width="2" stroke-linecap="round" stroke-linejoin="round"/>
<path d="M1145.85 340.355C1151.56 349.502 1160.7 355.528 1172.22 356.496C1182.87 357.357 1193.74 353.806 1203.21 347.027M1213.22 338.203C1211.92 339.602 1210.63 340.893 1209.34 342.077M1191.48 253.087C1193.74 252.871 1196 252.871 1198.26 253.087C1218.92 254.808 1231.94 272.779 1231.19 295.591M1218.49 331.747C1217.63 332.931 1216.77 334.114 1215.8 335.19M1159.41 352.838C1157.26 350.148 1155.54 347.457 1154.14 344.014M1206.76 262.556C1207.83 262.664 1208.91 262.771 1209.99 262.986M1212.78 263.632C1217.63 265.031 1222.25 268.259 1226.13 271.81" stroke="#19524F" stroke-width="2" stroke-linecap="round" stroke-linejoin="round"/>
<path d="M1139.93 340.248C1141.87 344.552 1144.45 348.533 1147.57 351.762M1156.61 358.864C1161.24 361.446 1166.51 363.168 1172.32 363.706C1185.67 364.89 1199.33 359.724 1210.74 350.363M1154.57 357.572C1153.49 356.819 1152.31 356.066 1151.34 355.205M1220.32 341.001C1219.35 342.077 1218.38 343.153 1217.41 344.229M1238.61 291.287C1238.18 267.075 1223.65 248.244 1201.48 246.415C1197.29 245.985 1192.98 246.307 1188.79 247.061M1146.28 335.943C1146.28 335.943 1152.2 338.311 1157.15 340.463C1159.84 341.539 1162.64 342.292 1165.54 342.507C1183.94 344.121 1203.21 328.626 1210.42 307.428M1211.92 302.693C1212.14 301.832 1212.35 300.864 1212.46 300.003M1185.77 254.055C1185.77 254.055 1194.27 258.359 1197.61 260.189C1208.8 266.43 1214.94 280.311 1213 296.452" stroke="#208A85" stroke-width="2" stroke-linecap="round" stroke-linejoin="round"/>
<path d="M1138.21 270.088C1133.48 276.222 1129.82 283.539 1127.77 291.394C1121.86 315.283 1133.37 336.158 1153.71 337.88C1173.94 339.709 1195.24 321.739 1201.16 297.851C1207.08 273.962 1195.57 253.086 1175.23 251.365C1168.34 250.719 1161.35 252.441 1154.89 255.884M1142.09 265.569C1142.95 264.708 1143.7 263.955 1144.56 263.094M1146.93 261.157C1148.22 260.188 1149.51 259.22 1150.8 258.252" stroke="#208A85" stroke-width="2" stroke-linecap="round" stroke-linejoin="round"/>
<path d="M1184.59 326.797C1184.59 326.797 1185.34 326.905 1187.39 327.765M1191.05 329.164C1192.45 329.702 1193.41 329.918 1194.92 330.456M1196.1 296.99C1196.54 295.268 1196.86 293.547 1197.07 291.825M1173.83 327.658C1167.7 331.209 1161.03 333.038 1154.46 332.5C1136.71 330.886 1126.48 312.485 1131.65 291.394C1136.81 270.196 1155.54 254.378 1173.29 255.884C1188.36 257.176 1198.04 270.626 1197.4 287.628M1179.64 323.569C1185.99 318.296 1191.26 310.871 1194.38 302.37" stroke="#208A85" stroke-width="2" stroke-linecap="round" stroke-linejoin="round"/>
<path d="M1155 280.957C1155 281.065 1155.11 281.065 1155.11 281.172C1155 281.71 1155.11 282.141 1155.43 282.571C1157.69 286.122 1159.95 289.996 1162.1 294.085C1162.64 295.161 1163.18 295.269 1164.25 294.731C1166.62 293.439 1168.99 292.148 1171.46 290.749C1172.86 289.888 1174.15 288.597 1175.12 286.875C1175.45 286.23 1175.77 285.584 1175.98 285.154C1175.45 286.768 1174.8 288.597 1174.05 290.426C1173.19 292.686 1171.79 294.3 1170.17 295.269C1167.59 296.775 1164.9 298.174 1162.43 299.358C1161.56 299.788 1161.03 299.358 1160.6 298.497C1160.17 297.636 1159.74 296.883 1159.41 296.022C1157.69 292.686 1155.97 289.566 1154.25 286.553C1153.92 286.015 1153.71 285.476 1153.92 284.831C1154.35 283.755 1154.68 282.679 1155 281.603C1155 281.495 1155 281.387 1155 281.387V280.957Z" fill="#208A85"/>
<path d="M1151.99 289.78L1152.09 289.888C1151.99 290.534 1152.2 290.964 1152.42 291.502C1153.39 293.331 1154.35 295.268 1155.32 297.205C1156.4 299.357 1157.47 301.617 1158.44 303.984C1158.98 305.383 1159.52 305.598 1160.7 305.06C1162.86 304.092 1165.01 303.016 1167.27 301.94C1168.56 301.187 1169.85 300.11 1170.82 298.389C1171.25 297.743 1171.46 296.99 1171.89 296.344C1171.14 298.281 1170.5 300.326 1169.63 302.263C1168.77 304.307 1167.48 305.706 1166.08 306.459C1163.61 307.751 1161.13 308.719 1158.77 309.687C1157.91 310.01 1157.37 309.472 1157.04 308.504C1156.51 307.32 1156.08 306.136 1155.54 304.953C1154.14 301.617 1152.63 298.389 1151.02 295.268C1150.7 294.73 1150.59 294.192 1150.8 293.546C1151.13 292.47 1151.56 291.394 1151.88 290.211C1151.88 290.103 1151.88 290.103 1151.88 289.995L1151.99 289.78Z" fill="#208A85"/>
<path d="M1160.06 281.602C1160.16 281.495 1160.16 281.495 1160.27 281.495C1161.67 280.742 1163.07 279.881 1164.47 279.127C1165.97 278.267 1167.37 277.836 1168.77 278.051C1170.06 278.159 1171.03 278.805 1171.79 279.988C1172.11 280.526 1172.43 281.172 1172.65 281.818C1173.08 282.894 1172.54 284.615 1171.57 285.691C1171.36 285.907 1171.25 285.907 1171.14 285.691C1171.03 285.476 1170.82 285.153 1170.71 284.938C1168.99 282.463 1166.62 282.033 1163.5 283.647C1162.96 283.862 1162.53 284.077 1161.99 284.293C1161.89 284.293 1161.78 284.293 1161.67 284.293C1161.13 283.539 1160.59 282.678 1160.06 281.925C1160.06 281.71 1160.06 281.71 1160.06 281.602Z" fill="#208A85"/>
</g>
<defs>
<clipPath id="clip0_7096_854">
<rect width="1280" height="520" fill="white"/>
</clipPath>
</defs>
</svg>
