<svg width="1280" height="520" viewBox="0 0 1280 520" fill="none" xmlns="http://www.w3.org/2000/svg">
<g clip-path="url(#clip0_7096_854)">
<path d="M1189.14 441.499H1199.45M1194.29 436.327V446.67" stroke="#19524F" stroke-width="2"/>
<path d="M1175.91 463.821H1186.22M1181.06 458.65V468.993" stroke="#19524F" stroke-width="2"/>
<path d="M1266.27 125.99C1266.27 125.99 1269.87 128.36 1270.13 128.51C1270.39 128.66 1271.04 129.215 1270.72 130.527C1270.4 131.84 1260.17 165.712 1259.71 167.367C1259.26 169.022 1258.59 169.84 1256.67 170.27C1254.76 170.702 1222.62 177.814 1221.77 178.024C1220.92 178.232 1219.56 178.117 1218.95 177.269C1218.68 176.893 1214.71 172.158 1210.32 166.949M1207.08 163.107C1202.61 157.811 1198.55 153.008 1198.35 152.784C1197.91 152.285 1197.61 151.486 1197.94 150.072C1198 149.846 1198.22 148.74 1198.56 147.035M1199.88 140.445C1202.11 129.257 1205.46 112.308 1205.52 111.942C1205.61 111.407 1206.11 110.598 1207.39 110.585C1208.68 110.572 1225.05 110.855 1225.05 110.855M1208.07 112.255C1208.07 112.255 1230.33 130.079 1231.06 130.684C1231.78 131.288 1232.26 131.395 1233.87 131.438C1235.48 131.481 1268.44 129.172 1268.44 129.172M1232.37 131.409L1226.61 152.919M1224 162.634L1219.91 177.899" stroke="#19524F" stroke-width="2" stroke-linecap="round"/>
<path d="M1266.21 356.483V366.826M1257.17 447.087H1246.86M1252.02 452.259V441.916M1257.17 475.565H1246.86M1252.02 480.736V470.394M1257.17 461.326H1246.86M1252.02 466.498V456.155M1257.17 489.804H1246.86M1252.02 494.975V484.632M1242.98 447.087H1232.67M1237.83 452.259V441.916M1242.98 475.565H1232.67M1237.83 480.736V470.394M1242.98 461.326H1232.67M1237.83 466.498V456.155M1242.98 489.804H1232.67M1237.83 494.975V484.632M1228.79 475.565H1218.48M1223.64 480.736V470.394M1228.79 489.804H1218.48M1223.64 494.975V484.632M1271.36 390.132H1261.06M1266.21 395.303V384.961M1271.36 418.61H1261.06M1266.21 423.781V413.438M1271.36 404.371H1261.06M1266.21 409.542V399.199M1271.36 432.848H1261.06M1266.21 438.02V427.677M1257.17 418.61H1246.86M1252.02 423.781V413.438M1257.17 432.848H1246.86M1252.02 438.02V427.677M1271.36 504.043H1261.06M1266.21 509.214V498.871M1271.36 518.281H1261.06M1266.21 523.453V513.11M1257.17 504.043H1246.86M1252.02 509.214V498.871M1257.17 518.281H1246.86M1252.02 523.453V513.11M1242.98 504.043H1232.67M1237.83 509.214V498.871M1242.98 518.281H1232.67M1237.83 523.453V513.11M1228.79 504.043H1218.48M1223.64 509.214V498.871M1228.79 518.281H1218.48M1223.64 523.453V513.11M1214.6 504.043H1204.29M1209.44 509.214V498.871M1246.19 375.215H1256.5M1251.34 370.044V380.387M1246.87 404.371H1257.17M1252.02 399.199V409.542M1246.87 390.132H1257.17M1252.02 384.961V395.303M1246.19 360.977H1256.5M1251.34 355.805V366.148M1261.06 375.893H1271.37M1266.21 370.722V381.065M1261.06 361.655H1271.37M1209.44 518.281L1214.6 518.281H1204.29L1209.44 518.281ZM1209.44 518.281V523.453V513.11V518.281ZM1195.25 518.281L1200.41 518.281H1190.1L1195.25 518.281ZM1195.25 518.281V523.453V513.11V518.281ZM1181.06 518.281L1186.22 518.281H1175.91L1181.06 518.281ZM1181.06 518.281V523.453V513.11V518.281ZM1170.12 518.281H1164.97M1164.97 518.281H1159.81M1164.97 518.281V523.453M1164.97 518.281V513.11M1155.93 518.281H1150.78M1150.78 518.281H1145.62M1150.78 518.281V523.453M1150.78 518.281V513.11M1141.74 518.281H1136.58M1136.58 518.281H1131.43M1136.58 518.281V523.453M1136.58 518.281V513.11M1272.19 246.966H1261.88M1267.04 252.137V241.794M1272.19 275.443H1261.88M1267.04 280.615V270.272M1272.19 261.205H1261.88M1267.04 266.376V256.033M1272.19 289.682H1261.88M1267.04 294.853V284.511M1255.88 246.966H1250.73M1250.73 246.966H1245.58M1250.73 246.966V252.137M1250.73 246.966V241.794M1256.3 261.205H1251.14M1251.14 261.205H1245.99M1251.14 261.205V266.376M1251.14 261.205V256.033M1239.98 261.205H1234.83M1234.83 261.205H1229.67M1234.83 261.205V266.376M1234.83 261.205V256.033M1272.19 229.337H1267.04M1267.04 229.337H1261.88M1267.04 229.337V234.509M1267.04 229.337V224.166M1272.19 143.557H1267.04M1267.04 143.557H1261.88M1267.04 143.557V148.729M1267.04 143.557V138.386M1272.19 126.195H1267.04M1267.04 126.195H1261.88M1267.04 126.195V131.367M1267.04 126.195V121.024M1255.88 126.195H1250.73M1250.73 126.195H1245.58M1250.73 126.195V131.367M1250.73 126.195V121.024M1272.19 108.833H1267.04M1267.04 108.833H1261.88M1267.04 108.833V114.005M1267.04 108.833V103.662" stroke="#19524F" stroke-width="2"/>
<path d="M1246.18 346.737H1256.49M1251.34 341.566V351.909" stroke="#19524F" stroke-width="2"/>
<path d="M1245.36 330.202H1255.66M1250.51 325.03V335.373" stroke="#19524F" stroke-width="2"/>
<path d="M1231.3 375.674H1241.61M1236.45 370.502V380.845" stroke="#19524F" stroke-width="2"/>
<path d="M1231.3 390.556H1241.61M1236.45 385.384V395.727" stroke="#19524F" stroke-width="2"/>
<path d="M1231.3 404.61H1241.61M1236.45 399.439V409.782" stroke="#19524F" stroke-width="2"/>
<path d="M1215.59 404.61H1225.9M1220.75 399.439V409.782" stroke="#19524F" stroke-width="2"/>
<path d="M1232.96 432.72H1243.26M1238.11 427.548V437.891" stroke="#19524F" stroke-width="2"/>
<path d="M1215.59 446.775H1225.9M1220.75 441.604V451.946" stroke="#19524F" stroke-width="2"/>
<path d="M1261.06 346.737H1271.37M1266.22 341.566V351.909" stroke="#19524F" stroke-width="2"/>
<path d="M1261.06 330.202H1271.37M1266.22 325.03V335.373" stroke="#19524F" stroke-width="2"/>
<path d="M968.683 500.868H958.247M963.465 506.086V495.65M968.683 515.235H958.247M963.465 520.453V510.017M954.316 500.868H943.881M949.098 506.086V495.65M954.316 515.235H943.881M949.098 520.453V510.017M939.949 500.868H929.514M934.731 506.086V495.65M939.949 515.235H929.514M934.731 520.453V510.017M925.583 500.868H915.147M920.365 506.086V495.65M925.583 515.235H915.147M920.365 520.453V510.017M911.216 500.868H900.78M905.998 506.086V495.65M911.216 515.235H900.78M905.998 520.453V510.017M896.849 515.235H886.414M891.631 520.453V510.017M882.483 515.235H872.047M877.265 520.453V510.017" stroke="#19524F" stroke-width="2"/>
<path d="M238.133 496.995H225.521M231.827 503.3V490.689M238.133 514.357H225.521M231.827 520.662V508.051M220.772 496.995H208.16M214.466 503.3V490.689M220.772 514.357H208.16M214.466 520.662V508.051M203.41 496.995H190.798M197.104 503.3V490.689M203.41 514.357H190.798M197.104 520.662V508.051M186.048 496.995H173.437M179.742 503.3V490.689M186.048 514.357H173.437M179.742 520.662V508.051M168.686 496.995H156.075M162.381 503.3V490.689M168.686 514.357H156.075M162.381 520.662V508.051M151.325 514.357H138.713M145.019 520.662V508.051M133.963 514.357H121.352M127.657 520.662V508.051M114.946 514.357H108.641M108.641 514.357H102.335M108.641 514.357V520.662M108.641 514.357V508.051M97.5852 514.357H91.2796M91.2796 514.357H84.9739M91.2796 514.357V520.662M91.2796 514.357V508.051M80.2232 514.357H73.9176M73.9176 514.357H67.612M73.9176 514.357V520.662M73.9176 514.357V508.051M62.8616 514.357H56.5559M56.5559 514.357H50.2503M56.5559 514.357V520.662M56.5559 514.357V508.051M45.4998 514.357H39.1943M39.1943 514.357H32.8887M39.1943 514.357V520.662M39.1943 514.357V508.051" stroke="#19524F" stroke-width="2"/>
<path d="M509.928 506.089H522.539M516.233 499.783V512.395" stroke="#19524F" stroke-width="2"/>
<path d="M278.436 499.475H291.047M284.741 493.169V505.78" stroke="#19524F" stroke-width="2"/>
<path d="M685.199 507.743H697.81M691.505 501.437V514.048" stroke="#19524F" stroke-width="2"/>
<path d="M696.293 490.38H708.904M702.599 484.075V496.686" stroke="#19524F" stroke-width="2"/>
<path d="M706.695 508.262H719.306M713.001 501.957V514.568" stroke="#19524F" stroke-width="2"/>
<path d="M110.03 422.21V410.974M57.2674 416.592H68.5079H57.2674ZM62.8877 422.21V410.974V422.21ZM57.2674 447.53H68.5079H57.2674ZM62.8877 453.148V441.911V453.148ZM57.2674 432.061H68.5079H57.2674ZM62.8877 437.679V426.443V437.679ZM57.2674 462.998H68.5079H57.2674ZM62.8877 468.616V457.38V468.616ZM72.736 416.592H83.9765H72.736ZM78.3563 422.21V410.974V422.21ZM72.736 432.061H83.9765H72.736ZM78.3563 437.679V426.443V437.679ZM41.7988 354.718H53.0393H41.7988ZM47.4191 360.336V349.1V360.336ZM41.7988 370.187H53.0393H41.7988ZM47.4191 375.805V364.568V375.805ZM57.2674 385.655H68.5079H57.2674ZM62.8877 391.273V380.037V391.273ZM57.2674 370.187H68.5079H57.2674ZM62.8877 375.805V364.568V375.805ZM57.2674 401.124H68.5079H57.2674ZM62.8877 406.742V395.506V406.742ZM72.736 354.718H83.9765H72.736ZM78.3563 360.336V349.1V360.336ZM72.736 385.655H83.9765H72.736ZM78.3563 391.273V380.037V391.273ZM72.736 370.187H83.9765H72.736ZM78.3563 375.805V364.568V375.805ZM72.736 401.124H83.9765H72.736ZM78.3563 406.742V395.506V406.742ZM88.2046 385.655H99.4451H88.2046ZM93.8249 391.273V380.037V391.273ZM88.2046 401.124H99.4451H88.2046ZM93.8249 406.742V395.506V406.742ZM41.7988 478.467H53.0393H41.7988ZM47.4191 484.085V472.849V484.085ZM41.7988 493.935H53.0393H41.7988ZM47.4191 499.553V488.317V499.553ZM57.2674 493.935H68.5079H57.2674ZM62.8877 499.553V488.317V499.553ZM72.736 493.935H83.9765H72.736ZM78.3563 499.553V488.317V499.553ZM103.673 385.655H114.914H103.673ZM109.293 391.273V380.037V391.273ZM41.7988 323.044H53.0393H41.7988ZM47.4191 328.662V317.426V328.662ZM58.004 307.576H69.2445H58.004ZM63.6243 313.194V301.958V313.194ZM88.9412 416.592H100.182H88.9412ZM94.5615 422.21V410.974V422.21ZM104.41 416.592H115.65H104.41Z" stroke="#19524F" stroke-width="2"/>
<path d="M104.726 296.507C104.726 296.507 109.289 288.538 114.206 279.583C119.122 270.627 121.6 257.156 119.965 246.551C118.319 235.944 106.508 185.13 106.302 184.187C106.204 183.737 106.224 183.268 106.361 182.83C106.508 182.393 106.772 182.004 107.135 181.709C107.879 181.085 112.639 177.62 113.315 177.171C114 176.721 113.912 176.229 112.492 175.518C111.072 174.807 80.985 160.525 79.4768 159.806C77.9587 159.088 75.9313 159.813 75.3535 163.107C74.7658 166.401 66.0689 209.71 65.8926 210.59C65.7065 211.471 66.7545 211.901 67.1267 211.83C67.5086 211.76 68.772 211.531 69.1932 211.419C69.9375 211.114 70.6329 210.697 71.2499 210.181C72.2684 209.436 78.5267 204.412 79.085 203.991C79.6433 203.571 80.3875 203.737 80.7401 204.819C81.0927 205.899 94.6083 250.795 97.2722 260.163C99.946 269.531 107.252 303.893 86.5872 324.577C49.4389 361.756 27.9804 324.598 11.5364 341.057C-11.2834 363.896 71.7494 431.161 19.019 483.934M18.7839 484.653C21.0365 486.907 21.0365 490.561 18.7839 492.815C16.5313 495.068 12.8781 495.068 10.6255 492.815C8.37293 490.561 8.37293 486.907 10.6255 484.653C12.8781 482.4 16.5313 482.4 18.7839 484.653Z" stroke="#19524F" stroke-width="2" stroke-linecap="round"/>
<path d="M84.1006 317.727C75.6485 327.916 67.7839 333.131 60.4385 335.487M41.5461 336.396C27.4233 333.981 15.4257 327.118 4.79934 337.756C-5.68015 348.247 2.80131 365.668 13.0555 386.163M17.2081 394.508C28.2557 417.029 39.1368 442.011 28.5594 465.69" stroke="#208A85" stroke-width="2" stroke-linecap="round"/>
<path d="M1149.23 424.009C1149.23 424.009 1157.2 427.237 1164.08 430.142C1167.74 431.649 1171.61 432.617 1175.6 432.94C1184.31 433.693 1193.14 431.649 1201.42 427.452M1205.51 314.143C1209.17 315.972 1216.38 319.63 1219.5 321.352C1229.83 327.055 1237.04 337.493 1239.73 350.514" stroke="#208A85" stroke-width="2" stroke-linecap="round" stroke-linejoin="round"/>
<path d="M1133.63 403.133C1139.33 412.28 1148.48 418.306 1159.99 419.274C1170.65 420.135 1181.52 416.584 1190.99 409.805M1200.99 400.981C1199.7 402.38 1198.41 403.671 1197.12 404.855M1179.26 315.865C1181.52 315.649 1183.78 315.649 1186.04 315.865C1206.7 317.586 1219.72 335.556 1218.96 358.369M1206.27 394.525C1205.4 395.708 1204.54 396.892 1203.57 397.968M1147.19 415.616C1145.04 412.925 1143.32 410.235 1141.92 406.792M1194.54 325.334C1195.61 325.441 1196.69 325.549 1197.76 325.764M1200.56 326.41C1205.4 327.809 1210.03 331.037 1213.91 334.588" stroke="#19524F" stroke-width="2" stroke-linecap="round" stroke-linejoin="round"/>
<path d="M1127.71 403.026C1129.65 407.33 1132.23 411.311 1135.35 414.539M1144.39 421.641C1149.02 424.224 1154.29 425.946 1160.1 426.484C1173.44 427.667 1187.11 422.502 1198.52 413.14M1142.35 420.35C1141.27 419.597 1140.09 418.844 1139.12 417.983M1208.09 403.779C1207.12 404.855 1206.16 405.931 1205.19 407.007M1226.39 354.065C1225.96 329.853 1211.43 311.022 1189.26 309.193C1185.07 308.762 1180.76 309.085 1176.56 309.838M1134.06 398.721C1134.06 398.721 1139.98 401.089 1144.93 403.241C1147.62 404.317 1150.42 405.07 1153.32 405.285C1171.72 406.899 1190.98 391.404 1198.19 370.206M1199.7 365.471C1199.91 364.61 1200.13 363.642 1200.24 362.781M1173.55 316.833C1173.55 316.833 1182.05 321.137 1185.39 322.966C1196.58 329.208 1202.71 343.089 1200.78 359.23" stroke="#208A85" stroke-width="2" stroke-linecap="round" stroke-linejoin="round"/>
<path d="M1125.99 332.866C1121.26 339 1117.6 346.317 1115.55 354.172C1109.63 378.061 1121.15 398.936 1141.49 400.658C1161.72 402.487 1183.02 384.517 1188.94 360.628C1194.86 336.74 1183.34 315.864 1163.01 314.143C1156.12 313.497 1149.13 315.219 1142.67 318.662M1129.86 328.347C1130.72 327.486 1131.48 326.732 1132.34 325.872M1134.71 323.935C1136 322.966 1137.29 321.998 1138.58 321.029" stroke="#208A85" stroke-width="2" stroke-linecap="round" stroke-linejoin="round"/>
<path d="M1172.37 389.575C1172.37 389.575 1173.12 389.682 1175.17 390.543M1178.82 391.942C1180.22 392.48 1181.19 392.695 1182.7 393.233M1183.88 359.768C1184.31 358.046 1184.64 356.324 1184.85 354.603M1161.61 390.436C1155.47 393.987 1148.8 395.816 1142.24 395.278C1124.48 393.664 1114.26 375.263 1119.43 354.172C1124.59 332.974 1143.31 317.156 1161.07 318.662C1176.13 319.954 1185.82 333.404 1185.17 350.406M1167.42 386.347C1173.77 381.074 1179.04 373.649 1182.16 365.148" stroke="#208A85" stroke-width="2" stroke-linecap="round" stroke-linejoin="round"/>
<path d="M1142.78 343.735C1142.78 343.842 1142.89 343.842 1142.89 343.95C1142.78 344.488 1142.89 344.919 1143.21 345.349C1145.47 348.9 1147.73 352.774 1149.88 356.863C1150.42 357.939 1150.96 358.047 1152.03 357.508C1154.4 356.217 1156.77 354.926 1159.24 353.527C1160.64 352.666 1161.93 351.375 1162.9 349.653C1163.22 349.008 1163.55 348.362 1163.76 347.932C1163.22 349.546 1162.58 351.375 1161.82 353.204C1160.96 355.464 1159.56 357.078 1157.95 358.047C1155.37 359.553 1152.68 360.952 1150.2 362.136C1149.34 362.566 1148.8 362.136 1148.37 361.275C1147.94 360.414 1147.51 359.661 1147.19 358.8C1145.47 355.464 1143.75 352.343 1142.02 349.33C1141.7 348.792 1141.49 348.254 1141.7 347.609C1142.13 346.533 1142.46 345.457 1142.78 344.381C1142.78 344.273 1142.78 344.165 1142.78 344.165V343.735Z" fill="#208A85"/>
<path d="M1139.76 352.558L1139.87 352.666C1139.76 353.311 1139.98 353.742 1140.19 354.28C1141.16 356.109 1142.13 358.046 1143.1 359.983C1144.18 362.135 1145.25 364.395 1146.22 366.762C1146.76 368.161 1147.3 368.376 1148.48 367.838C1150.63 366.87 1152.78 365.794 1155.04 364.718C1156.34 363.964 1157.63 362.888 1158.6 361.167C1159.03 360.521 1159.24 359.768 1159.67 359.122C1158.92 361.059 1158.27 363.104 1157.41 365.04C1156.55 367.085 1155.26 368.484 1153.86 369.237C1151.39 370.528 1148.91 371.497 1146.54 372.465C1145.68 372.788 1145.14 372.25 1144.82 371.282C1144.28 370.098 1143.85 368.914 1143.32 367.731C1141.92 364.395 1140.41 361.167 1138.8 358.046C1138.47 357.508 1138.37 356.97 1138.58 356.324C1138.9 355.248 1139.33 354.172 1139.66 352.989C1139.66 352.881 1139.66 352.881 1139.66 352.773L1139.76 352.558Z" fill="#208A85"/>
<path d="M1147.83 344.38C1147.94 344.273 1147.94 344.273 1148.05 344.273C1149.45 343.519 1150.85 342.659 1152.25 341.905C1153.75 341.044 1155.15 340.614 1156.55 340.829C1157.84 340.937 1158.81 341.583 1159.56 342.766C1159.89 343.304 1160.21 343.95 1160.42 344.595C1160.85 345.672 1160.32 347.393 1159.35 348.469C1159.13 348.685 1159.03 348.685 1158.92 348.469C1158.81 348.254 1158.59 347.931 1158.49 347.716C1156.77 345.241 1154.4 344.811 1151.28 346.425C1150.74 346.64 1150.31 346.855 1149.77 347.07C1149.66 347.07 1149.56 347.07 1149.45 347.07C1148.91 346.317 1148.37 345.456 1147.83 344.703C1147.83 344.488 1147.83 344.488 1147.83 344.38Z" fill="#208A85"/>
</g>
<defs>
<clipPath id="clip0_7096_854">
<rect width="1280" height="520" fill="white"/>
</clipPath>
</defs>
</svg>
