<svg width="1440" height="585" viewBox="0 0 1440 585" fill="none" xmlns="http://www.w3.org/2000/svg">
<g clip-path="url(#clip0_7096_854)">
<path d="M1420.63 329.755V345.009M1407.25 463.382H1392M1399.63 471.009V455.755M1407.25 505.382H1392M1399.63 513.009V497.755M1407.25 484.382H1392M1399.63 492.009V476.755M1407.25 526.382H1392M1399.63 534.009V518.755M1386.25 463.382H1371M1378.63 471.009V455.755M1386.25 505.382H1371M1378.63 513.009V497.755M1386.25 484.382H1371M1378.63 492.009V476.755M1386.25 526.382H1371M1378.63 534.009V518.755M1365.25 505.382H1350M1357.63 513.009V497.755M1365.25 526.382H1350M1357.63 534.009V518.755M1428.25 379.382H1413M1420.62 387.009V371.755M1428.25 421.382H1413M1420.62 429.009V413.755M1428.25 400.382H1413M1420.62 408.009V392.755M1428.25 442.382H1413M1420.62 450.009V434.755M1407.25 421.382H1392M1399.63 429.009V413.755M1407.25 442.382H1392M1399.63 450.009V434.755M1428.25 547.382H1413M1420.62 555.009V539.755M1428.25 568.382H1413M1420.62 576.009V560.755M1407.25 547.382H1392M1399.63 555.009V539.755M1407.25 568.382H1392M1399.63 576.009V560.755M1386.25 547.382H1371M1378.63 555.009V539.755M1386.25 568.382H1371M1378.63 576.009V560.755M1365.25 547.382H1350M1357.63 555.009V539.755M1365.25 568.382H1350M1357.63 576.009V560.755M1344.25 547.382H1329M1336.63 555.009V539.755M1344.25 568.382H1329M1336.63 576.009V560.755M1323.25 568.382H1308M1315.63 576.009V560.755M1302.25 568.382H1287M1294.63 576.009V560.755M1391 357.382H1406.25M1398.63 349.755V365.009M1392 400.382H1407.25M1399.63 392.755V408.009M1392 379.382H1407.25M1399.63 371.755V387.009M1370 315.382H1385.26M1377.63 307.755V323.009M1391 336.382H1406.25M1398.63 328.755V344.009M1413 358.382H1428.26M1420.63 350.755V366.009M1413 337.382H1428.26" stroke="#002522" stroke-width="2"/>
<path d="M1356 449.627H1371.25M1363.63 442V457.254" stroke="#002522" stroke-width="2"/>
<path d="M1372 432.627H1387.25M1379.63 425V440.254" stroke="#002522" stroke-width="2"/>
<path d="M1350 478.627H1365.25M1357.63 471V486.254" stroke="#002522" stroke-width="2"/>
<path d="M1329 511.627H1344.25M1336.63 504V519.254" stroke="#002522" stroke-width="2"/>
<path d="M1443.33 203.634C1443.33 203.634 1447.67 206.501 1447.99 206.682C1448.3 206.863 1449.09 207.535 1448.7 209.122C1448.31 210.71 1435.94 251.68 1435.39 253.681C1434.84 255.683 1434.03 256.672 1431.71 257.193C1429.4 257.715 1390.52 266.318 1389.5 266.571C1388.47 266.823 1386.83 266.684 1386.09 265.658C1385.77 265.204 1380.96 259.476 1375.65 253.176M1371.73 248.528C1366.32 242.123 1361.41 236.313 1361.17 236.042C1360.64 235.439 1360.28 234.473 1360.68 232.762C1360.74 232.489 1361.01 231.151 1361.43 229.089M1363.02 221.118C1365.71 207.585 1369.76 187.085 1369.84 186.642C1369.95 185.995 1370.55 185.017 1372.11 185.001C1373.66 184.984 1393.47 185.327 1393.47 185.327M1372.93 187.02C1372.93 187.02 1399.86 208.58 1400.73 209.311C1401.6 210.042 1402.19 210.171 1404.13 210.224C1406.08 210.276 1445.94 207.483 1445.94 207.483M1402.32 210.188L1395.35 236.206M1392.2 247.956L1387.25 266.42" stroke="#002522" stroke-width="2" stroke-linecap="round"/>
<path d="M119.63 469.254V454M48 461.627H63.26H48ZM55.63 469.254V454V469.254ZM48 503.627H63.26H48ZM55.63 511.254V496V511.254ZM48 482.627H63.26H48ZM55.63 490.254V475V490.254ZM48 524.627H63.26H48ZM55.63 532.254V517V532.254ZM69 461.627H84.26H69ZM76.63 469.254V454V469.254ZM69 482.627H84.26H69ZM76.63 490.254V475V490.254ZM27 377.627H42.26H27ZM34.63 385.254V370V385.254ZM27 398.627H42.26H27ZM34.63 406.254V391V406.254ZM48 419.627H63.26H48ZM55.63 427.254V412V427.254ZM48 398.627H63.26H48ZM55.63 406.254V391V406.254ZM48 440.627H63.26H48ZM55.63 448.254V433V448.254ZM69 377.627H84.26H69ZM76.63 385.254V370V385.254ZM69 419.627H84.26H69ZM76.63 427.254V412V427.254ZM69 398.627H84.26H69ZM76.63 406.254V391V406.254ZM69 440.627H84.26H69ZM76.63 448.254V433V448.254ZM90 419.627H105.26H90ZM97.63 427.254V412V427.254ZM90 440.627H105.26H90ZM97.63 448.254V433V448.254ZM27 545.627H42.26H27ZM34.63 553.254V538V553.254ZM27 566.627H42.26H27ZM34.63 574.254V559V574.254ZM48 566.627H63.26H48ZM55.63 574.254V559V574.254ZM69 566.627H84.26H69ZM76.63 574.254V559V574.254ZM111 419.627H126.26H111ZM118.63 427.254V412V427.254ZM27 334.627H42.26H27ZM34.63 342.254V327V342.254ZM49 313.627H64.26H49ZM56.63 321.254V306V321.254ZM91 461.627H106.26H91ZM98.63 469.254V454V469.254ZM112 461.627H127.26H112Z" stroke="#002522" stroke-width="2"/>
<path d="M106.93 324.836C106.93 324.836 111.59 316.699 116.61 307.555C121.63 298.411 124.16 284.657 122.49 273.828C120.81 262.998 108.75 211.115 108.54 210.152C108.44 209.693 108.46 209.214 108.6 208.767C108.75 208.32 109.02 207.923 109.39 207.622C110.15 206.985 115.01 203.447 115.7 202.988C116.4 202.529 116.31 202.027 114.86 201.301C113.41 200.575 82.6902 185.992 81.1502 185.258C79.6002 184.525 77.5301 185.265 76.9401 188.629C76.3401 191.992 67.4602 236.212 67.2802 237.111C67.0902 238.01 68.1602 238.449 68.5402 238.377C68.9302 238.305 70.2202 238.072 70.6502 237.957C71.4102 237.646 72.1202 237.22 72.7502 236.693C73.7902 235.932 80.1802 230.803 80.7502 230.373C81.3202 229.944 82.0801 230.114 82.4401 231.218C82.8001 232.321 96.6001 278.162 99.3201 287.727C102.05 297.292 109.51 332.377 88.4102 353.496C50.4802 391.458 28.5702 353.518 11.7802 370.323C-11.5198 393.643 73.2602 462.323 19.4202 516.206M19.1802 516.941C21.4802 519.242 21.4802 522.973 19.1802 525.274C16.8802 527.575 13.1502 527.575 10.8502 525.274C8.55016 522.973 8.55016 519.242 10.8502 516.941C13.1502 514.64 16.8802 514.64 19.1802 516.941Z" stroke="#002522" stroke-width="2" stroke-linecap="round"/>
<path d="M85.8703 346.502C77.2403 356.905 69.2103 362.23 61.7103 364.636M42.4203 365.564C28.0003 363.098 15.7503 356.091 4.90033 366.952C-5.79967 377.664 2.86026 395.452 13.3303 416.378M17.5702 424.899C28.8502 447.893 39.9603 473.401 29.1603 497.578" stroke="#208A85" stroke-width="2" stroke-linecap="round"/>
<path d="M1290.72 488.643C1290.72 488.643 1298.16 491.654 1304.55 494.313C1307.96 495.721 1311.57 496.594 1315.25 496.901C1323.36 497.608 1331.59 495.718 1339.28 491.835M1342.96 386.583C1346.4 388.303 1353.08 391.657 1355.99 393.256C1365.63 398.552 1372.3 408.306 1374.82 420.363" stroke="#208A85" stroke-width="2" stroke-linecap="round" stroke-linejoin="round"/>
<path d="M1276.22 469.215C1281.54 477.691 1290.05 483.314 1300.73 484.221C1310.63 485.064 1320.76 481.709 1329.57 475.443M1338.82 467.255C1337.66 468.515 1336.45 469.727 1335.19 470.885M1318.57 388.133C1320.68 387.942 1322.81 387.934 1324.92 388.112C1344.05 389.737 1356.24 406.491 1355.5 427.676M1343.69 461.273C1342.9 462.383 1342.07 463.465 1341.2 464.521M1288.8 480.878C1286.79 478.347 1285.24 475.829 1283.89 472.673M1332.79 396.925C1333.79 397.01 1334.77 397.144 1335.74 397.327M1338.41 397.963C1342.95 399.271 1347.22 402.306 1350.82 405.592" stroke="#002522" stroke-width="2" stroke-linecap="round" stroke-linejoin="round"/>
<path d="M1270.73 469.142C1272.58 473.187 1274.97 476.808 1277.86 479.887M1286.23 486.492C1290.54 488.94 1295.46 490.495 1300.87 490.967C1313.26 492.048 1325.95 487.241 1336.57 478.55M1284.25 485.289C1283.21 484.6 1282.2 483.854 1281.23 483.056M1345.41 469.844C1344.53 470.876 1343.62 471.882 1342.69 472.862M1362.43 423.635C1361.94 401.128 1348.48 383.687 1327.93 381.893C1323.99 381.55 1320.01 381.801 1316.09 382.585M1276.56 465.133C1276.56 465.133 1282.02 467.368 1286.7 469.341C1289.2 470.386 1291.85 471.036 1294.55 471.267C1311.67 472.801 1329.56 458.377 1336.26 438.663M1337.55 434.247C1337.75 433.406 1337.94 432.569 1338.1 431.737M1313.32 389.005C1313.32 389.005 1321.23 392.979 1324.28 394.675C1334.68 400.455 1340.4 413.371 1338.62 428.338" stroke="#208A85" stroke-width="2" stroke-linecap="round" stroke-linejoin="round"/>
<path d="M1269.1 403.955C1264.68 409.648 1261.28 416.419 1259.44 423.8C1253.91 446.023 1264.68 465.361 1283.49 466.993C1302.31 468.624 1322.05 451.932 1327.58 429.71C1333.11 407.488 1322.34 388.15 1303.53 386.518C1297.14 385.964 1290.64 387.521 1284.64 390.691M1272.73 399.754C1273.48 398.972 1274.26 398.213 1275.06 397.48M1277.18 395.649C1278.34 394.707 1279.53 393.821 1280.77 392.994" stroke="#208A85" stroke-width="2" stroke-linecap="round" stroke-linejoin="round"/>
<path d="M1312.15 456.608C1312.15 456.608 1312.83 456.696 1314.77 457.463M1318.2 458.821C1319.53 459.343 1320.38 459.496 1321.84 460.068M1322.87 428.991C1323.26 427.412 1323.56 425.812 1323.78 424.199M1302.18 457.459C1296.52 460.785 1290.29 462.464 1284.17 461.923C1267.64 460.46 1258.16 443.346 1263 423.697C1267.84 404.048 1285.16 389.304 1301.69 390.767C1315.71 392.007 1324.66 404.506 1324.11 420.26M1307.61 453.625C1313.53 448.676 1318.44 441.846 1321.34 433.975" stroke="#208A85" stroke-width="2" stroke-linecap="round" stroke-linejoin="round"/>
<path d="M1277.4 418.228C1277.45 418.271 1277.54 418.303 1277.55 418.359C1277.64 418.912 1277.99 419.227 1278.41 419.455C1282.3 421.596 1286.22 423.824 1290.19 426.118C1291.15 426.685 1291.88 426.538 1292.74 425.705C1294.7 423.781 1296.66 421.83 1298.6 419.848C1299.69 418.712 1300.45 417.341 1300.78 415.708C1300.89 415.137 1300.91 414.548 1300.94 414.181C1301.05 415.537 1301.25 417.093 1301.26 418.665C1301.26 420.602 1300.54 422.313 1299.27 423.653C1297.15 425.856 1294.97 427.97 1292.78 430.046C1292.06 430.714 1291.26 430.668 1290.49 430.245C1289.7 429.814 1288.92 429.374 1288.15 428.914C1284.99 427.043 1281.85 425.216 1278.73 423.453C1278.2 423.157 1277.77 422.774 1277.65 422.108C1277.6 421 1277.56 419.891 1277.5 418.784C1277.5 418.7 1277.45 418.625 1277.42 418.546L1277.4 418.229L1277.4 418.228Z" fill="#002522"/>
<path d="M1277.82 427.185C1277.87 427.212 1277.95 427.228 1277.96 427.264C1278.05 427.883 1278.48 428.203 1278.95 428.478C1280.75 429.551 1282.55 430.657 1284.39 431.737C1286.43 432.954 1288.5 434.154 1290.58 435.389C1291.77 436.107 1292.4 436.043 1293.48 435.057C1295.4 433.29 1297.29 431.481 1299.18 429.663C1300.31 428.568 1301.12 427.251 1301.48 425.622C1301.61 425.015 1301.63 424.385 1301.77 423.752C1301.85 425.447 1302.02 427.14 1301.97 428.833C1301.91 430.646 1301.15 432.208 1299.94 433.414C1297.81 435.509 1295.61 437.515 1293.41 439.493C1292.64 440.179 1291.8 440.073 1290.99 439.591C1289.94 438.969 1288.89 438.348 1287.86 437.704C1284.91 435.881 1281.98 434.09 1279.07 432.354C1278.55 432.048 1278.17 431.632 1278.06 430.992C1278.01 429.869 1277.96 428.745 1277.91 427.623C1277.91 427.551 1277.86 427.488 1277.83 427.421L1277.82 427.182L1277.82 427.185Z" fill="#002522"/>
<path d="M1282.9 416.868C1282.96 416.777 1282.99 416.711 1283.03 416.665C1284.17 415.538 1285.28 414.371 1286.45 413.271C1287.65 412.124 1289 411.31 1290.52 410.992C1291.93 410.696 1293.24 410.93 1294.46 411.564C1295.05 411.874 1295.62 412.232 1296.16 412.649C1297.03 413.327 1297.22 414.805 1296.64 415.929C1296.51 416.179 1296.36 416.221 1296.16 416.113C1295.89 415.965 1295.61 415.812 1295.33 415.673C1292.51 414.289 1289.82 414.835 1287.24 417.195C1286.83 417.566 1286.42 417.943 1286 418.299C1285.91 418.37 1285.74 418.422 1285.67 418.383C1284.79 417.935 1283.92 417.473 1283.06 417.016C1283.01 416.989 1282.97 416.935 1282.9 416.867L1282.9 416.868Z" fill="#002522"/>
</g>
<defs>
<clipPath id="clip0_7096_854">
<rect width="1440" height="585" fill="white"/>
</clipPath>
</defs>
</svg>
