<svg width="1280" height="520" viewBox="0 0 1280 520" fill="none" xmlns="http://www.w3.org/2000/svg">
<g clip-path="url(#clip0_7096_854)">
<path d="M1266.21 316.483V326.826M1257.17 407.087H1246.86M1252.02 412.259V401.916M1257.17 435.565H1246.86M1252.02 440.736V430.394M1257.17 421.326H1246.86M1252.02 426.498V416.155M1257.17 449.804H1246.86M1252.02 454.975V444.632M1242.98 407.087H1232.67M1237.83 412.259V401.916M1242.98 435.565H1232.67M1237.83 440.736V430.394M1242.98 421.326H1232.67M1237.83 426.498V416.155M1242.98 449.804H1232.67M1237.83 454.975V444.632M1228.79 435.565H1218.48M1223.64 440.736V430.394M1228.79 449.804H1218.48M1223.64 454.975V444.632M1271.36 350.132H1261.06M1266.21 355.303V344.961M1271.36 378.61H1261.06M1266.21 383.781V373.438M1271.36 364.371H1261.06M1266.21 369.542V359.199M1271.36 392.848H1261.06M1266.21 398.02V387.677M1257.17 378.61H1246.86M1252.02 383.781V373.438M1257.17 392.848H1246.86M1252.02 398.02V387.677M1271.36 464.043H1261.06M1266.21 469.214V458.871M1271.36 478.281H1261.06M1266.21 483.453V473.11M1257.17 464.043H1246.86M1252.02 469.214V458.871M1257.17 478.281H1246.86M1252.02 483.453V473.11M1242.98 464.043H1232.67M1237.83 469.214V458.871M1242.98 478.281H1232.67M1237.83 483.453V473.11M1228.79 464.043H1218.48M1223.64 469.214V458.871M1228.79 478.281H1218.48M1223.64 483.453V473.11M1214.6 464.043H1204.29M1209.44 469.214V458.871M1246.19 335.215H1256.5M1251.34 330.044V340.387M1246.87 364.371H1257.17M1252.02 359.199V369.542M1246.87 350.132H1257.17M1252.02 344.961V355.303M1246.19 320.977H1256.5M1251.34 315.805V326.148M1261.06 335.893H1271.37M1266.21 330.722V341.065M1261.06 321.655H1271.37M1209.44 478.281L1214.6 478.281H1204.29L1209.44 478.281ZM1209.44 478.281V483.453V473.11V478.281ZM1195.25 478.281L1200.41 478.281H1190.1L1195.25 478.281ZM1195.25 478.281V483.453V473.11V478.281ZM1181.06 478.281L1186.22 478.281H1175.91L1181.06 478.281ZM1181.06 478.281V483.453V473.11V478.281ZM1170.12 478.281H1164.97M1164.97 478.281H1159.81M1164.97 478.281V483.453M1164.97 478.281V473.11M1155.93 478.281H1150.78M1150.78 478.281H1145.62M1150.78 478.281V483.453M1150.78 478.281V473.11M1141.74 478.281H1136.58M1136.58 478.281H1131.43M1136.58 478.281V483.453M1136.58 478.281V473.11M1272.19 206.966H1261.88M1267.04 212.137V201.794M1272.19 235.443H1261.88M1267.04 240.615V230.272M1272.19 221.205H1261.88M1267.04 226.376V216.033M1272.19 249.682H1261.88M1267.04 254.853V244.511M1255.88 206.966H1250.73M1250.73 206.966H1245.58M1250.73 206.966V212.137M1250.73 206.966V201.794M1256.3 221.205H1251.14M1251.14 221.205H1245.99M1251.14 221.205V226.376M1251.14 221.205V216.033M1239.98 221.205H1234.83M1234.83 221.205H1229.67M1234.83 221.205V226.376M1234.83 221.205V216.033M1272.19 189.337H1267.04M1267.04 189.337H1261.88M1267.04 189.337V194.509M1267.04 189.337V184.166M1272.19 103.557H1267.04M1267.04 103.557H1261.88M1267.04 103.557V108.729M1267.04 103.557V98.3859M1272.19 86.1954H1267.04M1267.04 86.1954H1261.88M1267.04 86.1954V91.3668M1267.04 86.1954V81.024M1255.88 86.1954H1250.73M1250.73 86.1954H1245.58M1250.73 86.1954V91.3668M1250.73 86.1954V81.024M1272.19 68.8334H1267.04M1267.04 68.8334H1261.88M1267.04 68.8334V74.0048M1267.04 68.8334V63.662" stroke="#19524F" stroke-width="2"/>
<path d="M1246.18 306.737H1256.49M1251.34 301.566V311.909" stroke="#19524F" stroke-width="2"/>
<path d="M1245.36 290.202H1255.66M1250.51 285.03V295.373" stroke="#19524F" stroke-width="2"/>
<path d="M1231.3 335.674H1241.61M1236.45 330.502V340.845" stroke="#19524F" stroke-width="2"/>
<path d="M1231.3 350.556H1241.61M1236.45 345.384V355.727" stroke="#19524F" stroke-width="2"/>
<path d="M1231.3 364.61H1241.61M1236.45 359.439V369.782" stroke="#19524F" stroke-width="2"/>
<path d="M1215.59 364.61H1225.9M1220.75 359.439V369.782" stroke="#19524F" stroke-width="2"/>
<path d="M1232.96 392.72H1243.26M1238.11 387.548V397.891" stroke="#19524F" stroke-width="2"/>
<path d="M1215.59 406.775H1225.9M1220.75 401.604V411.946" stroke="#19524F" stroke-width="2"/>
<path d="M1189.14 441.499H1199.45M1194.29 436.327V446.67" stroke="#19524F" stroke-width="2"/>
<path d="M1175.91 463.821H1186.22M1181.06 458.65V468.993" stroke="#19524F" stroke-width="2"/>
<path d="M1261.06 306.737H1271.37M1266.22 301.566V311.909" stroke="#19524F" stroke-width="2"/>
<path d="M1261.06 290.202H1271.37M1266.22 285.03V295.373" stroke="#19524F" stroke-width="2"/>
<path d="M968.683 460.868H958.247M963.465 466.086V455.65M968.683 475.235H958.247M963.465 480.453V470.017M954.316 460.868H943.881M949.098 466.086V455.65M954.316 475.235H943.881M949.098 480.453V470.017M939.949 460.868H929.514M934.731 466.086V455.65M939.949 475.235H929.514M934.731 480.453V470.017M925.583 460.868H915.147M920.365 466.086V455.65M925.583 475.235H915.147M920.365 480.453V470.017M911.216 460.868H900.78M905.998 466.086V455.65M911.216 475.235H900.78M905.998 480.453V470.017M896.849 475.235H886.414M891.631 480.453V470.017M882.483 475.235H872.047M877.265 480.453V470.017" stroke="#19524F" stroke-width="2"/>
<path d="M238.133 456.995H225.521M231.827 463.3V450.689M238.133 474.357H225.521M231.827 480.662V468.051M220.772 456.995H208.16M214.466 463.3V450.689M220.772 474.357H208.16M214.466 480.662V468.051M203.41 456.995H190.798M197.104 463.3V450.689M203.41 474.357H190.798M197.104 480.662V468.051M186.048 456.995H173.437M179.742 463.3V450.689M186.048 474.357H173.437M179.742 480.662V468.051M168.686 456.995H156.075M162.381 463.3V450.689M168.686 474.357H156.075M162.381 480.662V468.051M151.325 474.357H138.713M145.019 480.662V468.051M133.963 474.357H121.352M127.657 480.662V468.051M114.946 474.357H108.641M108.641 474.357H102.335M108.641 474.357V480.662M108.641 474.357V468.051M97.5852 474.357H91.2796M91.2796 474.357H84.9739M91.2796 474.357V480.662M91.2796 474.357V468.051M80.2232 474.357H73.9176M73.9176 474.357H67.612M73.9176 474.357V480.662M73.9176 474.357V468.051M62.8616 474.357H56.5559M56.5559 474.357H50.2503M56.5559 474.357V480.662M56.5559 474.357V468.051M45.4998 474.357H39.1943M39.1943 474.357H32.8887M39.1943 474.357V480.662M39.1943 474.357V468.051" stroke="#19524F" stroke-width="2"/>
<path d="M509.928 466.089H522.539M516.233 459.783V472.395" stroke="#19524F" stroke-width="2"/>
<path d="M278.436 459.475H291.047M284.741 453.169V465.78" stroke="#19524F" stroke-width="2"/>
<path d="M685.199 467.743H697.81M691.505 461.437V474.048" stroke="#19524F" stroke-width="2"/>
<path d="M696.293 450.38H708.904M702.599 444.075V456.686" stroke="#19524F" stroke-width="2"/>
<path d="M706.695 468.262H719.306M713.001 461.957V474.568" stroke="#19524F" stroke-width="2"/>
<path d="M1266.27 125.99C1266.27 125.99 1269.87 128.36 1270.13 128.51C1270.39 128.66 1271.04 129.215 1270.72 130.527C1270.4 131.84 1260.17 165.712 1259.71 167.367C1259.26 169.022 1258.59 169.84 1256.67 170.27C1254.76 170.702 1222.62 177.814 1221.77 178.024C1220.92 178.232 1219.56 178.117 1218.95 177.269C1218.68 176.893 1214.71 172.158 1210.32 166.949M1207.08 163.107C1202.61 157.811 1198.55 153.008 1198.35 152.784C1197.91 152.285 1197.61 151.486 1197.94 150.072C1198 149.846 1198.22 148.74 1198.56 147.035M1199.88 140.445C1202.11 129.257 1205.46 112.308 1205.52 111.942C1205.61 111.407 1206.11 110.598 1207.39 110.585C1208.68 110.572 1225.05 110.855 1225.05 110.855M1208.07 112.255C1208.07 112.255 1230.33 130.079 1231.06 130.684C1231.78 131.288 1232.26 131.395 1233.87 131.438C1235.48 131.481 1268.44 129.172 1268.44 129.172M1232.37 131.409L1226.61 152.919M1224 162.634L1219.91 177.899" stroke="#19524F" stroke-width="2" stroke-linecap="round"/>
<path d="M110.03 382.21V370.974M57.2674 376.592H68.5079H57.2674ZM62.8877 382.21V370.974V382.21ZM57.2674 407.53H68.5079H57.2674ZM62.8877 413.148V401.911V413.148ZM57.2674 392.061H68.5079H57.2674ZM62.8877 397.679V386.443V397.679ZM57.2674 422.998H68.5079H57.2674ZM62.8877 428.616V417.38V428.616ZM72.736 376.592H83.9765H72.736ZM78.3563 382.21V370.974V382.21ZM72.736 392.061H83.9765H72.736ZM78.3563 397.679V386.443V397.679ZM41.7988 314.718H53.0393H41.7988ZM47.4191 320.336V309.1V320.336ZM41.7988 330.187H53.0393H41.7988ZM47.4191 335.805V324.568V335.805ZM57.2674 345.655H68.5079H57.2674ZM62.8877 351.273V340.037V351.273ZM57.2674 330.187H68.5079H57.2674ZM62.8877 335.805V324.568V335.805ZM57.2674 361.124H68.5079H57.2674ZM62.8877 366.742V355.506V366.742ZM72.736 314.718H83.9765H72.736ZM78.3563 320.336V309.1V320.336ZM72.736 345.655H83.9765H72.736ZM78.3563 351.273V340.037V351.273ZM72.736 330.187H83.9765H72.736ZM78.3563 335.805V324.568V335.805ZM72.736 361.124H83.9765H72.736ZM78.3563 366.742V355.506V366.742ZM88.2046 345.655H99.4451H88.2046ZM93.8249 351.273V340.037V351.273ZM88.2046 361.124H99.4451H88.2046ZM93.8249 366.742V355.506V366.742ZM41.7988 438.467H53.0393H41.7988ZM47.4191 444.085V432.849V444.085ZM41.7988 453.935H53.0393H41.7988ZM47.4191 459.553V448.317V459.553ZM57.2674 453.935H68.5079H57.2674ZM62.8877 459.553V448.317V459.553ZM72.736 453.935H83.9765H72.736ZM78.3563 459.553V448.317V459.553ZM103.673 345.655H114.914H103.673ZM109.293 351.273V340.037V351.273ZM41.7988 283.044H53.0393H41.7988ZM47.4191 288.662V277.426V288.662ZM58.004 267.576H69.2445H58.004ZM63.6243 273.194V261.958V273.194ZM88.9412 376.592H100.182H88.9412ZM94.5615 382.21V370.974V382.21ZM104.41 376.592H115.65H104.41Z" stroke="#19524F" stroke-width="2"/>
<path d="M104.726 256.507C104.726 256.507 109.289 248.538 114.206 239.583C119.122 230.627 121.6 217.156 119.965 206.551C118.319 195.944 106.508 145.13 106.302 144.187C106.204 143.737 106.224 143.268 106.361 142.83C106.508 142.393 106.772 142.004 107.135 141.709C107.879 141.085 112.639 137.62 113.315 137.171C114 136.721 113.912 136.229 112.492 135.518C111.072 134.807 80.985 120.525 79.4768 119.806C77.9587 119.088 75.9313 119.813 75.3535 123.107C74.7658 126.401 66.0689 169.71 65.8926 170.59C65.7065 171.471 66.7545 171.901 67.1267 171.83C67.5086 171.76 68.772 171.531 69.1932 171.419C69.9375 171.114 70.6329 170.697 71.2499 170.181C72.2684 169.436 78.5267 164.412 79.085 163.991C79.6433 163.571 80.3875 163.737 80.7401 164.819C81.0927 165.899 94.6083 210.795 97.2722 220.163C99.946 229.531 107.252 263.893 86.5872 284.577C49.4389 321.756 27.9804 284.598 11.5364 301.057C-11.2834 323.896 71.7494 391.161 19.019 443.934M18.7839 444.653C21.0365 446.907 21.0365 450.561 18.7839 452.815C16.5313 455.068 12.8781 455.068 10.6255 452.815C8.37293 450.561 8.37293 446.907 10.6255 444.653C12.8781 442.4 16.5313 442.4 18.7839 444.653Z" stroke="#19524F" stroke-width="2" stroke-linecap="round"/>
<path d="M84.1006 277.727C75.6485 287.916 67.7839 293.131 60.4385 295.487M41.5461 296.396C27.4233 293.981 15.4257 287.118 4.79934 297.756C-5.68015 308.247 2.80131 325.668 13.0555 346.163M17.2081 354.508C28.2557 377.029 39.1368 402.011 28.5594 425.69" stroke="#208A85" stroke-width="2" stroke-linecap="round"/>
<path d="M1149.23 384.009C1149.23 384.009 1157.2 387.237 1164.08 390.142C1167.74 391.649 1171.61 392.617 1175.6 392.94C1184.31 393.693 1193.14 391.649 1201.42 387.452M1205.51 274.143C1209.17 275.972 1216.38 279.63 1219.5 281.352C1229.83 287.055 1237.04 297.493 1239.73 310.514" stroke="#208A85" stroke-width="2" stroke-linecap="round" stroke-linejoin="round"/>
<path d="M1133.63 363.133C1139.33 372.28 1148.48 378.306 1159.99 379.274C1170.65 380.135 1181.52 376.584 1190.99 369.805M1200.99 360.981C1199.7 362.38 1198.41 363.671 1197.12 364.855M1179.26 275.865C1181.52 275.649 1183.78 275.649 1186.04 275.865C1206.7 277.586 1219.72 295.556 1218.96 318.369M1206.27 354.525C1205.4 355.708 1204.54 356.892 1203.57 357.968M1147.19 375.616C1145.04 372.925 1143.32 370.235 1141.92 366.792M1194.54 285.334C1195.61 285.441 1196.69 285.549 1197.76 285.764M1200.56 286.41C1205.4 287.809 1210.03 291.037 1213.91 294.588" stroke="#19524F" stroke-width="2" stroke-linecap="round" stroke-linejoin="round"/>
<path d="M1127.71 363.026C1129.65 367.33 1132.23 371.311 1135.35 374.539M1144.39 381.641C1149.02 384.224 1154.29 385.946 1160.1 386.484C1173.44 387.667 1187.11 382.502 1198.52 373.14M1142.35 380.35C1141.27 379.597 1140.09 378.844 1139.12 377.983M1208.09 363.779C1207.12 364.855 1206.16 365.931 1205.19 367.007M1226.39 314.065C1225.96 289.853 1211.43 271.022 1189.26 269.193C1185.07 268.762 1180.76 269.085 1176.56 269.838M1134.06 358.721C1134.06 358.721 1139.98 361.089 1144.93 363.241C1147.62 364.317 1150.42 365.07 1153.32 365.285C1171.72 366.899 1190.98 351.404 1198.19 330.206M1199.7 325.471C1199.91 324.61 1200.13 323.642 1200.24 322.781M1173.55 276.833C1173.55 276.833 1182.05 281.137 1185.39 282.966C1196.58 289.208 1202.71 303.089 1200.78 319.23" stroke="#208A85" stroke-width="2" stroke-linecap="round" stroke-linejoin="round"/>
<path d="M1125.99 292.866C1121.26 299 1117.6 306.317 1115.55 314.172C1109.63 338.061 1121.15 358.936 1141.49 360.658C1161.72 362.487 1183.02 344.517 1188.94 320.628C1194.86 296.74 1183.34 275.864 1163.01 274.143C1156.12 273.497 1149.13 275.219 1142.67 278.662M1129.86 288.347C1130.72 287.486 1131.48 286.732 1132.34 285.872M1134.71 283.935C1136 282.966 1137.29 281.998 1138.58 281.029" stroke="#208A85" stroke-width="2" stroke-linecap="round" stroke-linejoin="round"/>
<path d="M1172.37 349.575C1172.37 349.575 1173.12 349.682 1175.17 350.543M1178.82 351.942C1180.22 352.48 1181.19 352.695 1182.7 353.233M1183.88 319.768C1184.31 318.046 1184.64 316.324 1184.85 314.603M1161.61 350.436C1155.47 353.987 1148.8 355.816 1142.24 355.278C1124.48 353.664 1114.26 335.263 1119.43 314.172C1124.59 292.974 1143.31 277.156 1161.07 278.662C1176.13 279.954 1185.82 293.404 1185.17 310.406M1167.42 346.347C1173.77 341.074 1179.04 333.649 1182.16 325.148" stroke="#208A85" stroke-width="2" stroke-linecap="round" stroke-linejoin="round"/>
<path d="M1142.78 303.735C1142.78 303.842 1142.89 303.842 1142.89 303.95C1142.78 304.488 1142.89 304.919 1143.21 305.349C1145.47 308.9 1147.73 312.774 1149.88 316.863C1150.42 317.939 1150.96 318.047 1152.03 317.508C1154.4 316.217 1156.77 314.926 1159.24 313.527C1160.64 312.666 1161.93 311.375 1162.9 309.653C1163.22 309.008 1163.55 308.362 1163.76 307.932C1163.22 309.546 1162.58 311.375 1161.82 313.204C1160.96 315.464 1159.56 317.078 1157.95 318.047C1155.37 319.553 1152.68 320.952 1150.2 322.136C1149.34 322.566 1148.8 322.136 1148.37 321.275C1147.94 320.414 1147.51 319.661 1147.19 318.8C1145.47 315.464 1143.75 312.343 1142.02 309.33C1141.7 308.792 1141.49 308.254 1141.7 307.609C1142.13 306.533 1142.46 305.457 1142.78 304.381C1142.78 304.273 1142.78 304.165 1142.78 304.165V303.735Z" fill="#208A85"/>
<path d="M1139.76 312.558L1139.87 312.666C1139.76 313.311 1139.98 313.742 1140.19 314.28C1141.16 316.109 1142.13 318.046 1143.1 319.983C1144.18 322.135 1145.25 324.395 1146.22 326.762C1146.76 328.161 1147.3 328.376 1148.48 327.838C1150.63 326.87 1152.78 325.794 1155.04 324.718C1156.34 323.964 1157.63 322.888 1158.6 321.167C1159.03 320.521 1159.24 319.768 1159.67 319.122C1158.92 321.059 1158.27 323.104 1157.41 325.04C1156.55 327.085 1155.26 328.484 1153.86 329.237C1151.39 330.528 1148.91 331.497 1146.54 332.465C1145.68 332.788 1145.14 332.25 1144.82 331.282C1144.28 330.098 1143.85 328.914 1143.32 327.731C1141.92 324.395 1140.41 321.167 1138.8 318.046C1138.47 317.508 1138.37 316.97 1138.58 316.324C1138.9 315.248 1139.33 314.172 1139.66 312.989C1139.66 312.881 1139.66 312.881 1139.66 312.773L1139.76 312.558Z" fill="#208A85"/>
<path d="M1147.83 304.38C1147.94 304.273 1147.94 304.273 1148.05 304.273C1149.45 303.519 1150.85 302.659 1152.25 301.905C1153.75 301.044 1155.15 300.614 1156.55 300.829C1157.84 300.937 1158.81 301.583 1159.56 302.766C1159.89 303.304 1160.21 303.95 1160.42 304.595C1160.85 305.672 1160.32 307.393 1159.35 308.469C1159.13 308.685 1159.03 308.685 1158.92 308.469C1158.81 308.254 1158.59 307.931 1158.49 307.716C1156.77 305.241 1154.4 304.811 1151.28 306.425C1150.74 306.64 1150.31 306.855 1149.77 307.07C1149.66 307.07 1149.56 307.07 1149.45 307.07C1148.91 306.317 1148.37 305.456 1147.83 304.703C1147.83 304.488 1147.83 304.488 1147.83 304.38Z" fill="#208A85"/>
</g>
<defs>
<clipPath id="clip0_7096_854">
<rect width="1280" height="520" fill="white"/>
</clipPath>
</defs>
</svg>
