<svg width="300" height="300" viewBox="0 0 300 300" fill="none" xmlns="http://www.w3.org/2000/svg">
<g clip-path="url(#clip0_7095_836)">
<path d="M150 300C232.843 300 300 232.843 300 150C300 67.1573 232.843 0 150 0C67.1573 0 0 67.1573 0 150C0 232.843 67.1573 300 150 300Z" fill="#0DC18C"/>
<path d="M251.209 91.6426L238.162 90.8799C237.232 90.8195 236.354 90.43 235.685 89.7811C235.017 89.1323 234.601 88.2666 234.512 87.3391L233.368 75.2727C233.332 75.0713 233.226 74.889 233.07 74.7577C232.913 74.6265 232.715 74.5545 232.51 74.5545C232.306 74.5545 232.108 74.6265 231.951 74.7577C231.794 74.889 231.688 75.0713 231.652 75.2727L230.481 87.3391C230.403 88.2707 229.991 89.1426 229.32 89.7936C228.649 90.4446 227.765 90.8305 226.831 90.8799L213.784 91.6971C213.583 91.7331 213.4 91.8388 213.269 91.9956C213.138 92.1525 213.066 92.3506 213.066 92.5551C213.066 92.7597 213.138 92.9577 213.269 93.1146C213.4 93.2714 213.583 93.377 213.784 93.413L226.831 94.1757C227.759 94.2415 228.634 94.6329 229.302 95.2807C229.969 95.9284 230.387 96.7911 230.481 97.7167L231.625 109.783C231.661 109.984 231.767 110.167 231.923 110.298C232.08 110.429 232.278 110.501 232.483 110.501C232.687 110.501 232.885 110.429 233.042 110.298C233.199 110.167 233.305 109.984 233.341 109.783L234.485 97.7167C234.574 96.7891 234.989 95.9234 235.658 95.2746C236.327 94.6258 237.205 94.2362 238.135 94.1757L251.209 93.3586C251.41 93.3226 251.593 93.2169 251.724 93.06C251.855 92.9032 251.927 92.7052 251.927 92.5006C251.927 92.2961 251.855 92.098 251.724 91.9412C251.593 91.7843 251.41 91.6786 251.209 91.6426Z" fill="#002825"/>
<path fill-rule="evenodd" clip-rule="evenodd" d="M223.782 136.858L225.934 138.383C227.833 139.666 229.319 141.473 230.21 143.585C230.639 144.77 230.806 146.034 230.7 147.29C230.603 148.269 230.449 149.243 230.237 150.204C229.796 152.101 229.109 153.932 228.194 155.652C227.711 156.531 227.155 157.37 226.533 158.158L226.233 158.566L226.614 160.99C226.733 161.957 226.797 162.93 226.805 163.905C226.78 167.767 225.912 171.576 224.26 175.068C222.609 178.559 220.214 181.647 217.245 184.115L216.891 184.415L216.455 184.551C212.647 185.917 208.74 186.991 204.77 187.765C200.715 188.619 196.572 188.975 192.431 188.827H192.159H191.832C183.646 186.228 175.211 184.494 166.664 183.652C166.119 183.604 165.567 183.561 165.009 183.517C163.362 183.389 161.658 183.256 159.909 182.971C157.597 182.609 155.326 182.026 153.127 181.228C149.306 179.901 145.295 179.202 141.251 179.158H141.115C139.935 180.996 139.15 183.058 138.808 185.214C138.465 187.371 138.574 189.575 139.126 191.687C140.169 196.981 142.006 202.087 144.574 206.832C147.52 211.823 150.158 216.989 152.473 222.303C153.722 225.119 154.636 228.072 155.197 231.101C155.786 234.404 155.543 237.802 154.488 240.988L153.154 244.774L149.913 242.377C149.425 242.029 148.905 241.728 148.36 241.478C148.112 243.315 147.748 245.135 147.27 246.926C146.357 250.049 145.048 253.042 143.375 255.833C141.155 238.148 128.787 233.081 116.699 228.129C111.286 225.912 105.929 223.717 101.565 220.423C87.4556 209.773 86.3116 197.326 95.0277 175.535C97.6883 168.834 99.6241 161.866 100.803 154.753C101.048 153.146 101.347 151.566 101.702 149.986C101.731 149.765 101.777 149.547 101.838 149.332L102.083 148.216C102.115 148.933 102.135 149.647 102.155 150.359C102.204 152.083 102.252 153.792 102.464 155.488C102.595 157.802 103.054 160.085 103.826 162.27C104.177 163.198 104.704 164.049 105.379 164.776C105.572 165.002 105.784 165.198 106.032 165.429C106.204 165.588 106.393 165.763 106.604 165.975C106.964 166.386 107.356 166.769 107.776 167.119C109.509 168.446 111.439 169.493 113.495 170.224C117.843 171.743 122.363 172.713 126.951 173.111C131.364 173.629 135.858 173.819 140.379 173.819H141.06C145.75 173.853 150.404 174.644 154.843 176.162C158.805 177.501 162.946 178.236 167.127 178.341C175.921 179.188 184.602 180.95 193.03 183.598C196.623 183.693 200.215 183.373 203.735 182.644C206.241 182.154 208.719 181.473 211.171 180.738C216.645 178.423 220.268 172.158 212.859 172.975C211.11 173.096 209.371 173.342 207.657 173.71C206.318 173.955 204.995 174.443 203.579 174.966C202.314 175.432 200.976 175.926 199.486 176.298C196.466 177.008 193.316 176.933 190.334 176.08C187.73 175.004 184.972 174.351 182.162 174.146C183.47 173.396 184.934 172.958 186.439 172.866C187.52 172.756 188.491 172.794 189.425 172.831C189.879 172.849 190.324 172.866 190.769 172.866C193.321 173.189 195.909 173.078 198.423 172.539C199.693 172.176 200.988 171.478 202.387 170.724C203.509 170.119 204.698 169.477 205.995 168.944C208.834 167.749 211.877 167.111 214.957 167.064H216.809C218.961 164.068 220.786 160.745 220.077 158.021C219.239 156.898 218.081 156.053 216.754 155.597C216.403 155.474 215.718 155.296 214.829 155.064C211.584 154.22 205.629 152.669 203.299 150.531C201.556 148.76 202.591 145.192 209.727 143.721C213.01 143.151 216.357 143.05 219.669 143.422C220.801 143.62 221.966 143.516 223.046 143.122L222.638 142.768L220.568 141.297L218.47 139.717L210.299 133.48C208.964 132.472 207.548 131.437 206.24 130.593L205.587 130.211L204.307 129.667C203.462 129.313 202.618 128.904 201.774 128.468C199.165 127.079 196.748 125.358 194.583 123.348C186.602 116.647 177.668 100.468 175.326 95.1836C173.456 91.12 170.161 87.8832 166.065 86.0862C168.075 85.974 170.085 86.323 171.941 87.1067C173.796 87.8903 175.448 89.0878 176.769 90.6076C177.455 91.1761 178.736 93.0301 180.283 95.2693C183.405 99.7891 187.611 105.878 190.197 106.133C191.588 106.081 192.968 105.871 194.31 105.507C193.023 104.268 191.848 102.919 190.797 101.476C189.397 99.6295 188.314 97.723 187.268 95.8799C186.909 95.2483 186.555 94.6241 186.193 94.0123C184.991 91.7166 183.539 89.5608 181.863 87.5842C181.478 87.1781 181.069 86.796 180.637 86.4402C180.185 86.1041 179.701 85.8123 179.193 85.5686C178.077 84.9966 176.933 84.5063 175.516 83.9615C174.1 83.4168 172.847 82.9265 171.376 82.1911L167.563 80.2845L159.936 76.5801C154.905 74.164 149.729 72.0627 144.438 70.2881C139.198 68.5643 133.795 67.3868 128.313 66.7744C127.012 66.6015 125.703 66.5015 124.391 66.4748C123.336 66.4465 122.29 66.6707 121.34 67.1285C120.84 67.348 120.324 67.6222 119.769 67.9167C119.085 68.2799 118.342 68.6742 117.499 69.0352L113.713 70.7784C108.789 73.257 104.086 76.1549 99.6582 79.4401C96.0944 81.769 92.9457 84.6783 90.3428 88.0472C94.1981 87.8699 98.0521 88.4244 101.702 89.6815C96.792 89.6044 91.9015 90.3031 87.2104 91.7516C84.9132 92.4321 82.6654 93.2694 80.4827 94.2575C78.2989 95.1719 76.1945 96.2651 74.1907 97.526C72.2123 98.6672 70.3825 100.049 68.7432 101.639C68.0731 102.312 67.5533 103.12 67.2178 104.009C66.7548 105.016 66.319 106.133 65.9104 107.25C64.3361 111.834 63.0802 116.521 62.1516 121.277C60.1826 130.749 59.4501 140.435 59.9726 150.095C60.3614 157.895 62.3942 165.525 65.9377 172.485C69.2879 168.099 72.5565 163.605 75.7161 159.056C79.7473 153.146 83.5878 147.045 87.0198 140.889C88.8119 137.674 90.3961 134.311 91.9973 130.912C93.4624 127.802 94.9416 124.662 96.6075 121.577C98.2978 118.277 100.276 115.133 102.519 112.18C103.676 110.655 105.021 109.282 106.523 108.094C108.002 106.863 109.832 106.129 111.752 105.997C105.651 111.472 100.884 126.18 96.1717 142.659C92.3312 156.033 79.3931 186.539 71.2218 187.275C68.0349 187.466 66.891 185.94 64.7119 182.835L62.9415 180.384C59.8044 176.013 57.4115 171.154 55.8596 166.002C54.4366 160.955 53.5689 155.767 53.272 150.531C53.0217 145.381 53.1401 140.22 53.6261 135.087C54.1878 130.001 55.0518 124.953 56.2137 119.97C57.3523 114.971 58.8358 110.056 60.6535 105.262C61.1438 104.063 61.6341 102.865 62.2333 101.639C62.5616 100.952 62.9346 100.288 63.35 99.6506C63.8094 99.0113 64.3195 98.4102 64.8754 97.8529C66.8628 95.9633 69.1099 94.3674 71.5487 93.1135C75.5998 91.0158 79.9426 89.5376 84.4322 88.7282C85.694 85.922 87.4257 83.3519 89.5529 81.1288C91.6307 78.9684 93.8907 76.9908 96.3079 75.2182C100.801 71.6104 105.668 68.4965 110.826 65.9301C112.079 65.3036 113.713 64.5682 114.803 64.1052C115.336 63.8786 115.895 63.5869 116.506 63.2683C117.143 62.9356 117.837 62.5736 118.616 62.2257C120.252 61.4594 122.039 61.0685 123.846 61.0817C125.367 61.1004 126.886 61.2095 128.395 61.4086C134.246 62.068 140.015 63.3276 145.609 65.1674C151.117 67.0018 156.503 69.1853 161.734 71.7045L169.469 75.4633L173.31 77.37C174.161 77.8301 175.246 78.2514 176.399 78.6994C176.611 78.7818 176.826 78.8651 177.042 78.9498C178.431 79.4945 179.738 80.0666 181.154 80.7747C181.924 81.1608 182.662 81.6071 183.361 82.1094C184.038 82.653 184.675 83.2447 185.267 83.8798C187.36 86.1332 189.188 88.619 190.715 91.2885C190.776 91.3948 190.837 91.501 190.898 91.607C193.715 96.4982 196.332 101.043 200.384 103.709L203.626 105.861V106.215L202.727 107.822L199.731 108.585C199.161 108.76 198.682 109.151 198.396 109.674C198.254 109.934 198.17 110.223 198.151 110.518C198.12 111.108 198.12 111.699 198.151 112.289C198.155 113.212 198.017 114.131 197.742 115.013C197.6 115.502 197.44 115.918 197.304 116.272C197.205 116.528 197.119 116.752 197.061 116.947C196.98 117.136 196.939 117.34 196.939 117.546C196.939 117.752 196.98 117.956 197.061 118.145C199.188 120.351 201.664 122.191 204.388 123.593C205.069 123.974 205.777 124.301 206.513 124.628L207.63 125.064C208.19 125.317 208.727 125.618 209.237 125.962C210.688 126.882 211.882 127.78 213.124 128.714C213.28 128.831 213.437 128.949 213.595 129.068L221.766 135.332L223.782 136.858ZM152.882 119.589C152.184 119.656 151.482 119.656 150.785 119.589C146.1 119.316 143.812 116.102 144.574 112.807C145.337 109.511 144.874 108.421 143.948 108.421C142.512 108.923 141.278 109.879 140.434 111.145H140.244C140.194 111.154 140.143 111.151 140.095 111.136C140.046 111.122 140.002 111.097 139.965 111.062C139.928 111.028 139.9 110.986 139.882 110.939C139.864 110.892 139.857 110.841 139.862 110.791C140.843 103.954 144.847 103.655 146.617 103.655C152.021 104.056 157.374 104.968 162.606 106.378C162.757 106.403 162.898 106.472 163.01 106.578C163.121 106.684 163.198 106.82 163.23 106.97C163.263 107.121 163.249 107.277 163.191 107.419C163.133 107.561 163.034 107.683 162.906 107.767C162.129 108.45 161.549 109.327 161.223 110.309C160.898 111.29 160.839 112.34 161.053 113.351C161.38 116.565 157.567 119.071 152.882 119.589Z" fill="#002825"/>
<g filter="url(#filter0_i_7095_836)">
<g filter="url(#filter1_f_7095_836)">
<g filter="url(#filter2_f_7095_836)">
<path d="M255.383 255.919C312.834 198.472 312.834 105.338 255.383 47.8938C197.945 -9.54718 104.804 -9.54718 47.3602 47.8938C-10.0836 105.338 -10.0836 198.472 47.3602 255.919C104.804 313.36 197.945 313.36 255.383 255.919Z" fill="black" fill-opacity="0.15"/>
</g>
</g>
<path d="M254.106 254.108C311.552 196.661 311.552 103.527 254.106 46.0829C196.665 -11.361 103.528 -11.361 46.0807 46.0829C-11.3602 103.527 -11.3602 196.661 46.0807 254.108C103.528 311.547 196.665 311.547 254.106 254.108Z" fill="#282931" stroke="url(#paint0_linear_7095_836)" stroke-opacity="0.7" stroke-width="0.7" stroke-miterlimit="10"/>
<path d="M254.106 254.108C311.552 196.661 311.552 103.527 254.106 46.0829C196.665 -11.361 103.528 -11.361 46.0807 46.0829C-11.3602 103.527 -11.3602 196.661 46.0807 254.108C103.528 311.547 196.665 311.547 254.106 254.108Z" fill="#282931" stroke="url(#paint1_linear_7095_836)" stroke-opacity="0.7" stroke-miterlimit="10"/>
<path d="M233.318 233.336C279.271 187.377 279.271 112.871 233.318 66.9153C187.366 20.9595 112.856 20.9595 66.9005 66.9153C20.9446 112.871 20.9446 187.377 66.9005 233.336C112.856 279.289 187.366 279.289 233.318 233.336Z" fill="#282931"/>
</g>
<path d="M54.9844 88.3918C54.9844 88.3918 135.715 88.189 173.615 88.4664C196.472 88.6364 214.746 98.1711 229.228 116.125C260.314 154.67 242.178 217.828 187.519 229.808C181.158 231.204 174.418 231.138 167.847 231.24C159.142 231.374 150.293 231.926 141.751 230.661C123.46 227.956 107.129 210.277 106.628 191.055C106.517 186.918 107.525 187.399 104.591 185.77C91.7126 178.624 80.6092 161.923 78.9569 147.87C78.3694 142.88 79.446 141.118 76.9796 139.862C66.2996 131.043 57.424 114.219 56.243 100.817L54.9844 88.3918ZM123.532 189.832C124.96 202.94 134.746 215.412 150.758 215.368H173.01C194.191 215.376 214.96 201.938 223.639 181.201C238.823 144.92 212.297 104.87 172.992 104.825C162.861 104.813 152.73 104.831 142.598 104.822C122.548 104.801 102.497 104.771 82.4463 104.747C79.5087 104.741 76.571 104.747 73.5409 104.747C75.2886 117.953 84.3998 130.256 100.848 129.975L172.87 129.883C187.937 129.907 201.083 141.482 202.562 155.919C204.242 172.323 194.146 186.268 178.339 189.254C176.153 189.665 173.887 189.802 171.659 189.808C155.718 189.856 139.774 189.835 123.535 189.835L123.532 189.832ZM95.4287 146.996C95.4287 146.996 99.3446 172.689 122.658 172.594C122.658 172.594 168.354 172.639 173.469 172.394C178.632 172.147 182.521 169.68 184.665 164.881C186.657 160.423 186.153 156.17 183.18 152.251C179.971 148.028 175.417 147.115 170.496 147.103L95.4287 146.996Z" fill="#00D395"/>
<path d="M54.9844 88.3918C54.9844 88.3918 135.715 88.189 173.615 88.4664C196.472 88.6364 214.746 98.1711 229.228 116.125C260.314 154.67 242.178 217.828 187.519 229.808C181.158 231.204 174.418 231.138 167.847 231.24C159.142 231.374 150.293 231.926 141.751 230.661C123.46 227.956 107.129 210.277 106.628 191.055C106.517 186.918 107.525 187.399 104.591 185.77C91.7126 178.624 80.6092 161.923 78.9569 147.87C78.3694 142.88 79.446 141.118 76.9796 139.862C66.2996 131.043 57.424 114.219 56.243 100.817L54.9844 88.3918ZM123.532 189.832C124.96 202.94 134.746 215.412 150.758 215.368H173.01C194.191 215.376 214.96 201.938 223.639 181.201C238.823 144.92 212.297 104.87 172.992 104.825C162.861 104.813 152.73 104.831 142.598 104.822C122.548 104.801 102.497 104.771 82.4463 104.747C79.5087 104.741 76.571 104.747 73.5409 104.747C75.2886 117.953 84.3998 130.256 100.848 129.975L172.87 129.883C187.937 129.907 201.083 141.482 202.562 155.919C204.242 172.323 194.146 186.268 178.339 189.254C176.153 189.665 173.887 189.802 171.659 189.808C155.718 189.856 139.774 189.835 123.535 189.835L123.532 189.832ZM95.4287 146.996C95.4287 146.996 99.3446 172.689 122.658 172.594C122.658 172.594 168.354 172.639 173.469 172.394C178.632 172.147 182.521 169.68 184.665 164.881C186.657 160.423 186.153 156.17 183.18 152.251C179.971 148.028 175.417 147.115 170.496 147.103L95.4287 146.996Z" fill="url(#paint2_linear_7095_836)" fill-opacity="0.4"/>
</g>
<defs>
<filter id="filter0_i_7095_836" x="2.5" y="2.5" width="295.973" height="297.5" filterUnits="userSpaceOnUse" color-interpolation-filters="sRGB">
<feFlood flood-opacity="0" result="BackgroundImageFix"/>
<feBlend mode="normal" in="SourceGraphic" in2="BackgroundImageFix" result="shape"/>
<feColorMatrix in="SourceAlpha" type="matrix" values="0 0 0 0 0 0 0 0 0 0 0 0 0 0 0 0 0 0 127 0" result="hardAlpha"/>
<feOffset dy="1"/>
<feGaussianBlur stdDeviation="4"/>
<feComposite in2="hardAlpha" operator="arithmetic" k2="-1" k3="1"/>
<feColorMatrix type="matrix" values="0 0 0 0 0 0 0 0 0 0 0 0 0 0 0 0 0 0 0.35 0"/>
<feBlend mode="normal" in2="shape" result="effect1_innerShadow_7095_836"/>
</filter>
<filter id="filter1_f_7095_836" x="-1.72266" y="-1.18692" width="306.195" height="306.187" filterUnits="userSpaceOnUse" color-interpolation-filters="sRGB">
<feFlood flood-opacity="0" result="BackgroundImageFix"/>
<feBlend mode="normal" in="SourceGraphic" in2="BackgroundImageFix" result="shape"/>
<feGaussianBlur stdDeviation="3" result="effect1_foregroundBlur_7095_836"/>
</filter>
<filter id="filter2_f_7095_836" x="2.27734" y="2.81308" width="298.195" height="298.187" filterUnits="userSpaceOnUse" color-interpolation-filters="sRGB">
<feFlood flood-opacity="0" result="BackgroundImageFix"/>
<feBlend mode="normal" in="SourceGraphic" in2="BackgroundImageFix" result="shape"/>
<feGaussianBlur stdDeviation="1" result="effect1_foregroundBlur_7095_836"/>
</filter>
<linearGradient id="paint0_linear_7095_836" x1="150.095" y1="2.99929" x2="150.095" y2="297.193" gradientUnits="userSpaceOnUse">
<stop stop-color="#6B6B6F"/>
<stop offset="0.96875" stop-color="#848487" stop-opacity="0.42"/>
</linearGradient>
<linearGradient id="paint1_linear_7095_836" x1="-77.6143" y1="-134.713" x2="225.657" y2="293.653" gradientUnits="userSpaceOnUse">
<stop offset="0.0835138" stop-color="#01CC90"/>
<stop offset="0.96875" stop-color="#848487" stop-opacity="0"/>
</linearGradient>
<linearGradient id="paint2_linear_7095_836" x1="47.0929" y1="87.7268" x2="55.1156" y2="239.343" gradientUnits="userSpaceOnUse">
<stop/>
<stop offset="0.956462" stop-color="#5B5151" stop-opacity="0.34"/>
</linearGradient>
<clipPath id="clip0_7095_836">
<rect width="300" height="300" fill="white"/>
</clipPath>
</defs>
</svg>
