<svg width="16" height="16" viewBox="0 0 16 16" fill="none" xmlns="http://www.w3.org/2000/svg">
<g clip-path="url(#clip0_414_330)">
<path fill-rule="evenodd" clip-rule="evenodd" d="M0.435976 2.18404C0 3.0397 0 4.15982 0 6.4V9.6C0 11.8402 0 12.9602 0.435976 13.816C0.819468 14.5686 1.43139 15.1805 2.18404 15.564C3.0397 16 4.15982 16 6.4 16H9.6C11.8402 16 12.9602 16 13.816 15.564C14.5686 15.1805 15.1805 14.5686 15.564 13.816C16 12.9602 16 11.8402 16 9.6V6.4C16 4.15982 16 3.0397 15.564 2.18404C15.1805 1.43139 14.5686 0.819468 13.816 0.435976C12.9602 0 11.8402 0 9.6 0H6.4C4.15982 0 3.0397 0 2.18404 0.435976C1.43139 0.819468 0.819468 1.43139 0.435976 2.18404ZM5.19024 3.3995C5.09589 3.39947 5.00154 3.39943 4.90719 3.39943H3.58746C3.54229 3.39955 3.5197 3.42271 3.51967 3.46896L3.51958 6.10325C3.51961 6.14911 3.54214 6.17206 3.58716 6.17206C3.66529 6.17206 3.74342 6.1721 3.82154 6.17213C4.07727 6.17225 4.33299 6.17237 4.58872 6.17122C4.63119 6.17104 4.64779 6.18211 4.6449 6.22653C4.64192 6.27288 4.64088 6.31936 4.63984 6.36584C4.63913 6.39758 4.63841 6.42933 4.63708 6.46105C4.61991 6.87095 4.41245 7.17206 4.08881 7.40156C3.93272 7.51227 3.74734 7.55368 3.5625 7.58989C3.53101 7.59606 3.51886 7.60758 3.51895 7.64048C3.51988 7.96562 3.52003 8.2908 3.5188 8.61594C3.51865 8.65389 3.53212 8.66511 3.56779 8.66078C3.60591 8.65617 3.64412 8.65212 3.68232 8.64808C3.73399 8.64261 3.78567 8.63714 3.83714 8.63025C4.264 8.57332 4.67549 8.46499 5.05603 8.25717C5.51624 8.00583 5.85164 7.64027 6.05657 7.15648C6.23236 6.74144 6.29681 6.30502 6.29814 5.85814C6.29947 5.41375 6.29937 4.96937 6.29927 4.52499C6.29919 4.16952 6.29911 3.81405 6.29976 3.45859C6.29985 3.40893 6.28388 3.39835 6.23738 3.3985C5.88834 3.39975 5.53929 3.39963 5.19024 3.3995Z" fill="#EF9C32"/>
</g>
<defs>
<clipPath id="clip0_414_330">
<rect width="16" height="16" fill="white"/>
</clipPath>
</defs>
</svg>
