<svg width="24" height="24" viewBox="0 0 24 24" fill="none" xmlns="http://www.w3.org/2000/svg">
<path d="M17.2229 17.0237C15.7272 18.1638 13.9059 18.7954 12.0254 18.8262C5.90039 18.8262 2.40039 11.8262 2.40039 11.8262C3.48879 9.79785 4.99838 8.02573 6.82789 6.62869M10.1879 5.03619C10.7902 4.89521 11.4068 4.82474 12.0254 4.82619C18.1504 4.82619 21.6504 11.8262 21.6504 11.8262C21.1192 12.8199 20.4858 13.7553 19.7604 14.6174M13.8804 13.6812C13.6401 13.9391 13.3503 14.146 13.0283 14.2894C12.7063 14.4329 12.3587 14.51 12.0062 14.5163C11.6538 14.5225 11.3037 14.4576 10.9768 14.3256C10.6499 14.1936 10.353 13.9971 10.1038 13.7478C9.85449 13.4986 9.65798 13.2016 9.52596 12.8748C9.39394 12.5479 9.3291 12.1978 9.33532 11.8454C9.34154 11.4929 9.41869 11.1453 9.56216 10.8233C9.70563 10.5013 9.91249 10.2115 10.1704 9.97119" stroke="#89B0AE" stroke-width="2" stroke-linecap="round" stroke-linejoin="round"/>
<path d="M2.40039 2.20117L21.6504 21.4512" stroke="#89B0AE" stroke-width="2" stroke-linecap="round" stroke-linejoin="round"/>
</svg>
