<svg width="532" height="532" viewBox="0 0 532 532" fill="none" xmlns="http://www.w3.org/2000/svg">
<path d="M0 212.8C0 138.314 -9.53674e-07 101.07 14.4962 72.6192C27.2473 47.5938 47.5938 27.2473 72.6192 14.4962C101.07 -9.53674e-07 138.314 0 212.8 0H319.2C393.688 0 430.928 -9.53674e-07 459.382 14.4962C484.406 27.2473 504.751 47.5938 517.503 72.6192C532 101.07 532 138.314 532 212.8V319.2C532 393.688 532 430.928 517.503 459.382C504.751 484.406 484.406 504.751 459.382 517.503C430.928 532 393.688 532 319.2 532H212.8C138.314 532 101.07 532 72.6192 517.503C47.5938 504.751 27.2473 484.406 14.4962 459.382C-9.53674e-07 430.928 0 393.688 0 319.2V212.8Z" fill="url(#paint0_linear_7083_777)"/>
<g filter="url(#filter0_i_7083_777)">
<path d="M163.164 113.031C177.907 113.032 192.65 113.053 207.393 113C208.939 112.995 209.47 113.347 209.467 114.998C209.418 141.593 209.493 168.188 209.413 194.783C209.369 209.642 207.226 224.153 201.381 237.953C194.567 254.039 183.415 266.194 168.113 274.551C155.46 281.461 141.778 285.063 127.585 286.956C124.608 287.354 121.611 287.61 118.629 287.971C117.443 288.115 116.995 287.742 117 286.48C117.041 275.669 117.036 264.857 117.005 254.046C117.002 252.952 117.406 252.569 118.453 252.364C124.599 251.16 130.763 249.783 135.953 246.102C146.714 238.471 153.612 228.459 154.183 214.83C154.292 212.231 154.276 209.626 154.443 207.032C154.539 205.555 153.987 205.187 152.575 205.193C141.474 205.243 130.374 205.221 119.273 205.221C117.776 205.221 117.027 204.458 117.026 202.933C117.027 173.736 117.027 144.54 117.029 115.343C117.03 113.805 117.781 113.035 119.283 113.031C133.91 113.03 148.537 113.031 163.164 113.031Z" fill="white"/>
</g>
<defs>
<filter id="filter0_i_7083_777" x="117" y="113" width="93.4668" height="176" filterUnits="userSpaceOnUse" color-interpolation-filters="sRGB">
<feFlood flood-opacity="0" result="BackgroundImageFix"/>
<feBlend mode="normal" in="SourceGraphic" in2="BackgroundImageFix" result="shape"/>
<feColorMatrix in="SourceAlpha" type="matrix" values="0 0 0 0 0 0 0 0 0 0 0 0 0 0 0 0 0 0 127 0" result="hardAlpha"/>
<feOffset dx="1" dy="2"/>
<feGaussianBlur stdDeviation="0.5"/>
<feComposite in2="hardAlpha" operator="arithmetic" k2="-1" k3="1"/>
<feColorMatrix type="matrix" values="0 0 0 0 0 0 0 0 0 0 0 0 0 0 0 0 0 0 0.65 0"/>
<feBlend mode="normal" in2="shape" result="effect1_innerShadow_7083_777"/>
</filter>
<linearGradient id="paint0_linear_7083_777" x1="120.599" y1="17.535" x2="383.298" y2="522.819" gradientUnits="userSpaceOnUse">
<stop stop-color="#33343B"/>
<stop offset="1" stop-color="#18191E"/>
</linearGradient>
</defs>
</svg>
