<svg width="24" height="24" viewBox="0 0 24 24" fill="none" xmlns="http://www.w3.org/2000/svg">
<path fill-rule="evenodd" clip-rule="evenodd" d="M9.25977 9.53247H8.04102H7.02539H6.61914C5.94604 9.53247 5.40039 10.1524 5.40039 10.9171V20.1479C5.40039 20.9125 5.94604 21.5325 6.61914 21.5325H17.1816C17.8547 21.5325 18.4004 20.9125 18.4004 20.1479V10.9171C18.4004 10.1524 17.8547 9.53247 17.1816 9.53247H15.7598H14.541H9.25977ZM17.1816 10.9171V20.1479H6.61914V10.9171H17.1816ZM11.291 14.1479V16.9171H12.5098V14.1479H11.291Z" fill="#789594"/>
<path d="M15.0492 10.1396L16.3485 9.83524L17.0371 8.72519C18.4201 6.496 17.7342 3.56773 15.505 2.18474C13.2758 0.801754 10.3474 1.48775 8.96453 3.71692L8.17376 4.9915C7.95538 5.34349 8.0637 5.80586 8.41569 6.02422V6.02422C8.76767 6.24259 9.23003 6.13426 9.44839 5.78228L10.2391 4.50771C11.1854 2.98248 13.1889 2.51312 14.7141 3.45938C16.2394 4.40564 16.7087 6.40918 15.7625 7.93442L14.5764 9.84631L15.0492 10.1396Z" fill="#789594"/>
</svg>
